STARTFONT 2.1
FONT -FontForge-Good Times Rg-Book-R-Normal--167-1600-75-75-P-1240-ISO10646-1
SIZE 160 75 75
FONTBOUNDINGBOX 332 198 -46 -34
COMMENT "Generated by fontforge, http://fontforge.sourceforge.net"
COMMENT "(c) 1998-2012 Typodermic Fonts Inc. See attached license agreement. If agreement is missing visit typodermicfonts.com for more info. Languages by Chikako Larabie"
STARTPROPERTIES 39
FOUNDRY "FontForge"
FAMILY_NAME "Good Times Rg"
WEIGHT_NAME "Book"
SLANT "R"
SETWIDTH_NAME "Normal"
ADD_STYLE_NAME ""
PIXEL_SIZE 167
POINT_SIZE 1600
RESOLUTION_X 75
RESOLUTION_Y 75
SPACING "P"
AVERAGE_WIDTH 1240
CHARSET_REGISTRY "ISO10646"
CHARSET_ENCODING "1"
FONTNAME_REGISTRY ""
CHARSET_COLLECTIONS "ISO8859-2 ISO8859-9 ISO8859-4 ISO10646-1"
FONT_NAME "GoodTimesRg-Regular"
FACE_NAME "GoodTimesRg-Regular"
COPYRIGHT "(c) 1998-2012 Typodermic Fonts Inc. See attached license agreement. If agreement is missing visit typodermicfonts.com for more info. Languages by Chikako Larabie"
FONT_VERSION "4.001"
FONT_ASCENT 133
FONT_DESCENT 34
UNDERLINE_POSITION -24
UNDERLINE_THICKNESS 4
X_HEIGHT 121
CAP_HEIGHT 121
RAW_ASCENT 799
RAW_DESCENT 201
NORM_SPACE 49
RELATIVE_WEIGHT 40
RELATIVE_SETWIDTH 50
SUPERSCRIPT_X 0
SUPERSCRIPT_Y 50
SUPERSCRIPT_SIZE 50
SUBSCRIPT_X 0
SUBSCRIPT_Y 0
SUBSCRIPT_SIZE 50
AVG_LOWERCASE_WIDTH 1423
AVG_UPPERCASE_WIDTH 1418
ENDPROPERTIES
CHARS 372
STARTCHAR space
ENCODING 32
SWIDTH 294 0
DWIDTH 49 0
BBX 1 1 0 0
BITMAP
00
ENDCHAR
STARTCHAR exclam
ENCODING 33
SWIDTH 298 0
DWIDTH 50 0
BBX 23 122 14 0
BITMAP
7FFFF8
7FFFF8
7FFFF8
7FFFF8
7FFFF8
7FFFF8
7FFFF8
7FFFF8
7FFFF8
7FFFF8
7FFFF8
7FFFF8
7FFFF8
7FFFF8
7FFFF8
7FFFF8
7FFFF8
7FFFF8
7FFFF8
7FFFF8
7FFFF8
7FFFF8
7FFFF8
7FFFF8
7FFFF8
7FFFF8
7FFFF8
7FFFF8
7FFFF8
7FFFF8
7FFFF8
7FFFF8
7FFFF8
7FFFF8
7FFFF8
7FFFF8
7FFFF8
7FFFF8
7FFFF8
7FFFF8
7FFFF8
7FFFF8
7FFFF8
7FFFF8
7FFFF8
7FFFF8
7FFFF8
7FFFF8
7FFFF8
7FFFF8
7FFFF8
7FFFF8
7FFFF8
7FFFF8
7FFFF8
7FFFF8
7FFFF8
7FFFF8
7FFFF8
7FFFF8
7FFFF8
7FFFF8
7FFFF8
7FFFF8
7FFFF8
7FFFF8
7FFFF8
7FFFF8
7FFFF8
7FFFF8
7FFFF8
7FFFF8
7FFFF8
7FFFF8
7FFFF8
7FFFF8
7FFFF8
7FFFF8
7FFFF8
7FFFF8
7FFFF8
7FFFF8
7FFFF8
000000
000000
000000
000000
000000
000000
000000
000000
000000
000000
000000
000000
000000
000000
000000
000000
00FE00
07FF80
0FFFE0
1FFFF0
3FFFF0
7FFFF8
7FFFFC
FFFFFC
FFFFFC
FFFFFC
FFFFFE
FFFFFE
FFFFFE
FFFFFC
FFFFFC
FFFFFC
7FFFFC
7FFFF8
3FFFF0
1FFFF0
0FFFE0
07FF80
00FE00
ENDCHAR
STARTCHAR quotedbl
ENCODING 34
SWIDTH 452 0
DWIDTH 75 0
BBX 53 44 11 78
BITMAP
FFFFFC00FFFFF8
FFFFFC00FFFFF8
7FFFFC00FFFFF8
7FFFFC00FFFFF8
7FFFFC00FFFFF8
7FFFF800FFFFF8
7FFFF800FFFFF8
7FFFF800FFFFF0
7FFFF800FFFFF0
7FFFF800FFFFF0
7FFFF8007FFFF0
7FFFF8007FFFF0
7FFFF8007FFFF0
3FFFF8007FFFF0
3FFFF8007FFFF0
3FFFF8007FFFF0
3FFFF0007FFFF0
3FFFF0007FFFF0
3FFFF0007FFFF0
3FFFF0007FFFE0
3FFFF0007FFFE0
3FFFF0003FFFE0
3FFFF0003FFFE0
3FFFF0003FFFE0
3FFFF0003FFFE0
1FFFF0003FFFE0
1FFFF0003FFFE0
1FFFF0003FFFE0
1FFFE0003FFFE0
1FFFE0003FFFE0
1FFFE0003FFFC0
1FFFE0003FFFC0
1FFFE0001FFFC0
1FFFE0001FFFC0
1FFFE0001FFFC0
1FFFE0001FFFC0
0FFFE0001FFFC0
0FFFE0001FFFC0
0FFFE0001FFFC0
0FFFC0001FFFC0
0FFFC0001FFFC0
0FFFC0001FFFC0
0FFFC0001FFF80
0FFFC0000FFF80
ENDCHAR
STARTCHAR numbersign
ENCODING 35
SWIDTH 697 0
DWIDTH 116 0
BBX 103 122 7 0
BITMAP
00000000003FFF8000003FFF80
00000000003FFF8000003FFF80
00000000007FFF8000007FFF00
00000000007FFF0000007FFF00
00000000007FFF0000007FFF00
0000000000FFFF000000FFFE00
0000000000FFFE000000FFFE00
0000000000FFFE000000FFFE00
0000000000FFFE000001FFFC00
0000000001FFFC000001FFFC00
0000000001FFFC000001FFFC00
0000000001FFFC000001FFFC00
0000000003FFFC000003FFF800
0000000003FFF8000003FFF800
0000000003FFF8000003FFF800
0000000007FFF8000007FFF000
0000000007FFF0000007FFF000
0000000007FFF0000007FFF000
0000000007FFF000000FFFE000
000000000FFFE000000FFFE000
000000000FFFE000000FFFE000
000000000FFFE000000FFFE000
000000001FFFE000001FFFC000
000000001FFFC000001FFFC000
000000001FFFC000001FFFC000
000000003FFFC000003FFF8000
000000003FFF8000003FFF8000
000000003FFF8000003FFF8000
000000007FFF8000007FFF0000
000000007FFF0000007FFF0000
000000007FFF0000007FFF0000
0007FFFFFFFFFFFFFFFFFFFFFE
0007FFFFFFFFFFFFFFFFFFFFFE
0007FFFFFFFFFFFFFFFFFFFFFE
0007FFFFFFFFFFFFFFFFFFFFFE
0007FFFFFFFFFFFFFFFFFFFFFE
0007FFFFFFFFFFFFFFFFFFFFFE
0007FFFFFFFFFFFFFFFFFFFFFE
0007FFFFFFFFFFFFFFFFFFFFFE
0007FFFFFFFFFFFFFFFFFFFFFE
0007FFFFFFFFFFFFFFFFFFFFFE
0007FFFFFFFFFFFFFFFFFFFFFE
0007FFFFFFFFFFFFFFFFFFFFFE
0007FFFFFFFFFFFFFFFFFFFFFE
0007FFFFFFFFFFFFFFFFFFFFFE
0000000FFFE000000FFFE00000
0000000FFFE000000FFFE00000
0000000FFFE000000FFFE00000
0000001FFFC000001FFFC00000
0000001FFFC000001FFFC00000
0000001FFFC000001FFFC00000
0000001FFFC000003FFF800000
0000003FFF8000003FFF800000
0000003FFF8000003FFF800000
0000003FFF8000003FFF800000
0000007FFF0000007FFF000000
0000007FFF0000007FFF000000
0000007FFF0000007FFF000000
000000FFFF000000FFFE000000
000000FFFE000000FFFE000000
000000FFFE000000FFFE000000
000000FFFE000000FFFE000000
000001FFFC000001FFFC000000
000001FFFC000001FFFC000000
000001FFFC000001FFFC000000
000003FFFC000003FFF8000000
000003FFF8000003FFF8000000
000003FFF8000003FFF8000000
000003FFF8000003FFF8000000
000007FFF0000007FFF0000000
000007FFF0000007FFF0000000
000007FFF0000007FFF0000000
00000FFFE000000FFFE0000000
00000FFFE000000FFFE0000000
00000FFFE000000FFFE0000000
FFFFFFFFFFFFFFFFFFFFFFC000
FFFFFFFFFFFFFFFFFFFFFFC000
FFFFFFFFFFFFFFFFFFFFFFC000
FFFFFFFFFFFFFFFFFFFFFFC000
FFFFFFFFFFFFFFFFFFFFFFC000
FFFFFFFFFFFFFFFFFFFFFFC000
FFFFFFFFFFFFFFFFFFFFFFC000
FFFFFFFFFFFFFFFFFFFFFFC000
FFFFFFFFFFFFFFFFFFFFFFC000
FFFFFFFFFFFFFFFFFFFFFFC000
FFFFFFFFFFFFFFFFFFFFFFC000
FFFFFFFFFFFFFFFFFFFFFFC000
FFFFFFFFFFFFFFFFFFFFFFC000
FFFFFFFFFFFFFFFFFFFFFFC000
0001FFFC000001FFFC00000000
0001FFFC000001FFFC00000000
0001FFFC000001FFFC00000000
0003FFF8000003FFF800000000
0003FFF8000003FFF800000000
0003FFF8000003FFF800000000
0007FFF0000007FFF000000000
0007FFF0000007FFF000000000
0007FFF0000007FFF000000000
0007FFF000000FFFE000000000
000FFFE000000FFFE000000000
000FFFE000000FFFE000000000
000FFFE000000FFFE000000000
001FFFC000001FFFC000000000
001FFFC000001FFFC000000000
001FFFC000001FFFC000000000
001FFF8000003FFF8000000000
003FFF8000003FFF8000000000
003FFF8000003FFF8000000000
003FFF8000007FFF8000000000
007FFF0000007FFF0000000000
007FFF0000007FFF0000000000
007FFF0000007FFF0000000000
00FFFE000000FFFE0000000000
00FFFE000000FFFE0000000000
00FFFE000000FFFE0000000000
00FFFE000001FFFC0000000000
01FFFC000001FFFC0000000000
01FFFC000001FFFC0000000000
01FFFC000003FFFC0000000000
03FFF8000003FFF80000000000
03FFF8000003FFF80000000000
03FFF8000007FFF80000000000
ENDCHAR
STARTCHAR dollar
ENCODING 36
SWIDTH 744 0
DWIDTH 124 0
BBX 104 122 10 0
BITMAP
000000000000FFC00000000000
000000000000FFC00000000000
000000000000FFC00000000000
000000000000FFC00000000000
000000000000FFC00000000000
000000000000FFC00000000000
000000000000FFC00000000000
000000000000FFC00000000000
000000000000FFC00000000000
000000000000FFC00000000000
000000000000FFC00000000000
000000000000FFC00000000000
000001FFFFFFFFFFFFFFFFFFF0
00003FFFFFFFFFFFFFFFFFFFF0
0000FFFFFFFFFFFFFFFFFFFFF0
0007FFFFFFFFFFFFFFFFFFFFF0
000FFFFFFFFFFFFFFFFFFFFFF0
003FFFFFFFFFFFFFFFFFFFFFF0
007FFFFFFFFFFFFFFFFFFFFFF0
00FFFFFFFFFFFFFFFFFFFFFFF0
03FFFFFFFFFFFFFFFFFFFFFFF0
03FFFFFFFFFFFFFFFFFFFFFFF0
07FFFFFFFFFFFFFFFFFFFFFFF0
0FFFFFFFFFFFFFFFFFFFFFFFF0
1FFFFFFFFFFFFFFFFFFFFFFFF0
1FFFFFFFFFFFFFFFFFFFFFFFF0
3FFFFFFFFFFFFFFFFFFFFFFFF0
3FFFFFFFFFFFFFFFFFFFFFFFF0
7FFFFFFFFFFFFFFFFFFFFFFFF0
7FFFFF800000FFC00000000000
7FFFFE000000FFC00000000000
FFFFF8000000FFC00000000000
FFFFF0000000FFC00000000000
FFFFE0000000FFC00000000000
FFFFE0000000FFC00000000000
FFFFC0000000FFC00000000000
FFFFC0000000FFC00000000000
FFFFC0000000FFC00000000000
FFFF80000000FFC00000000000
FFFF80000000FFC00000000000
FFFF80000000FFC00000000000
FFFF80000000FFC00000000000
FFFF80000000FFC00000000000
FFFF80000000FFC00000000000
FFFFC0000000FFC00000000000
FFFFC0000000FFC00000000000
FFFFC0000000FFC00000000000
7FFFE0000000FFC00000000000
7FFFE0000000FFC00000000000
7FFFF0000000FFC00000000000
3FFFF8000000FFC00000000000
3FFFFE000000FFC00000000000
1FFFFF800000FFC00000000000
1FFFFFFFFFFFFFFFFFFFC00000
0FFFFFFFFFFFFFFFFFFFFC0000
0FFFFFFFFFFFFFFFFFFFFF8000
07FFFFFFFFFFFFFFFFFFFFF000
03FFFFFFFFFFFFFFFFFFFFF800
01FFFFFFFFFFFFFFFFFFFFFE00
00FFFFFFFFFFFFFFFFFFFFFF00
007FFFFFFFFFFFFFFFFFFFFF80
003FFFFFFFFFFFFFFFFFFFFFC0
000FFFFFFFFFFFFFFFFFFFFFE0
0003FFFFFFFFFFFFFFFFFFFFF0
0000FFFFFFFFFFFFFFFFFFFFF0
00003FFFFFFFFFFFFFFFFFFFF8
000001FFFFFFFFFFFFFFFFFFFC
000000000000FFC00001FFFFFC
000000000000FFC000003FFFFC
000000000000FFC000000FFFFE
000000000000FFC0000007FFFE
000000000000FFC0000003FFFE
000000000000FFC0000003FFFF
000000000000FFC0000001FFFF
000000000000FFC0000001FFFF
000000000000FFC0000000FFFF
000000000000FFC0000000FFFF
000000000000FFC0000000FFFF
000000000000FFC0000000FFFF
000000000000FFC0000000FFFF
000000000000FFC0000000FFFF
000000000000FFC0000000FFFF
000000000000FFC0000000FFFF
000000000000FFC0000000FFFF
000000000000FFC0000000FFFF
000000000000FFC0000001FFFF
000000000000FFC0000001FFFF
000000000000FFC0000003FFFF
000000000000FFC0000003FFFF
000000000000FFC0000007FFFE
000000000000FFC000000FFFFE
000000000000FFC000003FFFFE
000000000000FFC00001FFFFFE
7FFFFFFFFFFFFFFFFFFFFFFFFC
7FFFFFFFFFFFFFFFFFFFFFFFFC
7FFFFFFFFFFFFFFFFFFFFFFFF8
7FFFFFFFFFFFFFFFFFFFFFFFF8
7FFFFFFFFFFFFFFFFFFFFFFFF0
7FFFFFFFFFFFFFFFFFFFFFFFF0
7FFFFFFFFFFFFFFFFFFFFFFFE0
7FFFFFFFFFFFFFFFFFFFFFFFC0
7FFFFFFFFFFFFFFFFFFFFFFF80
7FFFFFFFFFFFFFFFFFFFFFFF00
7FFFFFFFFFFFFFFFFFFFFFFE00
7FFFFFFFFFFFFFFFFFFFFFFC00
7FFFFFFFFFFFFFFFFFFFFFF000
7FFFFFFFFFFFFFFFFFFFFFC000
7FFFFFFFFFFFFFFFFFFFFF0000
7FFFFFFFFFFFFFFFFFFFF80000
7FFFFFFFFFFFFFFFFFFF800000
000000000000FFC00000000000
000000000000FFC00000000000
000000000000FFC00000000000
000000000000FFC00000000000
000000000000FFC00000000000
000000000000FFC00000000000
000000000000FFC00000000000
000000000000FFC00000000000
000000000000FFC00000000000
000000000000FFC00000000000
000000000000FFC00000000000
000000000000FFC00000000000
ENDCHAR
STARTCHAR percent
ENCODING 37
SWIDTH 965 0
DWIDTH 161 0
BBX 147 141 7 -11
BITMAP
000000000000000000000000000001FFF80000
000000000000000000000000000003FFF00000
000000000000000000000000000007FFF00000
000000000000000000000000000007FFE00000
00000000000000000000000000000FFFC00000
00000000000000000000000000001FFF800000
0000007FF80000000000000000003FFF000000
000007FFFFC000000000000000007FFF000000
00003FFFFFF000000000000000007FFE000000
0000FFFFFFFE0000000000000000FFFC000000
0003FFFFFFFF0000000000000001FFF8000000
0007FFFFFFFFC000000000000003FFF8000000
000FFFFFFFFFE000000000000003FFF0000000
003FFFFFFFFFF800000000000007FFE0000000
007FFFFFFFFFFC0000000000000FFFC0000000
00FFFFFFFFFFFE0000000000001FFF80000000
01FFFFFFFFFFFF0000000000003FFF80000000
01FFFFC007FFFF0000000000003FFF00000000
03FFFC0000FFFF8000000000007FFE00000000
07FFF000001FFFC00000000000FFFC00000000
0FFFE000000FFFC00000000001FFFC00000000
0FFF80000007FFE00000000001FFF800000000
1FFF00000001FFF00000000003FFF000000000
1FFE00000001FFF00000000007FFE000000000
3FFE00000000FFF8000000000FFFC000000000
3FFC000000007FF8000000001FFFC000000000
3FF8000000003FF8000000001FFF8000000000
7FF8000000003FFC000000003FFF0000000000
7FF0000000001FFC000000007FFE0000000000
7FF0000000001FFC00000000FFFE0000000000
7FE0000000001FFC00000001FFFC0000000000
FFE0000000000FFE00000001FFF80000000000
FFE0000000000FFE00000003FFF00000000000
FFE0000000000FFE00000007FFE00000000000
FFE0000000000FFE0000000FFFE00000000000
FFE0000000000FFE0000000FFFC00000000000
FFE0000000000FFE0000001FFF800000000000
FFE0000000000FFE0000003FFF000000000000
FFE0000000000FFE0000007FFF000000000000
FFE0000000000FFE000000FFFE000000000000
FFE0000000000FFE000000FFFC000000000000
FFE0000000000FFE000001FFF8000000000000
FFE0000000000FFE000003FFF0000000000000
7FE0000000000FFC000007FFF0000000000000
7FF0000000001FFC000007FFE0000000000000
7FF0000000001FFC00000FFFC0000000000000
7FF0000000001FFC00001FFF80000000000000
3FF8000000003FF800003FFF80000000000000
3FF8000000003FF800007FFF00000000000000
3FFC000000007FF800007FFE00000000000000
1FFE00000000FFF00000FFFC00000000000000
1FFE00000001FFF00001FFF800000000000000
0FFF00000003FFE00003FFF800000000000000
0FFF80000007FFE00003FFF000000000000000
07FFE000000FFFC00007FFE000000000000000
03FFF000001FFF80000FFFC000000000000000
03FFFC0000FFFF80001FFFC000000000000000
01FFFFC007FFFF00003FFF8000000000000000
00FFFFFFFFFFFE00003FFF0000000000000000
007FFFFFFFFFFC00007FFE0000000000000000
003FFFFFFFFFF80000FFFC0000000000000000
001FFFFFFFFFF00001FFFC0000000000000000
000FFFFFFFFFE00003FFF80000000000000000
0003FFFFFFFF800003FFF00000000000000000
0001FFFFFFFF000007FFE00000000000000000
00007FFFFFFC00000FFFE00000000000000000
00001FFFFFF000001FFFC00000000000000000
000003FFFF8000001FFF800000000000000000
0000003FF80000003FFF000000000000000000
00000000000000007FFE000000000000000000
0000000000000000FFFE00000003FFC0000000
0000000000000001FFFC0000007FFFFC000000
0000000000000001FFF8000001FFFFFF800000
0000000000000003FFF000000FFFFFFFE00000
0000000000000007FFF000001FFFFFFFF80000
000000000000000FFFE000007FFFFFFFFC0000
000000000000000FFFC00000FFFFFFFFFF0000
000000000000001FFF800003FFFFFFFFFF8000
000000000000003FFF000007FFFFFFFFFFC000
000000000000007FFF00000FFFFFFFFFFFE000
00000000000000FFFE00000FFFFFFFFFFFF000
00000000000000FFFC00001FFFFC007FFFF800
00000000000001FFF800003FFFE00007FFF800
00000000000003FFF800007FFF000001FFFC00
00000000000007FFF000007FFE000000FFFE00
00000000000007FFE00000FFF80000003FFE00
0000000000000FFFC00000FFF00000001FFF00
0000000000001FFF800001FFF00000000FFF00
0000000000003FFF800001FFE00000000FFF80
0000000000007FFF000003FFC000000007FF80
0000000000007FFE000003FF8000000003FF80
000000000000FFFC000007FF8000000003FFC0
000000000001FFFC000007FF0000000001FFC0
000000000003FFF8000007FF0000000001FFC0
000000000003FFF0000007FF0000000001FFE0
000000000007FFE0000007FE0000000000FFE0
00000000000FFFC000000FFE0000000000FFE0
00000000001FFFC000000FFE0000000000FFE0
00000000003FFF8000000FFE0000000000FFE0
00000000003FFF0000000FFE0000000000FFE0
00000000007FFE0000000FFE0000000000FFE0
0000000000FFFC0000000FFE0000000000FFE0
0000000001FFFC0000000FFE0000000000FFE0
0000000003FFF80000000FFE0000000000FFE0
0000000003FFF00000000FFE0000000000FFE0
0000000007FFE00000000FFE0000000000FFE0
000000000FFFE000000007FE0000000000FFE0
000000001FFFC000000007FE0000000000FFE0
000000001FFF8000000007FF0000000001FFC0
000000003FFF0000000007FF0000000001FFC0
000000007FFE0000000003FF0000000001FFC0
00000000FFFE0000000003FF8000000003FF80
00000001FFFC0000000003FF8000000003FF80
00000001FFF80000000001FFC000000007FF80
00000003FFF00000000001FFE00000000FFF00
00000007FFF00000000000FFF00000000FFF00
0000000FFFE00000000000FFF00000001FFE00
0000000FFFC000000000007FFC0000003FFE00
0000001FFF8000000000007FFE000000FFFC00
0000003FFF0000000000003FFF000001FFF800
0000007FFF0000000000001FFFE00007FFF800
000000FFFE0000000000001FFFFC007FFFF000
000000FFFC0000000000000FFFFFFFFFFFE000
000001FFF800000000000007FFFFFFFFFFC000
000003FFF800000000000003FFFFFFFFFF8000
000007FFF000000000000001FFFFFFFFFF0000
000007FFE000000000000000FFFFFFFFFE0000
00000FFFC0000000000000003FFFFFFFF80000
00001FFF80000000000000001FFFFFFFF00000
00003FFF800000000000000007FFFFFFC00000
00007FFF000000000000000001FFFFFF000000
00007FFE0000000000000000003FFFF8000000
0000FFFC00000000000000000003FF80000000
0001FFFC000000000000000000000000000000
0003FFF8000000000000000000000000000000
0007FFF0000000000000000000000000000000
0007FFE0000000000000000000000000000000
000FFFC0000000000000000000000000000000
001FFFC0000000000000000000000000000000
003FFF80000000000000000000000000000000
007FFF00000000000000000000000000000000
ENDCHAR
STARTCHAR ampersand
ENCODING 38
SWIDTH 759 0
DWIDTH 127 0
BBX 114 122 8 0
BITMAP
000000007FFFFFFF80000000000000
0000000FFFFFFFFF80000000000000
000000FFFFFFFFFF80000000000000
000007FFFFFFFFFF80000000000000
00001FFFFFFFFFFF80000000000000
00007FFFFFFFFFFF80000000000000
0001FFFFFFFFFFFF80000000000000
0003FFFFFFFFFFFF80000000000000
0007FFFFFFFFFFFF80000000000000
001FFFFFFFFFFFFF80000000000000
003FFFFFFFFFFFFF80000000000000
007FFFFFFFFFFFFF80000000000000
007FFFFFFFFFFFFF80000000000000
00FFFFFFFFFFFFFF80000000000000
01FFFFFFFFFFFFFF80000000000000
01FFFFFFFFFFFFFF80000000000000
03FFFFFFFFFFFFFF80000000000000
07FFFFFFFFFFFFFF80000000000000
07FFFFFFFFFFFFFF80000000000000
07FFFFFFFFFFFFFF80000000000000
0FFFFFFFFFFFFFFF80000000000000
0FFFFFFFFC00000000000000000000
0FFFFFFF8000000000000000000000
1FFFFFFC0000000000000000000000
1FFFFFF80000000000000000000000
1FFFFFF00000000000000000000000
1FFFFFE00000000000000000000000
1FFFFFC00000000000000000000000
1FFFFF800000000000000000000000
1FFFFF800000000000000000000000
1FFFFF800000000000000000000000
1FFFFF000000000000000000000000
1FFFFF000000000000000000000000
1FFFFF000000000000000000000000
1FFFFF000000000000000000000000
1FFFFF000000000000000000000000
1FFFFF000000000000000000000000
1FFFFF000000000000000000000000
1FFFFF000000000000000000000000
1FFFFF000000000000000000000000
1FFFFF000000000000000000000000
0FFFFF800000000000000000000000
0FFFFF800000000000000000000000
0FFFFF800000000000000000000000
07FFFFC00000000000000000000000
07FFFFE00000000000000000000000
03FFFFF00000000000000000000000
03FFFFF80000000000000000000000
01FFFFFC0000000000000000000000
01FFFFFF0000000000000000000000
00FFFFFFF000000000000000000000
007FFFFFFFFFFFFFFFFFFFFFFFC000
003FFFFFFFFFFFFFFFFFFFFFFFC000
001FFFFFFFFFFFFFFFFFFFFFFFC000
0007FFFFFFFFFFFFFFFFFFFFFFC000
0003FFFFFFFFFFFFFFFFFFFFFFC000
0000FFFFFFFFFFFFFFFFFFFFFFC000
00003FFFFFFFFFFFFFFFFFFFFFC000
00007FFFFFFFFFFFFFFFFFFFFFC000
0001FFFFFFFFFFFFFFFFFFFFFFC000
0007FFFFFFFFFFFFFFFFFFFFFFC000
000FFFFFFFFFFFFFFFFFFFFFFFC000
003FFFFFFFFFFFFFFFFFFFFFFFC000
007FFFFFFFFFFFFFFFFFFFFFFFC000
00FFFFFFFFFFFFFFFFFFFFFFFFC000
01FFFFFFFFFFFFFFFFFFFFFFFFC000
03FFFFFFFFFFFFFFFFFFFFFFFFC000
03FFFFFFFFFFFFFFFFFFFFFFFFC000
07FFFFFFFFFFFFFFFFFFFFFFFFC000
0FFFFFFFF000000001FFFFF0000000
0FFFFFFE0000000001FFFFF0000000
1FFFFFF80000000001FFFFF0000000
1FFFFFE00000000001FFFFF0000000
3FFFFFC00000000001FFFFF0000000
3FFFFF800000000001FFFFF0000000
7FFFFF000000000001FFFFF0000000
7FFFFE000000000001FFFFF0000000
7FFFFE000000000001FFFFF0000000
7FFFFC000000000001FFFFF0000000
7FFFFC000000000001FFFFF0000000
FFFFFC000000000001FFFFF0000000
FFFFFC000000000001FFFFF0000000
FFFFFC000000000001FFFFF0000000
FFFFFC000000000001FFFFF0000000
FFFFFC000000000001FFFFF0000000
FFFFFC000000000001FFFFF0000000
FFFFFC000000000001FFFFF0000000
FFFFFC000000000001FFFFF0000000
FFFFFC000000000001FFFFF0000000
FFFFFC000000000001FFFFF0000000
FFFFFE000000000001FFFFF0000000
7FFFFE000000000001FFFFF0000000
7FFFFE000000000001FFFFF0000000
7FFFFF000000000001FFFFF0000000
7FFFFF800000000001FFFFF0000000
7FFFFFC00000000001FFFFF0000000
3FFFFFE00000000001FFFFF0000000
3FFFFFF80000000001FFFFF0000000
3FFFFFFC0000000001FFFFF0000000
1FFFFFFF8000000001FFFFF0000000
1FFFFFFFFE00000001FFFFF0000000
1FFFFFFFFFFFFFFFFFFFFFFFFFFFC0
0FFFFFFFFFFFFFFFFFFFFFFFFFFFC0
0FFFFFFFFFFFFFFFFFFFFFFFFFFFC0
07FFFFFFFFFFFFFFFFFFFFFFFFFFC0
03FFFFFFFFFFFFFFFFFFFFFFFFFFC0
03FFFFFFFFFFFFFFFFFFFFFFFFFFC0
01FFFFFFFFFFFFFFFFFFFFFFFFFFC0
00FFFFFFFFFFFFFFFFFFFFFFFFFFC0
00FFFFFFFFFFFFFFFFFFFFFFFFFFC0
007FFFFFFFFFFFFFFFFFFFFFFFFFC0
003FFFFFFFFFFFFFFFFFFFFFFFFFC0
001FFFFFFFFFFFFFFFFFFFFFFFFFC0
000FFFFFFFFFFFFFFFFFFFFFFFFFC0
0003FFFFFFFFFFFFFFFFFFFFFFFFC0
0001FFFFFFFFFFFFFFFFFFFFFFFFC0
00007FFFFFFFFFFFFFFFFFFFFFFFC0
00003FFFFFFFFFFFFFFFFFFFFFFFC0
000007FFFFFFFFFFFFFFFFFFFFFFC0
000001FFFFFFFFFFFFFFFFFFFFFFC0
0000003FFFFFFFFFFFFFFFFFFFFFC0
00000000FFFFFFFFFFFFFFFFFFFFC0
ENDCHAR
STARTCHAR quotesingle
ENCODING 39
SWIDTH 255 0
DWIDTH 43 0
BBX 21 44 11 78
BITMAP
FFFFF8
FFFFF8
FFFFF8
FFFFF8
FFFFF8
FFFFF8
FFFFF0
FFFFF0
FFFFF0
FFFFF0
FFFFF0
7FFFF0
7FFFF0
7FFFF0
7FFFF0
7FFFF0
7FFFF0
7FFFE0
7FFFE0
7FFFE0
7FFFE0
7FFFE0
3FFFE0
3FFFE0
3FFFE0
3FFFE0
3FFFE0
3FFFE0
3FFFC0
3FFFC0
3FFFC0
3FFFC0
3FFFC0
1FFFC0
1FFFC0
1FFFC0
1FFFC0
1FFFC0
1FFFC0
1FFF80
1FFF80
1FFF80
1FFF80
1FFF80
ENDCHAR
STARTCHAR parenleft
ENCODING 40
SWIDTH 356 0
DWIDTH 59 0
BBX 33 154 16 -15
BITMAP
00007FFF80
00007FFF00
0000FFFF00
0000FFFE00
0001FFFE00
0001FFFC00
0001FFFC00
0003FFFC00
0003FFF800
0007FFF800
0007FFF000
0007FFF000
000FFFF000
000FFFE000
000FFFE000
001FFFC000
001FFFC000
001FFFC000
003FFF8000
003FFF8000
007FFF8000
007FFF0000
007FFF0000
00FFFF0000
00FFFE0000
00FFFE0000
00FFFC0000
01FFFC0000
01FFFC0000
01FFFC0000
03FFF80000
03FFF80000
03FFF80000
03FFF00000
07FFF00000
07FFF00000
07FFE00000
0FFFE00000
0FFFE00000
0FFFE00000
0FFFC00000
0FFFC00000
1FFFC00000
1FFF800000
1FFF800000
1FFF800000
1FFF800000
3FFF800000
3FFF000000
3FFF000000
3FFF000000
3FFF000000
7FFF000000
7FFE000000
7FFE000000
7FFE000000
7FFE000000
7FFE000000
7FFE000000
7FFC000000
FFFC000000
FFFC000000
FFFC000000
FFFC000000
FFFC000000
FFFC000000
FFFC000000
FFFC000000
FFF8000000
FFF8000000
FFF8000000
FFF8000000
FFF8000000
FFF8000000
FFF8000000
FFF8000000
FFF8000000
FFF8000000
FFF8000000
FFF8000000
FFF8000000
FFF8000000
FFF8000000
FFF8000000
FFF8000000
FFFC000000
FFFC000000
FFFC000000
FFFC000000
FFFC000000
FFFC000000
FFFC000000
FFFC000000
7FFC000000
7FFC000000
7FFC000000
7FFE000000
7FFE000000
7FFE000000
7FFE000000
7FFE000000
3FFE000000
3FFF000000
3FFF000000
3FFF000000
3FFF000000
3FFF000000
1FFF800000
1FFF800000
1FFF800000
1FFF800000
1FFF800000
0FFFC00000
0FFFC00000
0FFFC00000
0FFFC00000
07FFE00000
07FFE00000
07FFE00000
07FFF00000
03FFF00000
03FFF00000
03FFF00000
03FFF80000
01FFF80000
01FFF80000
01FFFC0000
00FFFC0000
00FFFC0000
00FFFE0000
007FFE0000
007FFE0000
007FFF0000
003FFF0000
003FFF8000
003FFF8000
001FFF8000
001FFFC000
001FFFC000
000FFFE000
000FFFE000
0007FFE000
0007FFF000
0007FFF000
0003FFF800
0003FFF800
0001FFF800
0001FFFC00
0001FFFC00
0000FFFE00
0000FFFE00
00007FFF00
00007FFF00
00003FFF80
ENDCHAR
STARTCHAR parenright
ENCODING 41
SWIDTH 355 0
DWIDTH 59 0
BBX 33 154 11 -15
BITMAP
FFFE000000
FFFF000000
7FFF000000
7FFF000000
3FFF800000
3FFF800000
1FFFC00000
1FFFC00000
1FFFC00000
0FFFE00000
0FFFE00000
07FFF00000
07FFF00000
07FFF00000
03FFF80000
03FFF80000
01FFF80000
01FFFC0000
01FFFC0000
00FFFC0000
00FFFE0000
00FFFE0000
007FFE0000
007FFF0000
007FFF0000
003FFF0000
003FFF8000
003FFF8000
001FFF8000
001FFFC000
001FFFC000
000FFFC000
000FFFC000
000FFFE000
0007FFE000
0007FFE000
0007FFF000
0007FFF000
0003FFF000
0003FFF000
0003FFF800
0003FFF800
0001FFF800
0001FFF800
0001FFF800
0001FFFC00
0000FFFC00
0000FFFC00
0000FFFC00
0000FFFC00
0000FFFE00
00007FFE00
00007FFE00
00007FFE00
00007FFE00
00007FFE00
00007FFE00
00003FFF00
00003FFF00
00003FFF00
00003FFF00
00003FFF00
00003FFF00
00003FFF00
00003FFF00
00001FFF00
00001FFF00
00001FFF00
00001FFF80
00001FFF80
00001FFF80
00001FFF80
00001FFF80
00001FFF80
00001FFF80
00001FFF80
00001FFF80
00001FFF80
00001FFF80
00001FFF80
00001FFF80
00001FFF80
00001FFF80
00001FFF80
00001FFF80
00001FFF00
00001FFF00
00001FFF00
00001FFF00
00003FFF00
00003FFF00
00003FFF00
00003FFF00
00003FFF00
00003FFF00
00003FFF00
00003FFF00
00007FFE00
00007FFE00
00007FFE00
00007FFE00
00007FFE00
00007FFE00
0000FFFE00
0000FFFC00
0000FFFC00
0000FFFC00
0000FFFC00
0001FFFC00
0001FFF800
0001FFF800
0001FFF800
0001FFF800
0003FFF800
0003FFF000
0003FFF000
0003FFF000
0007FFF000
0007FFE000
0007FFE000
000FFFE000
000FFFE000
000FFFC000
000FFFC000
001FFFC000
001FFF8000
001FFF8000
003FFF8000
003FFF8000
003FFF0000
007FFF0000
007FFF0000
00FFFE0000
00FFFE0000
00FFFC0000
01FFFC0000
01FFFC0000
01FFF80000
03FFF80000
03FFF80000
07FFF00000
07FFF00000
07FFF00000
0FFFE00000
0FFFE00000
1FFFC00000
1FFFC00000
3FFF800000
3FFF800000
3FFF800000
7FFF000000
7FFF000000
FFFE000000
FFFE000000
ENDCHAR
STARTCHAR asterisk
ENCODING 42
SWIDTH 469 0
DWIDTH 78 0
BBX 57 55 11 67
BITMAP
000001FF80000000
000001FF80000000
000001FF80000000
000001FF80000000
000001FF80000000
000001FF80000000
000001FF80000000
000001FF80000000
000001FF80000000
000001FF80000000
000001FF80000000
000001FF80000000
000001FF80000000
000001FF80000000
000001FF80000000
300001FF80000C00
3E0001FF80007C00
3FC001FF8003FE00
7FFC01FF801FFE00
7FFF81FF81FFFE00
7FFFF1FF8FFFFF00
FFFFFFFFFFFFFF00
FFFFFFFFFFFFFF00
FFFFFFFFFFFFFF00
FFFFFFFFFFFFFF80
1FFFFFFFFFFFFC00
03FFFFFFFFFFC000
007FFFFFFFFE0000
000FFFFFFFF00000
0000FFFFFF800000
00001FFFF8000000
00000FFFF8000000
00001FFFF8000000
00003FFFFC000000
00007FFFFE000000
00007FFFFE000000
0000FFFFFF000000
0001FFF7FF800000
0001FFE7FF800000
0003FFC3FFC00000
0007FF81FFE00000
0007FF81FFF00000
000FFF00FFF00000
001FFE007FF80000
001FFE003FFC0000
003FFC003FFC0000
007FF8001FFE0000
00FFF8000FFF0000
01FFF0000FFF8000
00FFE00007FF8000
007FC00003FE0000
001FC00001FC0000
000F800001F80000
0007000000E00000
0001000000400000
ENDCHAR
STARTCHAR plus
ENCODING 43
SWIDTH 690 0
DWIDTH 115 0
BBX 94 95 11 15
BITMAP
0000000000FFFC0000000000
0000000000FFFC0000000000
0000000000FFFC0000000000
0000000000FFFC0000000000
0000000000FFFC0000000000
0000000000FFFC0000000000
0000000000FFFC0000000000
0000000000FFFC0000000000
0000000000FFFC0000000000
0000000000FFFC0000000000
0000000000FFFC0000000000
0000000000FFFC0000000000
0000000000FFFC0000000000
0000000000FFFC0000000000
0000000000FFFC0000000000
0000000000FFFC0000000000
0000000000FFFC0000000000
0000000000FFFC0000000000
0000000000FFFC0000000000
0000000000FFFC0000000000
0000000000FFFC0000000000
0000000000FFFC0000000000
0000000000FFFC0000000000
0000000000FFFC0000000000
0000000000FFFC0000000000
0000000000FFFC0000000000
0000000000FFFC0000000000
0000000000FFFC0000000000
0000000000FFFC0000000000
0000000000FFFC0000000000
0000000000FFFC0000000000
0000000000FFFC0000000000
0000000000FFFC0000000000
0000000000FFFC0000000000
0000000000FFFC0000000000
0000000000FFFC0000000000
0000000000FFFC0000000000
0000000000FFFC0000000000
0000000000FFFC0000000000
0000000000FFFC0000000000
0000000000FFFC0000000000
FFFFFFFFFFFFFFFFFFFFFFFC
FFFFFFFFFFFFFFFFFFFFFFFC
FFFFFFFFFFFFFFFFFFFFFFFC
FFFFFFFFFFFFFFFFFFFFFFFC
FFFFFFFFFFFFFFFFFFFFFFFC
FFFFFFFFFFFFFFFFFFFFFFFC
FFFFFFFFFFFFFFFFFFFFFFFC
FFFFFFFFFFFFFFFFFFFFFFFC
FFFFFFFFFFFFFFFFFFFFFFFC
FFFFFFFFFFFFFFFFFFFFFFFC
FFFFFFFFFFFFFFFFFFFFFFFC
FFFFFFFFFFFFFFFFFFFFFFFC
FFFFFFFFFFFFFFFFFFFFFFFC
FFFFFFFFFFFFFFFFFFFFFFFC
0000000000FFFC0000000000
0000000000FFFC0000000000
0000000000FFFC0000000000
0000000000FFFC0000000000
0000000000FFFC0000000000
0000000000FFFC0000000000
0000000000FFFC0000000000
0000000000FFFC0000000000
0000000000FFFC0000000000
0000000000FFFC0000000000
0000000000FFFC0000000000
0000000000FFFC0000000000
0000000000FFFC0000000000
0000000000FFFC0000000000
0000000000FFFC0000000000
0000000000FFFC0000000000
0000000000FFFC0000000000
0000000000FFFC0000000000
0000000000FFFC0000000000
0000000000FFFC0000000000
0000000000FFFC0000000000
0000000000FFFC0000000000
0000000000FFFC0000000000
0000000000FFFC0000000000
0000000000FFFC0000000000
0000000000FFFC0000000000
0000000000FFFC0000000000
0000000000FFFC0000000000
0000000000FFFC0000000000
0000000000FFFC0000000000
0000000000FFFC0000000000
0000000000FFFC0000000000
0000000000FFFC0000000000
0000000000FFFC0000000000
0000000000FFFC0000000000
0000000000FFFC0000000000
0000000000FFFC0000000000
0000000000FFFC0000000000
0000000000FFFC0000000000
0000000000FFFC0000000000
ENDCHAR
STARTCHAR comma
ENCODING 44
SWIDTH 259 0
DWIDTH 43 0
BBX 22 44 11 -20
BITMAP
FFFFFC
FFFFF8
FFFFF8
FFFFF8
FFFFF8
FFFFF8
FFFFF8
FFFFF0
FFFFF0
FFFFF0
FFFFF0
FFFFF0
FFFFE0
FFFFE0
FFFFE0
FFFFE0
FFFFE0
FFFFC0
FFFFC0
FFFFC0
FFFFC0
FFFFC0
FFFF80
FFFF80
FFFF80
FFFF80
FFFF80
FFFF80
FFFF00
FFFF00
FFFF00
FFFF00
FFFF00
FFFE00
FFFE00
FFFE00
FFFE00
FFFE00
FFFC00
FFFC00
FFFC00
FFFC00
FFFC00
FFF800
ENDCHAR
STARTCHAR hyphen
ENCODING 45
SWIDTH 296 0
DWIDTH 49 0
BBX 40 14 5 55
BITMAP
FFFFFFFFFF
FFFFFFFFFF
FFFFFFFFFF
FFFFFFFFFF
FFFFFFFFFF
FFFFFFFFFF
FFFFFFFFFF
FFFFFFFFFF
FFFFFFFFFF
FFFFFFFFFF
FFFFFFFFFF
FFFFFFFFFF
FFFFFFFFFF
FFFFFFFFFF
ENDCHAR
STARTCHAR period
ENCODING 46
SWIDTH 262 0
DWIDTH 44 0
BBX 22 23 11 0
BITMAP
01FC00
07FF80
0FFFC0
3FFFE0
3FFFF0
7FFFF8
FFFFF8
FFFFFC
FFFFFC
FFFFFC
FFFFFC
FFFFFC
FFFFFC
FFFFFC
FFFFFC
FFFFFC
FFFFF8
7FFFF8
3FFFF0
3FFFE0
0FFFC0
07FF80
01FC00
ENDCHAR
STARTCHAR slash
ENCODING 47
SWIDTH 444 0
DWIDTH 74 0
BBX 71 122 1 0
BITMAP
000000000000007FFE
000000000000007FFE
00000000000000FFFC
00000000000000FFFC
00000000000001FFF8
00000000000001FFF8
00000000000001FFF0
00000000000003FFF0
00000000000003FFF0
00000000000007FFE0
00000000000007FFE0
0000000000000FFFC0
0000000000000FFFC0
0000000000001FFF80
0000000000001FFF80
0000000000003FFF00
0000000000003FFF00
0000000000007FFE00
0000000000007FFE00
000000000000FFFE00
000000000000FFFC00
000000000000FFFC00
000000000001FFF800
000000000001FFF800
000000000003FFF000
000000000003FFF000
000000000007FFE000
000000000007FFE000
00000000000FFFC000
00000000000FFFC000
00000000001FFF8000
00000000001FFF8000
00000000003FFF8000
00000000003FFF0000
00000000007FFF0000
00000000007FFE0000
00000000007FFE0000
0000000000FFFC0000
0000000000FFFC0000
0000000001FFF80000
0000000001FFF80000
0000000003FFF00000
0000000003FFF00000
0000000007FFE00000
0000000007FFE00000
000000000FFFE00000
000000000FFFC00000
000000001FFFC00000
000000001FFF800000
000000003FFF800000
000000003FFF000000
000000007FFF000000
000000007FFE000000
000000007FFE000000
00000000FFFC000000
00000000FFFC000000
00000001FFF8000000
00000001FFF8000000
00000003FFF8000000
00000003FFF0000000
00000007FFF0000000
00000007FFE0000000
0000000FFFE0000000
0000000FFFC0000000
0000001FFFC0000000
0000001FFF80000000
0000003FFF80000000
0000003FFF00000000
0000003FFF00000000
0000007FFE00000000
0000007FFE00000000
000000FFFE00000000
000000FFFC00000000
000001FFFC00000000
000001FFF800000000
000003FFF800000000
000003FFF000000000
000007FFF000000000
000007FFE000000000
00000FFFE000000000
00000FFFC000000000
00001FFFC000000000
00001FFF8000000000
00001FFF8000000000
00003FFF8000000000
00003FFF0000000000
00007FFF0000000000
00007FFE0000000000
0000FFFE0000000000
0000FFFC0000000000
0001FFFC0000000000
0001FFF80000000000
0003FFF80000000000
0003FFF00000000000
0007FFF00000000000
0007FFE00000000000
000FFFE00000000000
000FFFE00000000000
001FFFC00000000000
001FFFC00000000000
001FFF800000000000
003FFF800000000000
003FFF000000000000
007FFF000000000000
007FFE000000000000
00FFFE000000000000
00FFFC000000000000
01FFFC000000000000
01FFF8000000000000
03FFF8000000000000
03FFF8000000000000
07FFF0000000000000
07FFF0000000000000
0FFFE0000000000000
0FFFE0000000000000
0FFFC0000000000000
1FFFC0000000000000
1FFF80000000000000
3FFF80000000000000
3FFF00000000000000
7FFF00000000000000
FFFE00000000000000
ENDCHAR
STARTCHAR zero
ENCODING 48
SWIDTH 838 0
DWIDTH 140 0
BBX 126 122 7 0
BITMAP
00000000000003FFFF00000000000000
000000000000FFFFFFFC000000000000
00000000000FFFFFFFFFC00000000000
00000000007FFFFFFFFFF80000000000
0000000003FFFFFFFFFFFF0000000000
000000001FFFFFFFFFFFFFC000000000
000000007FFFFFFFFFFFFFF800000000
00000001FFFFFFFFFFFFFFFE00000000
00000007FFFFFFFFFFFFFFFF00000000
0000000FFFFFFFFFFFFFFFFFC0000000
0000003FFFFFFFFFFFFFFFFFF0000000
0000007FFFFFFFFFFFFFFFFFF8000000
000001FFFFFFFFFFFFFFFFFFFE000000
000003FFFFFFFFFFFFFFFFFFFF000000
000007FFFFFFFFFFFFFFFFFFFF800000
00000FFFFFFFFFFFFFFFFFFFFFC00000
00003FFFFFFFFFFFFFFFFFFFFFE00000
00007FFFFFFFFFFFFFFFFFFFFFF00000
0000FFFFFFFFFFFFFFFFFFFFFFF80000
0001FFFFFFFFFFFFFFFFFFFFFFFC0000
0001FFFFFFFFFFFFFFFFFFFFFFFE0000
0003FFFFFFFFFFC00FFFFFFFFFFF0000
0007FFFFFFFFE000001FFFFFFFFF8000
000FFFFFFFFE00000003FFFFFFFFC000
001FFFFFFFF8000000007FFFFFFFE000
001FFFFFFFC0000000001FFFFFFFE000
003FFFFFFF000000000007FFFFFFF000
007FFFFFFE000000000001FFFFFFF800
007FFFFFF80000000000007FFFFFF800
00FFFFFFF00000000000003FFFFFFC00
01FFFFFFC00000000000001FFFFFFC00
01FFFFFF8000000000000007FFFFFE00
03FFFFFF0000000000000003FFFFFF00
03FFFFFE0000000000000001FFFFFF00
07FFFFFC0000000000000000FFFFFF80
07FFFFF80000000000000000FFFFFF80
0FFFFFF800000000000000007FFFFF80
0FFFFFF000000000000000003FFFFFC0
0FFFFFE000000000000000001FFFFFC0
1FFFFFE000000000000000001FFFFFE0
1FFFFFC000000000000000000FFFFFE0
1FFFFF8000000000000000000FFFFFE0
3FFFFF80000000000000000007FFFFF0
3FFFFF80000000000000000007FFFFF0
3FFFFF00000000000000000003FFFFF0
3FFFFF00000000000000000003FFFFF0
7FFFFE00000000000000000003FFFFF8
7FFFFE00000000000000000001FFFFF8
7FFFFE00000000000000000001FFFFF8
7FFFFE00000000000000000001FFFFF8
7FFFFC00000000000000000001FFFFF8
FFFFFC00000000000000000000FFFFF8
FFFFFC00000000000000000000FFFFFC
FFFFFC00000000000000000000FFFFFC
FFFFFC00000000000000000000FFFFFC
FFFFF800000000000000000000FFFFFC
FFFFF800000000000000000000FFFFFC
FFFFF800000000000000000000FFFFFC
FFFFF8000000000000000000007FFFFC
FFFFF8000000000000000000007FFFFC
FFFFF8000000000000000000007FFFFC
FFFFF8000000000000000000007FFFFC
FFFFF8000000000000000000007FFFFC
FFFFF800000000000000000000FFFFFC
FFFFF800000000000000000000FFFFFC
FFFFF800000000000000000000FFFFFC
FFFFFC00000000000000000000FFFFFC
FFFFFC00000000000000000000FFFFF8
7FFFFC00000000000000000000FFFFF8
7FFFFC00000000000000000000FFFFF8
7FFFFC00000000000000000000FFFFF8
7FFFFC00000000000000000001FFFFF8
7FFFFE00000000000000000001FFFFF8
7FFFFE00000000000000000001FFFFF0
3FFFFE00000000000000000003FFFFF0
3FFFFF00000000000000000003FFFFF0
3FFFFF00000000000000000003FFFFF0
3FFFFF00000000000000000007FFFFE0
1FFFFF80000000000000000007FFFFE0
1FFFFF80000000000000000007FFFFE0
1FFFFFC000000000000000000FFFFFE0
0FFFFFC000000000000000001FFFFFC0
0FFFFFE000000000000000001FFFFFC0
07FFFFE000000000000000003FFFFF80
07FFFFF000000000000000003FFFFF80
07FFFFF800000000000000007FFFFF80
03FFFFFC0000000000000000FFFFFF00
03FFFFFC0000000000000001FFFFFF00
01FFFFFE0000000000000003FFFFFE00
01FFFFFF0000000000000007FFFFFE00
00FFFFFF800000000000000FFFFFFC00
007FFFFFE00000000000001FFFFFF800
007FFFFFF00000000000003FFFFFF800
003FFFFFF8000000000000FFFFFFF000
003FFFFFFE000000000001FFFFFFF000
001FFFFFFF800000000007FFFFFFE000
000FFFFFFFE0000000001FFFFFFFC000
0007FFFFFFF8000000007FFFFFFF8000
0007FFFFFFFF00000003FFFFFFFF8000
0003FFFFFFFFE000003FFFFFFFFF0000
0001FFFFFFFFFFC00FFFFFFFFFFE0000
0000FFFFFFFFFFFFFFFFFFFFFFFC0000
00007FFFFFFFFFFFFFFFFFFFFFF80000
00003FFFFFFFFFFFFFFFFFFFFFF00000
00001FFFFFFFFFFFFFFFFFFFFFE00000
00000FFFFFFFFFFFFFFFFFFFFFC00000
000007FFFFFFFFFFFFFFFFFFFF800000
000003FFFFFFFFFFFFFFFFFFFF000000
000001FFFFFFFFFFFFFFFFFFFE000000
0000007FFFFFFFFFFFFFFFFFF8000000
0000003FFFFFFFFFFFFFFFFFF0000000
0000001FFFFFFFFFFFFFFFFFC0000000
00000007FFFFFFFFFFFFFFFF80000000
00000001FFFFFFFFFFFFFFFE00000000
00000000FFFFFFFFFFFFFFF800000000
000000003FFFFFFFFFFFFFE000000000
000000000FFFFFFFFFFFFF8000000000
0000000001FFFFFFFFFFFE0000000000
00000000007FFFFFFFFFF00000000000
000000000007FFFFFFFF800000000000
0000000000007FFFFFF8000000000000
00000000000001FFFE00000000000000
ENDCHAR
STARTCHAR one
ENCODING 49
SWIDTH 385 0
DWIDTH 64 0
BBX 50 122 4 0
BITMAP
FFFFE000000000
FFFFFF00000000
FFFFFFF0000000
FFFFFFFC000000
FFFFFFFF000000
FFFFFFFFC00000
FFFFFFFFE00000
FFFFFFFFF80000
FFFFFFFFFC0000
FFFFFFFFFE0000
FFFFFFFFFF0000
FFFFFFFFFF8000
FFFFFFFFFFC000
FFFFFFFFFFC000
FFFFFFFFFFE000
FFFFFFFFFFF000
FFFFFFFFFFF000
FFFFFFFFFFF800
FFFFFFFFFFF800
FFFFFFFFFFFC00
FFFFFFFFFFFC00
0003FFFFFFFE00
00001FFFFFFE00
000007FFFFFE00
000001FFFFFF00
000000FFFFFF00
0000007FFFFF00
0000007FFFFF80
0000003FFFFF80
0000001FFFFF80
0000001FFFFF80
0000001FFFFF80
0000000FFFFF80
0000000FFFFF80
0000000FFFFFC0
0000000FFFFFC0
00000007FFFFC0
00000007FFFFC0
00000007FFFFC0
00000007FFFFC0
00000007FFFFC0
00000007FFFFC0
00000007FFFFC0
00000007FFFFC0
00000007FFFFC0
00000007FFFFC0
00000007FFFFC0
00000007FFFFC0
00000007FFFFC0
00000007FFFFC0
00000007FFFFC0
00000007FFFFC0
00000007FFFFC0
00000007FFFFC0
00000007FFFFC0
00000007FFFFC0
00000007FFFFC0
00000007FFFFC0
00000007FFFFC0
00000007FFFFC0
00000007FFFFC0
00000007FFFFC0
00000007FFFFC0
00000007FFFFC0
00000007FFFFC0
00000007FFFFC0
00000007FFFFC0
00000007FFFFC0
00000007FFFFC0
00000007FFFFC0
00000007FFFFC0
00000007FFFFC0
00000007FFFFC0
00000007FFFFC0
00000007FFFFC0
00000007FFFFC0
00000007FFFFC0
00000007FFFFC0
00000007FFFFC0
00000007FFFFC0
00000007FFFFC0
00000007FFFFC0
00000007FFFFC0
00000007FFFFC0
00000007FFFFC0
00000007FFFFC0
00000007FFFFC0
00000007FFFFC0
00000007FFFFC0
00000007FFFFC0
00000007FFFFC0
00000007FFFFC0
00000007FFFFC0
00000007FFFFC0
00000007FFFFC0
00000007FFFFC0
00000007FFFFC0
00000007FFFFC0
00000007FFFFC0
00000007FFFFC0
00000007FFFFC0
00000007FFFFC0
00000007FFFFC0
00000007FFFFC0
00000007FFFFC0
00000007FFFFC0
00000007FFFFC0
00000007FFFFC0
00000007FFFFC0
00000007FFFFC0
00000007FFFFC0
00000007FFFFC0
00000007FFFFC0
00000007FFFFC0
00000007FFFFC0
00000007FFFFC0
00000007FFFFC0
00000007FFFFC0
00000007FFFFC0
00000007FFFFC0
00000007FFFFC0
00000007FFFFC0
ENDCHAR
STARTCHAR two
ENCODING 50
SWIDTH 825 0
DWIDTH 138 0
BBX 118 122 11 0
BITMAP
7FFFFFFFFFFFFFFFFFFFFF00000000
7FFFFFFFFFFFFFFFFFFFFFF8000000
7FFFFFFFFFFFFFFFFFFFFFFF800000
7FFFFFFFFFFFFFFFFFFFFFFFE00000
7FFFFFFFFFFFFFFFFFFFFFFFF80000
7FFFFFFFFFFFFFFFFFFFFFFFFE0000
7FFFFFFFFFFFFFFFFFFFFFFFFF0000
7FFFFFFFFFFFFFFFFFFFFFFFFFC000
7FFFFFFFFFFFFFFFFFFFFFFFFFE000
7FFFFFFFFFFFFFFFFFFFFFFFFFF000
7FFFFFFFFFFFFFFFFFFFFFFFFFF800
7FFFFFFFFFFFFFFFFFFFFFFFFFFC00
7FFFFFFFFFFFFFFFFFFFFFFFFFFE00
7FFFFFFFFFFFFFFFFFFFFFFFFFFF00
7FFFFFFFFFFFFFFFFFFFFFFFFFFF80
7FFFFFFFFFFFFFFFFFFFFFFFFFFF80
7FFFFFFFFFFFFFFFFFFFFFFFFFFFC0
7FFFFFFFFFFFFFFFFFFFFFFFFFFFC0
7FFFFFFFFFFFFFFFFFFFFFFFFFFFE0
7FFFFFFFFFFFFFFFFFFFFFFFFFFFE0
7FFFFFFFFFFFFFFFFFFFFFFFFFFFF0
000000000000000000000FFFFFFFF0
0000000000000000000000FFFFFFF0
00000000000000000000003FFFFFF8
00000000000000000000001FFFFFF8
00000000000000000000000FFFFFF8
000000000000000000000007FFFFF8
000000000000000000000003FFFFFC
000000000000000000000001FFFFFC
000000000000000000000001FFFFFC
000000000000000000000001FFFFFC
000000000000000000000000FFFFFC
000000000000000000000000FFFFFC
000000000000000000000000FFFFFC
000000000000000000000000FFFFFC
000000000000000000000000FFFFFC
000000000000000000000000FFFFFC
000000000000000000000000FFFFFC
000000000000000000000000FFFFFC
000000000000000000000000FFFFFC
000000000000000000000000FFFFFC
000000000000000000000001FFFFF8
000000000000000000000001FFFFF8
000000000000000000000001FFFFF8
000000000000000000000003FFFFF8
000000000000000000000007FFFFF0
000000000000000000000007FFFFF0
00000000000000000000000FFFFFF0
00000000000000000000003FFFFFE0
00000000000000000000007FFFFFE0
0000000000000000000003FFFFFFC0
00000007FFFFFFFFFFFFFFFFFFFFC0
000001FFFFFFFFFFFFFFFFFFFFFF80
00000FFFFFFFFFFFFFFFFFFFFFFF80
00007FFFFFFFFFFFFFFFFFFFFFFF00
0001FFFFFFFFFFFFFFFFFFFFFFFE00
0007FFFFFFFFFFFFFFFFFFFFFFFE00
000FFFFFFFFFFFFFFFFFFFFFFFFC00
003FFFFFFFFFFFFFFFFFFFFFFFF800
007FFFFFFFFFFFFFFFFFFFFFFFF000
00FFFFFFFFFFFFFFFFFFFFFFFFE000
01FFFFFFFFFFFFFFFFFFFFFFFF8000
03FFFFFFFFFFFFFFFFFFFFFFFF0000
03FFFFFFFFFFFFFFFFFFFFFFFE0000
07FFFFFFFFFFFFFFFFFFFFFFF80000
0FFFFFFFFFFFFFFFFFFFFFFFE00000
0FFFFFFFFFFFFFFFFFFFFFFF000000
1FFFFFFFFFFFFFFFFFFFFFF8000000
1FFFFFFFFFFFFFFFFFFFFF00000000
3FFFFFFE0000000000000000000000
3FFFFFF00000000000000000000000
3FFFFFC00000000000000000000000
7FFFFF000000000000000000000000
7FFFFE000000000000000000000000
7FFFFC000000000000000000000000
7FFFFC000000000000000000000000
FFFFF8000000000000000000000000
FFFFF8000000000000000000000000
FFFFF0000000000000000000000000
FFFFF0000000000000000000000000
FFFFF0000000000000000000000000
FFFFF0000000000000000000000000
FFFFF0000000000000000000000000
FFFFF0000000000000000000000000
FFFFF0000000000000000000000000
FFFFF0000000000000000000000000
FFFFF0000000000000000000000000
FFFFF0000000000000000000000000
FFFFF0000000000000000000000000
FFFFF0000000000000000000000000
FFFFF0000000000000000000000000
FFFFF0000000000000000000000000
FFFFF0000000000000000000000000
FFFFF0000000000000000000000000
FFFFF0000000000000000000000000
FFFFF0000000000000000000000000
FFFFF0000000000000000000000000
FFFFF0000000000000000000000000
FFFFF0000000000000000000000000
FFFFF0000000000000000000000000
FFFFF0000000000000000000000000
FFFFFFFFFFFFFFFFFFFFFFFFFFFFF0
FFFFFFFFFFFFFFFFFFFFFFFFFFFFF0
FFFFFFFFFFFFFFFFFFFFFFFFFFFFF0
FFFFFFFFFFFFFFFFFFFFFFFFFFFFF0
FFFFFFFFFFFFFFFFFFFFFFFFFFFFF0
FFFFFFFFFFFFFFFFFFFFFFFFFFFFF0
FFFFFFFFFFFFFFFFFFFFFFFFFFFFF0
FFFFFFFFFFFFFFFFFFFFFFFFFFFFF0
FFFFFFFFFFFFFFFFFFFFFFFFFFFFF0
FFFFFFFFFFFFFFFFFFFFFFFFFFFFF0
FFFFFFFFFFFFFFFFFFFFFFFFFFFFF0
FFFFFFFFFFFFFFFFFFFFFFFFFFFFF0
FFFFFFFFFFFFFFFFFFFFFFFFFFFFF0
FFFFFFFFFFFFFFFFFFFFFFFFFFFFF0
FFFFFFFFFFFFFFFFFFFFFFFFFFFFF0
FFFFFFFFFFFFFFFFFFFFFFFFFFFFF0
FFFFFFFFFFFFFFFFFFFFFFFFFFFFF0
FFFFFFFFFFFFFFFFFFFFFFFFFFFFF0
FFFFFFFFFFFFFFFFFFFFFFFFFFFFF0
FFFFFFFFFFFFFFFFFFFFFFFFFFFFF0
FFFFFFFFFFFFFFFFFFFFFFFFFFFFF0
ENDCHAR
STARTCHAR three
ENCODING 51
SWIDTH 827 0
DWIDTH 138 0
BBX 122 122 8 0
BITMAP
FFFFFFFFFFFFFFFFFFFFFF8000000000
FFFFFFFFFFFFFFFFFFFFFFFE00000000
FFFFFFFFFFFFFFFFFFFFFFFFC0000000
FFFFFFFFFFFFFFFFFFFFFFFFF8000000
FFFFFFFFFFFFFFFFFFFFFFFFFE000000
FFFFFFFFFFFFFFFFFFFFFFFFFF800000
FFFFFFFFFFFFFFFFFFFFFFFFFFE00000
FFFFFFFFFFFFFFFFFFFFFFFFFFF00000
FFFFFFFFFFFFFFFFFFFFFFFFFFFC0000
FFFFFFFFFFFFFFFFFFFFFFFFFFFE0000
FFFFFFFFFFFFFFFFFFFFFFFFFFFF0000
FFFFFFFFFFFFFFFFFFFFFFFFFFFF8000
FFFFFFFFFFFFFFFFFFFFFFFFFFFFC000
FFFFFFFFFFFFFFFFFFFFFFFFFFFFC000
FFFFFFFFFFFFFFFFFFFFFFFFFFFFE000
FFFFFFFFFFFFFFFFFFFFFFFFFFFFF000
FFFFFFFFFFFFFFFFFFFFFFFFFFFFF000
FFFFFFFFFFFFFFFFFFFFFFFFFFFFF800
FFFFFFFFFFFFFFFFFFFFFFFFFFFFF800
FFFFFFFFFFFFFFFFFFFFFFFFFFFFFC00
FFFFFFFFFFFFFFFFFFFFFFFFFFFFFC00
000000000000000000007FFFFFFFFC00
0000000000000000000001FFFFFFFC00
00000000000000000000003FFFFFFE00
00000000000000000000000FFFFFFE00
000000000000000000000003FFFFFE00
000000000000000000000001FFFFFE00
000000000000000000000000FFFFFE00
000000000000000000000000FFFFFE00
0000000000000000000000007FFFFF00
0000000000000000000000007FFFFF00
0000000000000000000000003FFFFF00
0000000000000000000000003FFFFF00
0000000000000000000000003FFFFF00
0000000000000000000000003FFFFF00
0000000000000000000000003FFFFE00
0000000000000000000000003FFFFE00
0000000000000000000000003FFFFE00
0000000000000000000000003FFFFE00
0000000000000000000000003FFFFE00
0000000000000000000000003FFFFE00
0000000000000000000000003FFFFC00
0000000000000000000000007FFFFC00
0000000000000000000000007FFFFC00
0000000000000000000000007FFFF800
000000000000000000000000FFFFF800
000000000000000000000001FFFFF000
000000000000000000000003FFFFF000
000000000000000000000007FFFFE000
00000000000000000000001FFFFFC000
0000000000000000000001FFFFFFC000
0000000FFFFFFFFFFFFFFFFFFFFF8000
0000000FFFFFFFFFFFFFFFFFFFFF0000
0000000FFFFFFFFFFFFFFFFFFFFC0000
0000000FFFFFFFFFFFFFFFFFFFF80000
0000000FFFFFFFFFFFFFFFFFFFF00000
0000000FFFFFFFFFFFFFFFFFFFC00000
0000000FFFFFFFFFFFFFFFFFFE000000
0000000FFFFFFFFFFFFFFFFFFF800000
0000000FFFFFFFFFFFFFFFFFFFE00000
0000000FFFFFFFFFFFFFFFFFFFF80000
0000000FFFFFFFFFFFFFFFFFFFFE0000
0000000FFFFFFFFFFFFFFFFFFFFF0000
0000000FFFFFFFFFFFFFFFFFFFFF8000
0000000FFFFFFFFFFFFFFFFFFFFFC000
0000000FFFFFFFFFFFFFFFFFFFFFE000
0000000FFFFFFFFFFFFFFFFFFFFFF000
0000000FFFFFFFFFFFFFFFFFFFFFF800
0000000FFFFFFFFFFFFFFFFFFFFFF800
0000000000000000000000FFFFFFFC00
00000000000000000000001FFFFFFE00
000000000000000000000007FFFFFE00
000000000000000000000001FFFFFF00
000000000000000000000000FFFFFF00
0000000000000000000000007FFFFF00
0000000000000000000000003FFFFF80
0000000000000000000000001FFFFF80
0000000000000000000000001FFFFF80
0000000000000000000000001FFFFF80
0000000000000000000000000FFFFF80
0000000000000000000000000FFFFFC0
0000000000000000000000000FFFFFC0
0000000000000000000000000FFFFFC0
0000000000000000000000000FFFFFC0
0000000000000000000000000FFFFFC0
0000000000000000000000000FFFFFC0
0000000000000000000000000FFFFFC0
0000000000000000000000000FFFFFC0
0000000000000000000000000FFFFFC0
0000000000000000000000000FFFFFC0
0000000000000000000000001FFFFFC0
0000000000000000000000001FFFFF80
0000000000000000000000003FFFFF80
0000000000000000000000003FFFFF80
0000000000000000000000007FFFFF80
000000000000000000000000FFFFFF80
000000000000000000000003FFFFFF00
000000000000000000000007FFFFFF00
00000000000000000000003FFFFFFF00
0000000000000000000000FFFFFFFE00
000000000000000000003FFFFFFFFE00
FFFFFFFFFFFFFFFFFFFFFFFFFFFFFE00
FFFFFFFFFFFFFFFFFFFFFFFFFFFFFC00
FFFFFFFFFFFFFFFFFFFFFFFFFFFFFC00
FFFFFFFFFFFFFFFFFFFFFFFFFFFFF800
FFFFFFFFFFFFFFFFFFFFFFFFFFFFF800
FFFFFFFFFFFFFFFFFFFFFFFFFFFFF000
FFFFFFFFFFFFFFFFFFFFFFFFFFFFE000
FFFFFFFFFFFFFFFFFFFFFFFFFFFFC000
FFFFFFFFFFFFFFFFFFFFFFFFFFFFC000
FFFFFFFFFFFFFFFFFFFFFFFFFFFF8000
FFFFFFFFFFFFFFFFFFFFFFFFFFFF0000
FFFFFFFFFFFFFFFFFFFFFFFFFFFE0000
FFFFFFFFFFFFFFFFFFFFFFFFFFF80000
FFFFFFFFFFFFFFFFFFFFFFFFFFF00000
FFFFFFFFFFFFFFFFFFFFFFFFFFE00000
FFFFFFFFFFFFFFFFFFFFFFFFFF800000
FFFFFFFFFFFFFFFFFFFFFFFFFE000000
FFFFFFFFFFFFFFFFFFFFFFFFF8000000
FFFFFFFFFFFFFFFFFFFFFFFFC0000000
FFFFFFFFFFFFFFFFFFFFFFFE00000000
FFFFFFFFFFFFFFFFFFFFFFC000000000
ENDCHAR
STARTCHAR four
ENCODING 52
SWIDTH 845 0
DWIDTH 141 0
BBX 129 122 8 0
BITMAP
FFFFF800000000000000003FFFFE000000
FFFFF800000000000000003FFFFE000000
FFFFF800000000000000003FFFFE000000
FFFFF800000000000000003FFFFE000000
FFFFF800000000000000003FFFFE000000
FFFFF800000000000000003FFFFE000000
FFFFF800000000000000003FFFFE000000
FFFFF800000000000000003FFFFE000000
FFFFF800000000000000003FFFFE000000
FFFFF800000000000000003FFFFE000000
FFFFF800000000000000003FFFFE000000
FFFFF800000000000000003FFFFE000000
FFFFF800000000000000003FFFFE000000
FFFFF800000000000000003FFFFE000000
FFFFF800000000000000003FFFFE000000
FFFFF800000000000000003FFFFE000000
FFFFF800000000000000003FFFFE000000
FFFFF800000000000000003FFFFE000000
FFFFF800000000000000003FFFFE000000
FFFFF800000000000000003FFFFE000000
FFFFF800000000000000003FFFFE000000
FFFFF800000000000000003FFFFE000000
FFFFF800000000000000003FFFFE000000
FFFFF800000000000000003FFFFE000000
FFFFF800000000000000003FFFFE000000
FFFFF800000000000000003FFFFE000000
FFFFF800000000000000003FFFFE000000
FFFFF800000000000000003FFFFE000000
FFFFF800000000000000003FFFFE000000
FFFFF800000000000000003FFFFE000000
FFFFF800000000000000003FFFFE000000
FFFFF800000000000000003FFFFE000000
FFFFF800000000000000003FFFFE000000
FFFFF800000000000000003FFFFE000000
FFFFF800000000000000003FFFFE000000
FFFFF800000000000000003FFFFE000000
FFFFF800000000000000003FFFFE000000
FFFFF800000000000000003FFFFE000000
FFFFF800000000000000003FFFFE000000
FFFFF800000000000000003FFFFE000000
FFFFF800000000000000003FFFFE000000
FFFFF800000000000000003FFFFE000000
FFFFF800000000000000003FFFFE000000
FFFFF800000000000000003FFFFE000000
FFFFF800000000000000003FFFFE000000
FFFFF800000000000000003FFFFE000000
FFFFF800000000000000003FFFFE000000
FFFFF800000000000000003FFFFE000000
FFFFF800000000000000003FFFFE000000
FFFFF800000000000000003FFFFE000000
FFFFF800000000000000003FFFFE000000
FFFFF800000000000000003FFFFE000000
FFFFF800000000000000003FFFFE000000
FFFFF800000000000000003FFFFE000000
FFFFF800000000000000003FFFFE000000
FFFFFC00000000000000003FFFFE000000
FFFFFC00000000000000003FFFFE000000
FFFFFC00000000000000003FFFFE000000
FFFFFC00000000000000003FFFFE000000
7FFFFC00000000000000003FFFFE000000
7FFFFE00000000000000003FFFFE000000
7FFFFE00000000000000003FFFFE000000
7FFFFF00000000000000003FFFFE000000
7FFFFF80000000000000003FFFFE000000
3FFFFF80000000000000003FFFFE000000
3FFFFFE0000000000000003FFFFE000000
3FFFFFF0000000000000003FFFFE000000
1FFFFFFC000000000000003FFFFE000000
1FFFFFFFC00000000000003FFFFE000000
1FFFFFFFFFFFFFFFFFFFFFFFFFFFFFFF80
0FFFFFFFFFFFFFFFFFFFFFFFFFFFFFFF80
0FFFFFFFFFFFFFFFFFFFFFFFFFFFFFFF80
07FFFFFFFFFFFFFFFFFFFFFFFFFFFFFF80
07FFFFFFFFFFFFFFFFFFFFFFFFFFFFFF80
03FFFFFFFFFFFFFFFFFFFFFFFFFFFFFF80
01FFFFFFFFFFFFFFFFFFFFFFFFFFFFFF80
01FFFFFFFFFFFFFFFFFFFFFFFFFFFFFF80
00FFFFFFFFFFFFFFFFFFFFFFFFFFFFFF80
007FFFFFFFFFFFFFFFFFFFFFFFFFFFFF80
003FFFFFFFFFFFFFFFFFFFFFFFFFFFFF80
001FFFFFFFFFFFFFFFFFFFFFFFFFFFFF80
0007FFFFFFFFFFFFFFFFFFFFFFFFFFFF80
0003FFFFFFFFFFFFFFFFFFFFFFFFFFFF80
0000FFFFFFFFFFFFFFFFFFFFFFFFFFFF80
00007FFFFFFFFFFFFFFFFFFFFFFFFFFF80
00000FFFFFFFFFFFFFFFFFFFFFFFFFFF80
000003FFFFFFFFFFFFFFFFFFFFFFFFFF80
0000003FFFFFFFFFFFFFFFFFFFFFFFFF80
00000000FFFFFFFFFFFFFFFFFFFFFFFF80
00000000000000000000003FFFFE000000
00000000000000000000003FFFFE000000
00000000000000000000003FFFFE000000
00000000000000000000003FFFFE000000
00000000000000000000003FFFFE000000
00000000000000000000003FFFFE000000
00000000000000000000003FFFFE000000
00000000000000000000003FFFFE000000
00000000000000000000003FFFFE000000
00000000000000000000003FFFFE000000
00000000000000000000003FFFFE000000
00000000000000000000003FFFFE000000
00000000000000000000003FFFFE000000
00000000000000000000003FFFFE000000
00000000000000000000003FFFFE000000
00000000000000000000003FFFFE000000
00000000000000000000003FFFFE000000
00000000000000000000003FFFFE000000
00000000000000000000003FFFFE000000
00000000000000000000003FFFFE000000
00000000000000000000003FFFFE000000
00000000000000000000003FFFFE000000
00000000000000000000003FFFFE000000
00000000000000000000003FFFFE000000
00000000000000000000003FFFFE000000
00000000000000000000003FFFFE000000
00000000000000000000003FFFFE000000
00000000000000000000003FFFFE000000
00000000000000000000003FFFFE000000
00000000000000000000003FFFFE000000
00000000000000000000003FFFFE000000
00000000000000000000003FFFFE000000
00000000000000000000003FFFFE000000
ENDCHAR
STARTCHAR five
ENCODING 53
SWIDTH 885 0
DWIDTH 148 0
BBX 128 122 11 0
BITMAP
FFFFFFFFFFFFFFFFFFFFFFFFFFFFFFC0
FFFFFFFFFFFFFFFFFFFFFFFFFFFFFFC0
FFFFFFFFFFFFFFFFFFFFFFFFFFFFFFC0
FFFFFFFFFFFFFFFFFFFFFFFFFFFFFFC0
FFFFFFFFFFFFFFFFFFFFFFFFFFFFFFC0
FFFFFFFFFFFFFFFFFFFFFFFFFFFFFFC0
FFFFFFFFFFFFFFFFFFFFFFFFFFFFFFC0
FFFFFFFFFFFFFFFFFFFFFFFFFFFFFFC0
FFFFFFFFFFFFFFFFFFFFFFFFFFFFFFC0
FFFFFFFFFFFFFFFFFFFFFFFFFFFFFFC0
FFFFFFFFFFFFFFFFFFFFFFFFFFFFFFC0
FFFFFFFFFFFFFFFFFFFFFFFFFFFFFFC0
FFFFFFFFFFFFFFFFFFFFFFFFFFFFFFC0
FFFFFFFFFFFFFFFFFFFFFFFFFFFFFFC0
FFFFFFFFFFFFFFFFFFFFFFFFFFFFFFC0
FFFFFFFFFFFFFFFFFFFFFFFFFFFFFFC0
FFFFFFFFFFFFFFFFFFFFFFFFFFFFFFC0
FFFFFFFFFFFFFFFFFFFFFFFFFFFFFFC0
FFFFFFFFFFFFFFFFFFFFFFFFFFFFFFC0
FFFFFFFFFFFFFFFFFFFFFFFFFFFFFFC0
FFFFFFFFFFFFFFFFFFFFFFFFFFFFFFC0
FFFFF800000000000000000000000000
FFFFF800000000000000000000000000
FFFFF800000000000000000000000000
FFFFF800000000000000000000000000
FFFFF800000000000000000000000000
FFFFF800000000000000000000000000
FFFFF800000000000000000000000000
FFFFF800000000000000000000000000
FFFFF800000000000000000000000000
FFFFF800000000000000000000000000
FFFFF800000000000000000000000000
FFFFF800000000000000000000000000
FFFFF800000000000000000000000000
FFFFF800000000000000000000000000
FFFFF800000000000000000000000000
FFFFF800000000000000000000000000
FFFFF800000000000000000000000000
FFFFF800000000000000000000000000
FFFFF800000000000000000000000000
FFFFF800000000000000000000000000
FFFFF800000000000000000000000000
FFFFF800000000000000000000000000
FFFFF800000000000000000000000000
FFFFF800000000000000000000000000
FFFFF800000000000000000000000000
FFFFF800000000000000000000000000
FFFFF800000000000000000000000000
FFFFF800000000000000000000000000
FFFFF800000000000000000000000000
FFFFF800000000000000000000000000
FFFFFFFFFFFFFFFFFFFFFFFFE0000000
FFFFFFFFFFFFFFFFFFFFFFFFFF000000
FFFFFFFFFFFFFFFFFFFFFFFFFFF00000
FFFFFFFFFFFFFFFFFFFFFFFFFFFC0000
FFFFFFFFFFFFFFFFFFFFFFFFFFFF0000
FFFFFFFFFFFFFFFFFFFFFFFFFFFFC000
FFFFFFFFFFFFFFFFFFFFFFFFFFFFF000
FFFFFFFFFFFFFFFFFFFFFFFFFFFFF800
FFFFFFFFFFFFFFFFFFFFFFFFFFFFFC00
FFFFFFFFFFFFFFFFFFFFFFFFFFFFFE00
FFFFFFFFFFFFFFFFFFFFFFFFFFFFFF00
FFFFFFFFFFFFFFFFFFFFFFFFFFFFFF80
FFFFFFFFFFFFFFFFFFFFFFFFFFFFFFC0
FFFFFFFFFFFFFFFFFFFFFFFFFFFFFFE0
FFFFFFFFFFFFFFFFFFFFFFFFFFFFFFE0
FFFFFFFFFFFFFFFFFFFFFFFFFFFFFFF0
FFFFFFFFFFFFFFFFFFFFFFFFFFFFFFF0
FFFFFFFFFFFFFFFFFFFFFFFFFFFFFFF8
000000000000000000000000FFFFFFF8
0000000000000000000000001FFFFFFC
00000000000000000000000007FFFFFC
00000000000000000000000001FFFFFC
00000000000000000000000000FFFFFE
000000000000000000000000007FFFFE
000000000000000000000000003FFFFE
000000000000000000000000003FFFFE
000000000000000000000000001FFFFE
000000000000000000000000001FFFFF
000000000000000000000000001FFFFF
000000000000000000000000000FFFFF
000000000000000000000000000FFFFF
000000000000000000000000000FFFFF
000000000000000000000000000FFFFF
000000000000000000000000000FFFFF
000000000000000000000000000FFFFF
000000000000000000000000000FFFFF
000000000000000000000000000FFFFF
000000000000000000000000000FFFFF
000000000000000000000000001FFFFF
000000000000000000000000001FFFFF
000000000000000000000000001FFFFF
000000000000000000000000003FFFFF
000000000000000000000000003FFFFF
000000000000000000000000007FFFFE
00000000000000000000000000FFFFFE
00000000000000000000000001FFFFFE
00000000000000000000000003FFFFFE
00000000000000000000000007FFFFFC
0000000000000000000000003FFFFFFC
000000000000000000000003FFFFFFFC
FFFFFFFFFFFFFFFFFFFFFFFFFFFFFFF8
FFFFFFFFFFFFFFFFFFFFFFFFFFFFFFF8
FFFFFFFFFFFFFFFFFFFFFFFFFFFFFFF8
FFFFFFFFFFFFFFFFFFFFFFFFFFFFFFF0
FFFFFFFFFFFFFFFFFFFFFFFFFFFFFFE0
FFFFFFFFFFFFFFFFFFFFFFFFFFFFFFE0
FFFFFFFFFFFFFFFFFFFFFFFFFFFFFFC0
FFFFFFFFFFFFFFFFFFFFFFFFFFFFFFC0
FFFFFFFFFFFFFFFFFFFFFFFFFFFFFF80
FFFFFFFFFFFFFFFFFFFFFFFFFFFFFF00
FFFFFFFFFFFFFFFFFFFFFFFFFFFFFE00
FFFFFFFFFFFFFFFFFFFFFFFFFFFFFC00
FFFFFFFFFFFFFFFFFFFFFFFFFFFFF800
FFFFFFFFFFFFFFFFFFFFFFFFFFFFF000
FFFFFFFFFFFFFFFFFFFFFFFFFFFFC000
FFFFFFFFFFFFFFFFFFFFFFFFFFFF8000
FFFFFFFFFFFFFFFFFFFFFFFFFFFE0000
FFFFFFFFFFFFFFFFFFFFFFFFFFF80000
FFFFFFFFFFFFFFFFFFFFFFFFFFE00000
FFFFFFFFFFFFFFFFFFFFFFFFFE000000
FFFFFFFFFFFFFFFFFFFFFFFFC0000000
ENDCHAR
STARTCHAR six
ENCODING 54
SWIDTH 872 0
DWIDTH 146 0
BBX 130 122 7 0
BITMAP
000000000003FFFFFFFFFFFFFFFFFFF800
0000000000FFFFFFFFFFFFFFFFFFFFF800
000000001FFFFFFFFFFFFFFFFFFFFFF800
00000000FFFFFFFFFFFFFFFFFFFFFFF800
00000003FFFFFFFFFFFFFFFFFFFFFFF800
0000001FFFFFFFFFFFFFFFFFFFFFFFF800
0000007FFFFFFFFFFFFFFFFFFFFFFFF800
000001FFFFFFFFFFFFFFFFFFFFFFFFF800
000003FFFFFFFFFFFFFFFFFFFFFFFFF800
00000FFFFFFFFFFFFFFFFFFFFFFFFFF800
00001FFFFFFFFFFFFFFFFFFFFFFFFFF800
00003FFFFFFFFFFFFFFFFFFFFFFFFFF800
00007FFFFFFFFFFFFFFFFFFFFFFFFFF800
0000FFFFFFFFFFFFFFFFFFFFFFFFFFF800
0001FFFFFFFFFFFFFFFFFFFFFFFFFFF800
0003FFFFFFFFFFFFFFFFFFFFFFFFFFF800
0007FFFFFFFFFFFFFFFFFFFFFFFFFFF800
000FFFFFFFFFFFFFFFFFFFFFFFFFFFF800
001FFFFFFFFFFFFFFFFFFFFFFFFFFFF800
003FFFFFFFFFFFFFFFFFFFFFFFFFFFF800
003FFFFFFFFFFFFFFFFFFFFFFFFFFFF800
007FFFFFFFFFF000000000000000000000
00FFFFFFFFF00000000000000000000000
00FFFFFFFF800000000000000000000000
01FFFFFFFC000000000000000000000000
01FFFFFFF0000000000000000000000000
03FFFFFFE0000000000000000000000000
03FFFFFF80000000000000000000000000
07FFFFFF00000000000000000000000000
07FFFFFE00000000000000000000000000
07FFFFFC00000000000000000000000000
0FFFFFF800000000000000000000000000
0FFFFFF000000000000000000000000000
0FFFFFE000000000000000000000000000
1FFFFFE000000000000000000000000000
1FFFFFC000000000000000000000000000
1FFFFFC000000000000000000000000000
3FFFFF8000000000000000000000000000
3FFFFF8000000000000000000000000000
3FFFFF0000000000000000000000000000
3FFFFF0000000000000000000000000000
3FFFFF0000000000000000000000000000
7FFFFE0000000000000000000000000000
7FFFFE0000000000000000000000000000
7FFFFE0000000000000000000000000000
7FFFFE0000000000000000000000000000
7FFFFC0000000000000000000000000000
7FFFFC0000000000000000000000000000
7FFFFC0000000000000000000000000000
FFFFFC0000000000000000000000000000
FFFFFC0000000000000000000000000000
FFFFFFFFFFFFFFFFFFFFFFFFF800000000
FFFFFFFFFFFFFFFFFFFFFFFFFFC0000000
FFFFFFFFFFFFFFFFFFFFFFFFFFFC000000
FFFFFFFFFFFFFFFFFFFFFFFFFFFF000000
FFFFFFFFFFFFFFFFFFFFFFFFFFFFC00000
FFFFFFFFFFFFFFFFFFFFFFFFFFFFF00000
FFFFFFFFFFFFFFFFFFFFFFFFFFFFFC0000
FFFFFFFFFFFFFFFFFFFFFFFFFFFFFE0000
FFFFFFFFFFFFFFFFFFFFFFFFFFFFFF0000
FFFFFFFFFFFFFFFFFFFFFFFFFFFFFF8000
FFFFFFFFFFFFFFFFFFFFFFFFFFFFFFC000
FFFFFFFFFFFFFFFFFFFFFFFFFFFFFFE000
FFFFFFFFFFFFFFFFFFFFFFFFFFFFFFF000
FFFFFFFFFFFFFFFFFFFFFFFFFFFFFFF800
FFFFFFFFFFFFFFFFFFFFFFFFFFFFFFF800
FFFFFFFFFFFFFFFFFFFFFFFFFFFFFFFC00
FFFFFFFFFFFFFFFFFFFFFFFFFFFFFFFC00
FFFFFFFFFFFFFFFFFFFFFFFFFFFFFFFE00
FFFFFC0000000000000000007FFFFFFE00
FFFFFC00000000000000000007FFFFFF00
7FFFFC00000000000000000001FFFFFF00
7FFFFC00000000000000000000FFFFFF00
7FFFFC000000000000000000003FFFFF00
7FFFFC000000000000000000003FFFFF80
7FFFFE000000000000000000001FFFFF80
7FFFFE000000000000000000000FFFFF80
7FFFFE000000000000000000000FFFFF80
3FFFFE0000000000000000000007FFFF80
3FFFFF0000000000000000000007FFFF80
3FFFFF0000000000000000000007FFFFC0
3FFFFF0000000000000000000007FFFFC0
3FFFFF8000000000000000000007FFFFC0
1FFFFF8000000000000000000007FFFFC0
1FFFFF8000000000000000000007FFFFC0
1FFFFFC000000000000000000007FFFFC0
0FFFFFC000000000000000000007FFFFC0
0FFFFFE000000000000000000007FFFFC0
0FFFFFF000000000000000000007FFFFC0
07FFFFF000000000000000000007FFFFC0
07FFFFF80000000000000000000FFFFFC0
07FFFFFC0000000000000000000FFFFF80
03FFFFFE0000000000000000000FFFFF80
03FFFFFF0000000000000000001FFFFF80
01FFFFFF8000000000000000003FFFFF80
01FFFFFFE000000000000000003FFFFF80
00FFFFFFF000000000000000007FFFFF80
00FFFFFFFE0000000000000001FFFFFF00
007FFFFFFF8000000000000003FFFFFF00
007FFFFFFFF00000000000001FFFFFFF00
003FFFFFFFFFF00000000003FFFFFFFE00
001FFFFFFFFFFFFFFFFFFFFFFFFFFFFE00
001FFFFFFFFFFFFFFFFFFFFFFFFFFFFE00
000FFFFFFFFFFFFFFFFFFFFFFFFFFFFC00
0007FFFFFFFFFFFFFFFFFFFFFFFFFFFC00
0003FFFFFFFFFFFFFFFFFFFFFFFFFFF800
0001FFFFFFFFFFFFFFFFFFFFFFFFFFF800
0000FFFFFFFFFFFFFFFFFFFFFFFFFFF000
00007FFFFFFFFFFFFFFFFFFFFFFFFFE000
00003FFFFFFFFFFFFFFFFFFFFFFFFFC000
00001FFFFFFFFFFFFFFFFFFFFFFFFFC000
00000FFFFFFFFFFFFFFFFFFFFFFFFF8000
000007FFFFFFFFFFFFFFFFFFFFFFFF0000
000001FFFFFFFFFFFFFFFFFFFFFFFE0000
000000FFFFFFFFFFFFFFFFFFFFFFF80000
0000003FFFFFFFFFFFFFFFFFFFFFF00000
0000000FFFFFFFFFFFFFFFFFFFFFE00000
00000003FFFFFFFFFFFFFFFFFFFF800000
000000007FFFFFFFFFFFFFFFFFFE000000
000000000FFFFFFFFFFFFFFFFFF8000000
0000000000FFFFFFFFFFFFFFFF80000000
000000000003FFFFFFFFFFFFF000000000
ENDCHAR
STARTCHAR seven
ENCODING 55
SWIDTH 756 0
DWIDTH 126 0
BBX 116 122 7 0
BITMAP
FFFFFFFFFFFFFFFFFFFFFFFFFFF000
FFFFFFFFFFFFFFFFFFFFFFFFFFFE00
FFFFFFFFFFFFFFFFFFFFFFFFFFFF00
FFFFFFFFFFFFFFFFFFFFFFFFFFFF80
FFFFFFFFFFFFFFFFFFFFFFFFFFFFC0
FFFFFFFFFFFFFFFFFFFFFFFFFFFFE0
FFFFFFFFFFFFFFFFFFFFFFFFFFFFE0
FFFFFFFFFFFFFFFFFFFFFFFFFFFFE0
FFFFFFFFFFFFFFFFFFFFFFFFFFFFF0
FFFFFFFFFFFFFFFFFFFFFFFFFFFFF0
FFFFFFFFFFFFFFFFFFFFFFFFFFFFF0
FFFFFFFFFFFFFFFFFFFFFFFFFFFFF0
FFFFFFFFFFFFFFFFFFFFFFFFFFFFF0
FFFFFFFFFFFFFFFFFFFFFFFFFFFFE0
FFFFFFFFFFFFFFFFFFFFFFFFFFFFE0
FFFFFFFFFFFFFFFFFFFFFFFFFFFFE0
FFFFFFFFFFFFFFFFFFFFFFFFFFFFC0
FFFFFFFFFFFFFFFFFFFFFFFFFFFFC0
FFFFFFFFFFFFFFFFFFFFFFFFFFFF80
FFFFFFFFFFFFFFFFFFFFFFFFFFFF00
FFFFFFFFFFFFFFFFFFFFFFFFFFFE00
000000000000000000000FFFFFFE00
000000000000000000001FFFFFFC00
000000000000000000001FFFFFF800
000000000000000000003FFFFFF000
000000000000000000007FFFFFE000
00000000000000000000FFFFFFE000
00000000000000000001FFFFFFC000
00000000000000000003FFFFFF8000
00000000000000000003FFFFFF0000
00000000000000000007FFFFFE0000
0000000000000000000FFFFFFE0000
0000000000000000001FFFFFFC0000
0000000000000000003FFFFFF80000
0000000000000000007FFFFFF00000
0000000000000000007FFFFFE00000
000000000000000000FFFFFFC00000
000000000000000001FFFFFFC00000
000000000000000003FFFFFF800000
000000000000000007FFFFFF000000
00000000000000000FFFFFFE000000
00000000000000000FFFFFFC000000
00000000000000001FFFFFFC000000
00000000000000003FFFFFF8000000
00000000000000007FFFFFF0000000
0000000000000000FFFFFFE0000000
0000000000000000FFFFFFC0000000
0000000000000001FFFFFF80000000
0000000000000003FFFFFF80000000
0000000000000007FFFFFF00000000
000000000000000FFFFFFE00000000
000000000000001FFFFFFC00000000
000000000000001FFFFFF800000000
000000000000003FFFFFF800000000
000000000000007FFFFFF000000000
00000000000000FFFFFFE000000000
00000000000001FFFFFFC000000000
00000000000003FFFFFF8000000000
00000000000003FFFFFF8000000000
00000000000007FFFFFF0000000000
0000000000000FFFFFFE0000000000
0000000000001FFFFFFC0000000000
0000000000003FFFFFF80000000000
0000000000003FFFFFF00000000000
0000000000007FFFFFF00000000000
000000000000FFFFFFE00000000000
000000000001FFFFFFC00000000000
000000000003FFFFFF800000000000
000000000007FFFFFF000000000000
000000000007FFFFFF000000000000
00000000000FFFFFFE000000000000
00000000001FFFFFFC000000000000
00000000003FFFFFF8000000000000
00000000007FFFFFF0000000000000
0000000000FFFFFFF0000000000000
0000000000FFFFFFE0000000000000
0000000001FFFFFFC0000000000000
0000000003FFFFFF80000000000000
0000000007FFFFFF00000000000000
000000000FFFFFFE00000000000000
000000000FFFFFFE00000000000000
000000001FFFFFFC00000000000000
000000003FFFFFF800000000000000
000000007FFFFFF000000000000000
00000000FFFFFFE000000000000000
00000001FFFFFFE000000000000000
00000001FFFFFFC000000000000000
00000003FFFFFF8000000000000000
00000007FFFFFF0000000000000000
0000000FFFFFFE0000000000000000
0000001FFFFFFE0000000000000000
0000003FFFFFFC0000000000000000
0000003FFFFFF80000000000000000
0000007FFFFFF00000000000000000
000000FFFFFFE00000000000000000
000001FFFFFFC00000000000000000
000003FFFFFFC00000000000000000
000003FFFFFF800000000000000000
000007FFFFFF000000000000000000
00000FFFFFFE000000000000000000
00001FFFFFFC000000000000000000
00003FFFFFFC000000000000000000
00007FFFFFF8000000000000000000
00007FFFFFF0000000000000000000
0000FFFFFFE0000000000000000000
0001FFFFFFC0000000000000000000
0003FFFFFFC0000000000000000000
0007FFFFFF80000000000000000000
000FFFFFFF00000000000000000000
000FFFFFFE00000000000000000000
001FFFFFFC00000000000000000000
003FFFFFF800000000000000000000
007FFFFFF800000000000000000000
00FFFFFFF000000000000000000000
00FFFFFFE000000000000000000000
01FFFFFFC000000000000000000000
03FFFFFF8000000000000000000000
07FFFFFF8000000000000000000000
0FFFFFFF0000000000000000000000
1FFFFFFE0000000000000000000000
1FFFFFFC0000000000000000000000
7FFFFFF80000000000000000000000
ENDCHAR
STARTCHAR eight
ENCODING 56
SWIDTH 898 0
DWIDTH 150 0
BBX 132 122 9 0
BITMAP
000000007FFFFFFFFFFFFFFFE000000000
0000001FFFFFFFFFFFFFFFFFFF80000000
000001FFFFFFFFFFFFFFFFFFFFF8000000
000007FFFFFFFFFFFFFFFFFFFFFF000000
00003FFFFFFFFFFFFFFFFFFFFFFFC00000
0000FFFFFFFFFFFFFFFFFFFFFFFFF00000
0001FFFFFFFFFFFFFFFFFFFFFFFFF80000
0007FFFFFFFFFFFFFFFFFFFFFFFFFE0000
000FFFFFFFFFFFFFFFFFFFFFFFFFFF0000
001FFFFFFFFFFFFFFFFFFFFFFFFFFF8000
003FFFFFFFFFFFFFFFFFFFFFFFFFFFC000
007FFFFFFFFFFFFFFFFFFFFFFFFFFFE000
00FFFFFFFFFFFFFFFFFFFFFFFFFFFFF000
01FFFFFFFFFFFFFFFFFFFFFFFFFFFFF800
03FFFFFFFFFFFFFFFFFFFFFFFFFFFFFC00
03FFFFFFFFFFFFFFFFFFFFFFFFFFFFFC00
07FFFFFFFFFFFFFFFFFFFFFFFFFFFFFE00
07FFFFFFFFFFFFFFFFFFFFFFFFFFFFFE00
0FFFFFFFFFFFFFFFFFFFFFFFFFFFFFFF00
0FFFFFFFFFFFFFFFFFFFFFFFFFFFFFFF00
0FFFFFFFFFFFFFFFFFFFFFFFFFFFFFFF80
1FFFFFFFFF0000000000000FFFFFFFFF80
1FFFFFFFC0000000000000003FFFFFFF80
1FFFFFFE000000000000000007FFFFFF80
3FFFFFF8000000000000000001FFFFFFC0
3FFFFFE0000000000000000000FFFFFFC0
3FFFFFC00000000000000000003FFFFFC0
3FFFFFC00000000000000000003FFFFFC0
3FFFFF800000000000000000001FFFFFC0
3FFFFF000000000000000000001FFFFFC0
3FFFFF000000000000000000000FFFFFC0
3FFFFF000000000000000000000FFFFFC0
3FFFFF000000000000000000000FFFFFC0
3FFFFE0000000000000000000007FFFFC0
3FFFFE0000000000000000000007FFFFC0
3FFFFE0000000000000000000007FFFFC0
3FFFFE0000000000000000000007FFFFC0
3FFFFE0000000000000000000007FFFFC0
3FFFFE0000000000000000000007FFFFC0
1FFFFE0000000000000000000007FFFFC0
1FFFFF000000000000000000000FFFFF80
1FFFFF000000000000000000000FFFFF80
1FFFFF000000000000000000000FFFFF80
0FFFFF000000000000000000001FFFFF00
0FFFFF800000000000000000001FFFFF00
0FFFFFC00000000000000000003FFFFF00
07FFFFC00000000000000000003FFFFE00
03FFFFE00000000000000000007FFFFC00
03FFFFF8000000000000000001FFFFFC00
01FFFFFE000000000000000007FFFFF800
00FFFFFFE0000000000000007FFFFFF000
007FFFFFFFFFFFFFFFFFFFFFFFFFFFE000
003FFFFFFFFFFFFFFFFFFFFFFFFFFFC000
001FFFFFFFFFFFFFFFFFFFFFFFFFFF8000
000FFFFFFFFFFFFFFFFFFFFFFFFFFF0000
0003FFFFFFFFFFFFFFFFFFFFFFFFFC0000
0000FFFFFFFFFFFFFFFFFFFFFFFFF00000
00003FFFFFFFFFFFFFFFFFFFFFFFC00000
0000FFFFFFFFFFFFFFFFFFFFFFFFF00000
0003FFFFFFFFFFFFFFFFFFFFFFFFFC0000
000FFFFFFFFFFFFFFFFFFFFFFFFFFF0000
001FFFFFFFFFFFFFFFFFFFFFFFFFFF8000
007FFFFFFFFFFFFFFFFFFFFFFFFFFFE000
00FFFFFFFFFFFFFFFFFFFFFFFFFFFFF000
01FFFFFFFFFFFFFFFFFFFFFFFFFFFFF800
03FFFFFFFFFFFFFFFFFFFFFFFFFFFFFC00
07FFFFFFFFFFFFFFFFFFFFFFFFFFFFFC00
07FFFFFFFFFFFFFFFFFFFFFFFFFFFFFE00
0FFFFFFFFFFFFFFFFFFFFFFFFFFFFFFF00
1FFFFFFFC0000000000000003FFFFFFF80
1FFFFFFC000000000000000003FFFFFF80
3FFFFFF0000000000000000000FFFFFFC0
3FFFFFC00000000000000000003FFFFFC0
7FFFFF800000000000000000001FFFFFC0
7FFFFF000000000000000000000FFFFFE0
7FFFFE000000000000000000000FFFFFE0
FFFFFE0000000000000000000007FFFFE0
FFFFFC0000000000000000000003FFFFF0
FFFFFC0000000000000000000003FFFFF0
FFFFFC0000000000000000000003FFFFF0
FFFFF80000000000000000000001FFFFF0
FFFFF80000000000000000000001FFFFF0
FFFFF80000000000000000000001FFFFF0
FFFFF80000000000000000000001FFFFF0
FFFFF80000000000000000000001FFFFF0
FFFFF80000000000000000000001FFFFF0
FFFFF80000000000000000000001FFFFF0
FFFFF80000000000000000000001FFFFF0
FFFFF80000000000000000000001FFFFF0
FFFFFC0000000000000000000003FFFFF0
FFFFFC0000000000000000000003FFFFF0
FFFFFC0000000000000000000003FFFFF0
FFFFFE0000000000000000000007FFFFF0
FFFFFF000000000000000000000FFFFFF0
FFFFFF000000000000000000001FFFFFE0
7FFFFFC00000000000000000003FFFFFE0
7FFFFFE00000000000000000007FFFFFE0
7FFFFFF8000000000000000001FFFFFFE0
3FFFFFFE000000000000000007FFFFFFC0
3FFFFFFFC0000000000000003FFFFFFFC0
3FFFFFFFFF0000000000000FFFFFFFFFC0
1FFFFFFFFFFFFFFFFFFFFFFFFFFFFFFF80
1FFFFFFFFFFFFFFFFFFFFFFFFFFFFFFF80
0FFFFFFFFFFFFFFFFFFFFFFFFFFFFFFF00
0FFFFFFFFFFFFFFFFFFFFFFFFFFFFFFF00
07FFFFFFFFFFFFFFFFFFFFFFFFFFFFFE00
03FFFFFFFFFFFFFFFFFFFFFFFFFFFFFC00
03FFFFFFFFFFFFFFFFFFFFFFFFFFFFFC00
01FFFFFFFFFFFFFFFFFFFFFFFFFFFFF800
00FFFFFFFFFFFFFFFFFFFFFFFFFFFFF000
007FFFFFFFFFFFFFFFFFFFFFFFFFFFE000
003FFFFFFFFFFFFFFFFFFFFFFFFFFFC000
001FFFFFFFFFFFFFFFFFFFFFFFFFFF8000
000FFFFFFFFFFFFFFFFFFFFFFFFFFF0000
0007FFFFFFFFFFFFFFFFFFFFFFFFFE0000
0001FFFFFFFFFFFFFFFFFFFFFFFFF80000
0000FFFFFFFFFFFFFFFFFFFFFFFFF00000
00003FFFFFFFFFFFFFFFFFFFFFFFC00000
00000FFFFFFFFFFFFFFFFFFFFFFF000000
000001FFFFFFFFFFFFFFFFFFFFF8000000
0000003FFFFFFFFFFFFFFFFFFFC0000000
00000001FFFFFFFFFFFFFFFFF000000000
ENDCHAR
STARTCHAR nine
ENCODING 57
SWIDTH 861 0
DWIDTH 144 0
BBX 130 122 7 0
BITMAP
00000007FFFFFFFFFFFFF0000000000000
000000FFFFFFFFFFFFFFFFC00000000000
000003FFFFFFFFFFFFFFFFFC0000000000
00001FFFFFFFFFFFFFFFFFFF8000000000
00007FFFFFFFFFFFFFFFFFFFE000000000
0000FFFFFFFFFFFFFFFFFFFFFC00000000
0003FFFFFFFFFFFFFFFFFFFFFE00000000
0007FFFFFFFFFFFFFFFFFFFFFF80000000
000FFFFFFFFFFFFFFFFFFFFFFFE0000000
001FFFFFFFFFFFFFFFFFFFFFFFF0000000
003FFFFFFFFFFFFFFFFFFFFFFFFC000000
007FFFFFFFFFFFFFFFFFFFFFFFFE000000
00FFFFFFFFFFFFFFFFFFFFFFFFFF000000
01FFFFFFFFFFFFFFFFFFFFFFFFFF800000
01FFFFFFFFFFFFFFFFFFFFFFFFFFC00000
03FFFFFFFFFFFFFFFFFFFFFFFFFFE00000
07FFFFFFFFFFFFFFFFFFFFFFFFFFF00000
07FFFFFFFFFFFFFFFFFFFFFFFFFFF80000
0FFFFFFFFFFFFFFFFFFFFFFFFFFFFC0000
0FFFFFFFFFFFFFFFFFFFFFFFFFFFFC0000
1FFFFFFFFFFFFFFFFFFFFFFFFFFFFE0000
1FFFFFFFF00000000001FFFFFFFFFF0000
1FFFFFFE00000000000007FFFFFFFF0000
3FFFFFF8000000000000007FFFFFFF8000
3FFFFFF0000000000000001FFFFFFF8000
3FFFFFE00000000000000007FFFFFFC000
7FFFFFC00000000000000001FFFFFFC000
7FFFFF800000000000000000FFFFFFE000
7FFFFF0000000000000000007FFFFFE000
7FFFFF0000000000000000001FFFFFF000
7FFFFE0000000000000000000FFFFFF000
FFFFFE0000000000000000000FFFFFF800
FFFFFC00000000000000000007FFFFF800
FFFFFC00000000000000000003FFFFF800
FFFFFC00000000000000000001FFFFFC00
FFFFFC00000000000000000001FFFFFC00
FFFFFC00000000000000000000FFFFFC00
FFFFFC00000000000000000000FFFFFE00
FFFFFC000000000000000000007FFFFE00
FFFFFC000000000000000000007FFFFE00
FFFFFC000000000000000000007FFFFE00
FFFFFC000000000000000000003FFFFF00
FFFFFC000000000000000000003FFFFF00
FFFFFC000000000000000000003FFFFF00
FFFFFC000000000000000000001FFFFF00
FFFFFC000000000000000000001FFFFF00
7FFFFE000000000000000000001FFFFF80
7FFFFE000000000000000000001FFFFF80
7FFFFE000000000000000000000FFFFF80
7FFFFF000000000000000000000FFFFF80
7FFFFF800000000000000000000FFFFF80
7FFFFFC00000000000000000000FFFFF80
3FFFFFE00000000000000000000FFFFF80
3FFFFFF00000000000000000000FFFFF80
3FFFFFFC0000000000000000000FFFFF80
1FFFFFFFC000000000000000000FFFFFC0
1FFFFFFFFFFFFFFFFFFFFFFFFFFFFFFFC0
0FFFFFFFFFFFFFFFFFFFFFFFFFFFFFFFC0
0FFFFFFFFFFFFFFFFFFFFFFFFFFFFFFFC0
07FFFFFFFFFFFFFFFFFFFFFFFFFFFFFFC0
07FFFFFFFFFFFFFFFFFFFFFFFFFFFFFFC0
03FFFFFFFFFFFFFFFFFFFFFFFFFFFFFFC0
03FFFFFFFFFFFFFFFFFFFFFFFFFFFFFFC0
01FFFFFFFFFFFFFFFFFFFFFFFFFFFFFFC0
00FFFFFFFFFFFFFFFFFFFFFFFFFFFFFFC0
007FFFFFFFFFFFFFFFFFFFFFFFFFFFFFC0
003FFFFFFFFFFFFFFFFFFFFFFFFFFFFFC0
000FFFFFFFFFFFFFFFFFFFFFFFFFFFFFC0
0007FFFFFFFFFFFFFFFFFFFFFFFFFFFFC0
0001FFFFFFFFFFFFFFFFFFFFFFFFFFFFC0
00007FFFFFFFFFFFFFFFFFFFFFFFFFFF80
00001FFFFFFFFFFFFFFFFFFFFFFFFFFF80
000003FFFFFFFFFFFFFFFFFFFFFFFFFF80
0000001FFFFFFFFFFFFFFFFFFFFFFFFF80
000000000000000000000000001FFFFF80
000000000000000000000000001FFFFF80
000000000000000000000000001FFFFF80
000000000000000000000000001FFFFF80
000000000000000000000000001FFFFF80
000000000000000000000000003FFFFF00
000000000000000000000000003FFFFF00
000000000000000000000000003FFFFF00
000000000000000000000000007FFFFF00
000000000000000000000000007FFFFF00
00000000000000000000000000FFFFFE00
00000000000000000000000000FFFFFE00
00000000000000000000000001FFFFFE00
00000000000000000000000001FFFFFC00
00000000000000000000000003FFFFFC00
00000000000000000000000003FFFFFC00
00000000000000000000000007FFFFF800
0000000000000000000000000FFFFFF800
0000000000000000000000001FFFFFF800
0000000000000000000000003FFFFFF000
0000000000000000000000007FFFFFF000
000000000000000000000001FFFFFFE000
000000000000000000000003FFFFFFE000
00000000000000000000000FFFFFFFC000
00000000000000000000007FFFFFFFC000
0000000000000000000003FFFFFFFF8000
00000000000000000003FFFFFFFFFF8000
0003FFFFFFFFFFFFFFFFFFFFFFFFFF0000
0003FFFFFFFFFFFFFFFFFFFFFFFFFE0000
0003FFFFFFFFFFFFFFFFFFFFFFFFFE0000
0003FFFFFFFFFFFFFFFFFFFFFFFFFC0000
0003FFFFFFFFFFFFFFFFFFFFFFFFF80000
0003FFFFFFFFFFFFFFFFFFFFFFFFF00000
0003FFFFFFFFFFFFFFFFFFFFFFFFE00000
0003FFFFFFFFFFFFFFFFFFFFFFFFC00000
0003FFFFFFFFFFFFFFFFFFFFFFFF800000
0003FFFFFFFFFFFFFFFFFFFFFFFF000000
0003FFFFFFFFFFFFFFFFFFFFFFFE000000
0003FFFFFFFFFFFFFFFFFFFFFFFC000000
0003FFFFFFFFFFFFFFFFFFFFFFF0000000
0003FFFFFFFFFFFFFFFFFFFFFFE0000000
0003FFFFFFFFFFFFFFFFFFFFFF80000000
0003FFFFFFFFFFFFFFFFFFFFFE00000000
0003FFFFFFFFFFFFFFFFFFFFF000000000
0003FFFFFFFFFFFFFFFFFFFFC000000000
0003FFFFFFFFFFFFFFFFFFFC0000000000
0003FFFFFFFFFFFFFFFFFFE00000000000
0003FFFFFFFFFFFFFFFFF0000000000000
ENDCHAR
STARTCHAR colon
ENCODING 58
SWIDTH 262 0
DWIDTH 44 0
BBX 22 78 11 0
BITMAP
01FC00
07FF00
0FFFC0
1FFFE0
3FFFF0
7FFFF8
7FFFF8
FFFFFC
FFFFFC
FFFFFC
FFFFFC
FFFFFC
FFFFFC
FFFFFC
FFFFFC
FFFFFC
FFFFF8
7FFFF8
3FFFF0
3FFFE0
1FFFC0
07FF80
01FC00
000000
000000
000000
000000
000000
000000
000000
000000
000000
000000
000000
000000
000000
000000
000000
000000
000000
000000
000000
000000
000000
000000
000000
000000
000000
000000
000000
000000
000000
000000
000000
000000
01FC00
07FF80
0FFFC0
3FFFE0
3FFFF0
7FFFF8
FFFFF8
FFFFFC
FFFFFC
FFFFFC
FFFFFC
FFFFFC
FFFFFC
FFFFFC
FFFFFC
FFFFFC
FFFFF8
7FFFF8
3FFFF0
3FFFE0
0FFFC0
07FF80
01FC00
ENDCHAR
STARTCHAR semicolon
ENCODING 59
SWIDTH 262 0
DWIDTH 44 0
BBX 22 97 11 -20
BITMAP
01FE00
07FF80
0FFFC0
1FFFE0
3FFFF0
7FFFF8
7FFFF8
FFFFFC
FFFFFC
FFFFFC
FFFFFC
FFFFFC
FFFFFC
FFFFFC
FFFFFC
FFFFFC
7FFFF8
7FFFF8
3FFFF0
1FFFE0
0FFFC0
07FF80
01FC00
000000
000000
000000
000000
000000
000000
000000
000000
000000
000000
000000
000000
000000
000000
000000
000000
000000
000000
000000
000000
000000
000000
000000
000000
000000
000000
000000
000000
000000
000000
FFFFFC
FFFFF8
FFFFF8
FFFFF8
FFFFF8
FFFFF8
FFFFF8
FFFFF0
FFFFF0
FFFFF0
FFFFF0
FFFFF0
FFFFE0
FFFFE0
FFFFE0
FFFFE0
FFFFE0
FFFFC0
FFFFC0
FFFFC0
FFFFC0
FFFFC0
FFFF80
FFFF80
FFFF80
FFFF80
FFFF80
FFFF80
FFFF00
FFFF00
FFFF00
FFFF00
FFFF00
FFFE00
FFFE00
FFFE00
FFFE00
FFFE00
FFFC00
FFFC00
FFFC00
FFFC00
FFFC00
FFF800
ENDCHAR
STARTCHAR less
ENCODING 60
SWIDTH 690 0
DWIDTH 115 0
BBX 94 90 11 17
BITMAP
00000000000000000000000C
00000000000000000000003C
0000000000000000000001FC
0000000000000000000007FC
000000000000000000003FFC
00000000000000000000FFFC
00000000000000000003FFFC
0000000000000000001FFFFC
0000000000000000007FFFFC
000000000000000001FFFFFC
00000000000000000FFFFFFC
00000000000000003FFFFFFC
0000000000000001FFFFFFFC
0000000000000007FFFFFFFC
000000000000001FFFFFFFFC
00000000000000FFFFFFFFF8
00000000000003FFFFFFFFC0
0000000000000FFFFFFFFE00
0000000000007FFFFFFFF800
000000000001FFFFFFFFC000
00000000000FFFFFFFFF0000
00000000003FFFFFFFF80000
0000000000FFFFFFFFE00000
0000000007FFFFFFFF000000
000000001FFFFFFFFC000000
000000007FFFFFFFE0000000
00000003FFFFFFFF00000000
0000000FFFFFFFFC00000000
0000007FFFFFFFE000000000
000001FFFFFFFF8000000000
000007FFFFFFFC0000000000
00003FFFFFFFF00000000000
0000FFFFFFFF800000000000
0003FFFFFFFE000000000000
001FFFFFFFF0000000000000
007FFFFFFFC0000000000000
03FFFFFFFE00000000000000
0FFFFFFFF000000000000000
1FFFFFFFC000000000000000
3FFFFFFE0000000000000000
7FFFFFF80000000000000000
FFFFFFC00000000000000000
FFFFFF000000000000000000
FFFFF8000000000000000000
FFFFE0000000000000000000
FFFFE0000000000000000000
FFFFFC000000000000000000
FFFFFF000000000000000000
FFFFFFE00000000000000000
7FFFFFF80000000000000000
3FFFFFFF0000000000000000
1FFFFFFFC000000000000000
07FFFFFFF800000000000000
01FFFFFFFE00000000000000
007FFFFFFFC0000000000000
000FFFFFFFF0000000000000
0003FFFFFFFE000000000000
0000FFFFFFFF800000000000
00001FFFFFFFF00000000000
000007FFFFFFFC0000000000
000001FFFFFFFF8000000000
0000003FFFFFFFE000000000
0000000FFFFFFFFC00000000
00000001FFFFFFFF00000000
000000007FFFFFFFE0000000
000000001FFFFFFFFC000000
0000000003FFFFFFFF000000
0000000000FFFFFFFFE00000
00000000003FFFFFFFF80000
000000000007FFFFFFFF0000
000000000001FFFFFFFFC000
0000000000007FFFFFFFF800
0000000000000FFFFFFFFE00
00000000000003FFFFFFFFC0
00000000000000FFFFFFFFF0
000000000000001FFFFFFFFC
0000000000000007FFFFFFFC
0000000000000000FFFFFFFC
00000000000000003FFFFFFC
00000000000000000FFFFFFC
000000000000000001FFFFFC
0000000000000000007FFFFC
0000000000000000001FFFFC
00000000000000000003FFFC
00000000000000000000FFFC
000000000000000000003FFC
0000000000000000000007FC
0000000000000000000001FC
00000000000000000000003C
00000000000000000000000C
ENDCHAR
STARTCHAR equal
ENCODING 61
SWIDTH 690 0
DWIDTH 115 0
BBX 94 59 11 32
BITMAP
FFFFFFFFFFFFFFFFFFFFFFFC
FFFFFFFFFFFFFFFFFFFFFFFC
FFFFFFFFFFFFFFFFFFFFFFFC
FFFFFFFFFFFFFFFFFFFFFFFC
FFFFFFFFFFFFFFFFFFFFFFFC
FFFFFFFFFFFFFFFFFFFFFFFC
FFFFFFFFFFFFFFFFFFFFFFFC
FFFFFFFFFFFFFFFFFFFFFFFC
FFFFFFFFFFFFFFFFFFFFFFFC
FFFFFFFFFFFFFFFFFFFFFFFC
FFFFFFFFFFFFFFFFFFFFFFFC
FFFFFFFFFFFFFFFFFFFFFFFC
FFFFFFFFFFFFFFFFFFFFFFFC
FFFFFFFFFFFFFFFFFFFFFFFC
000000000000000000000000
000000000000000000000000
000000000000000000000000
000000000000000000000000
000000000000000000000000
000000000000000000000000
000000000000000000000000
000000000000000000000000
000000000000000000000000
000000000000000000000000
000000000000000000000000
000000000000000000000000
000000000000000000000000
000000000000000000000000
000000000000000000000000
000000000000000000000000
000000000000000000000000
000000000000000000000000
000000000000000000000000
000000000000000000000000
000000000000000000000000
000000000000000000000000
000000000000000000000000
000000000000000000000000
000000000000000000000000
000000000000000000000000
000000000000000000000000
000000000000000000000000
000000000000000000000000
000000000000000000000000
000000000000000000000000
FFFFFFFFFFFFFFFFFFFFFFFC
FFFFFFFFFFFFFFFFFFFFFFFC
FFFFFFFFFFFFFFFFFFFFFFFC
FFFFFFFFFFFFFFFFFFFFFFFC
FFFFFFFFFFFFFFFFFFFFFFFC
FFFFFFFFFFFFFFFFFFFFFFFC
FFFFFFFFFFFFFFFFFFFFFFFC
FFFFFFFFFFFFFFFFFFFFFFFC
FFFFFFFFFFFFFFFFFFFFFFFC
FFFFFFFFFFFFFFFFFFFFFFFC
FFFFFFFFFFFFFFFFFFFFFFFC
FFFFFFFFFFFFFFFFFFFFFFFC
FFFFFFFFFFFFFFFFFFFFFFFC
FFFFFFFFFFFFFFFFFFFFFFFC
ENDCHAR
STARTCHAR greater
ENCODING 62
SWIDTH 690 0
DWIDTH 115 0
BBX 94 90 11 17
BITMAP
800000000000000000000000
F00000000000000000000000
FC0000000000000000000000
FF0000000000000000000000
FFE000000000000000000000
FFF800000000000000000000
FFFF00000000000000000000
FFFFC0000000000000000000
FFFFF0000000000000000000
FFFFFE000000000000000000
FFFFFF800000000000000000
FFFFFFE00000000000000000
FFFFFFFC0000000000000000
FFFFFFFF0000000000000000
FFFFFFFFE000000000000000
7FFFFFFFF800000000000000
1FFFFFFFFE00000000000000
03FFFFFFFFC0000000000000
00FFFFFFFFF0000000000000
001FFFFFFFFC000000000000
0007FFFFFFFF800000000000
0000FFFFFFFFE00000000000
00001FFFFFFFFC0000000000
000007FFFFFFFF0000000000
000000FFFFFFFFC000000000
0000003FFFFFFFF800000000
00000007FFFFFFFE00000000
00000001FFFFFFFF80000000
000000003FFFFFFFF0000000
000000000FFFFFFFFC000000
0000000001FFFFFFFF800000
00000000003FFFFFFFE00000
00000000000FFFFFFFF80000
000000000001FFFFFFFF0000
0000000000007FFFFFFFC000
0000000000000FFFFFFFF000
00000000000003FFFFFFFE00
000000000000007FFFFFFF80
000000000000001FFFFFFFC0
0000000000000003FFFFFFF0
0000000000000000FFFFFFF0
00000000000000001FFFFFF8
000000000000000007FFFFF8
000000000000000000FFFFFC
0000000000000000001FFFFC
0000000000000000003FFFFC
000000000000000000FFFFFC
000000000000000007FFFFF8
00000000000000001FFFFFF8
0000000000000000FFFFFFF0
0000000000000003FFFFFFF0
000000000000001FFFFFFFC0
000000000000007FFFFFFF80
00000000000003FFFFFFFC00
0000000000001FFFFFFFF000
0000000000007FFFFFFFC000
000000000003FFFFFFFE0000
00000000000FFFFFFFF80000
00000000007FFFFFFFE00000
0000000001FFFFFFFF000000
000000000FFFFFFFFC000000
000000003FFFFFFFE0000000
00000001FFFFFFFF80000000
00000007FFFFFFFE00000000
0000003FFFFFFFF000000000
000000FFFFFFFFC000000000
000007FFFFFFFF0000000000
00001FFFFFFFF80000000000
0000FFFFFFFFE00000000000
0003FFFFFFFF800000000000
001FFFFFFFFC000000000000
007FFFFFFFF0000000000000
03FFFFFFFF80000000000000
0FFFFFFFFE00000000000000
7FFFFFFFF800000000000000
FFFFFFFFC000000000000000
FFFFFFFF0000000000000000
FFFFFFFC0000000000000000
FFFFFFE00000000000000000
FFFFFF800000000000000000
FFFFFE000000000000000000
FFFFF0000000000000000000
FFFFC0000000000000000000
FFFE00000000000000000000
FFF800000000000000000000
FFE000000000000000000000
FF0000000000000000000000
FC0000000000000000000000
F00000000000000000000000
800000000000000000000000
ENDCHAR
STARTCHAR question
ENCODING 63
SWIDTH 776 0
DWIDTH 130 0
BBX 118 122 7 0
BITMAP
FFFFFFFFFFFFFFFFFFFFFF00000000
FFFFFFFFFFFFFFFFFFFFFFF8000000
FFFFFFFFFFFFFFFFFFFFFFFF000000
FFFFFFFFFFFFFFFFFFFFFFFFE00000
FFFFFFFFFFFFFFFFFFFFFFFFF80000
FFFFFFFFFFFFFFFFFFFFFFFFFE0000
FFFFFFFFFFFFFFFFFFFFFFFFFF0000
FFFFFFFFFFFFFFFFFFFFFFFFFFC000
FFFFFFFFFFFFFFFFFFFFFFFFFFE000
FFFFFFFFFFFFFFFFFFFFFFFFFFF000
FFFFFFFFFFFFFFFFFFFFFFFFFFF800
FFFFFFFFFFFFFFFFFFFFFFFFFFFC00
FFFFFFFFFFFFFFFFFFFFFFFFFFFE00
FFFFFFFFFFFFFFFFFFFFFFFFFFFE00
FFFFFFFFFFFFFFFFFFFFFFFFFFFF00
FFFFFFFFFFFFFFFFFFFFFFFFFFFF80
FFFFFFFFFFFFFFFFFFFFFFFFFFFF80
FFFFFFFFFFFFFFFFFFFFFFFFFFFFC0
FFFFFFFFFFFFFFFFFFFFFFFFFFFFC0
FFFFFFFFFFFFFFFFFFFFFFFFFFFFE0
FFFFFFFFFFFFFFFFFFFFFFFFFFFFE0
000000000000000000001FFFFFFFF0
0000000000000000000000FFFFFFF0
00000000000000000000003FFFFFF0
00000000000000000000001FFFFFF0
00000000000000000000000FFFFFF8
000000000000000000000007FFFFF8
000000000000000000000003FFFFF8
000000000000000000000003FFFFF8
000000000000000000000001FFFFF8
000000000000000000000001FFFFF8
000000000000000000000001FFFFFC
000000000000000000000000FFFFFC
000000000000000000000000FFFFFC
000000000000000000000000FFFFFC
000000000000000000000000FFFFFC
000000000000000000000000FFFFF8
000000000000000000000000FFFFF8
000000000000000000000000FFFFF8
000000000000000000000001FFFFF8
000000000000000000000001FFFFF8
000000000000000000000001FFFFF8
000000000000000000000001FFFFF8
000000000000000000000003FFFFF0
000000000000000000000007FFFFF0
00000000000000000000000FFFFFF0
00000000000000000000001FFFFFE0
00000000000000000000003FFFFFE0
0000000000000000000000FFFFFFE0
0000000000000000000007FFFFFFC0
00000000FFFFFFFFFFFFFFFFFFFFC0
0000000FFFFFFFFFFFFFFFFFFFFF80
0000007FFFFFFFFFFFFFFFFFFFFF80
000001FFFFFFFFFFFFFFFFFFFFFF00
000007FFFFFFFFFFFFFFFFFFFFFE00
00000FFFFFFFFFFFFFFFFFFFFFFC00
00001FFFFFFFFFFFFFFFFFFFFFFC00
00003FFFFFFFFFFFFFFFFFFFFFF800
00007FFFFFFFFFFFFFFFFFFFFFF000
0000FFFFFFFFFFFFFFFFFFFFFFC000
0001FFFFFFFFFFFFFFFFFFFFFF8000
0001FFFFFFFFFFFFFFFFFFFFFF0000
0003FFFFFFFFFFFFFFFFFFFFFC0000
0003FFFFFFFFFFFFFFFFFFFFF80000
0007FFFFFFFFFFFFFFFFFFFFC00000
0007FFFFFFFFFFFFFFFFFFFF000000
0007FFFFFFFFFFFFFFFFFFF8000000
000FFFFFFFFFFFFFFFFFFF00000000
000FFFFFF000000000000000000000
000FFFFFC000000000000000000000
000FFFFF8000000000000000000000
000FFFFF0000000000000000000000
000FFFFF0000000000000000000000
000FFFFF0000000000000000000000
000FFFFF0000000000000000000000
000FFFFF0000000000000000000000
000FFFFF0000000000000000000000
000FFFFF0000000000000000000000
000FFFFF0000000000000000000000
000FFFFF0000000000000000000000
000FFFFF0000000000000000000000
000FFFFF0000000000000000000000
000000000000000000000000000000
000000000000000000000000000000
000000000000000000000000000000
000000000000000000000000000000
000000000000000000000000000000
000000000000000000000000000000
000000000000000000000000000000
000000000000000000000000000000
000000000000000000000000000000
000000000000000000000000000000
000000000000000000000000000000
000000000000000000000000000000
000000000000000000000000000000
000000000000000000000000000000
000000000000000000000000000000
000000000000000000000000000000
000000000000000000000000000000
00001FC00000000000000000000000
0000FFF00000000000000000000000
0001FFF80000000000000000000000
0003FFFE0000000000000000000000
0007FFFE0000000000000000000000
000FFFFF0000000000000000000000
000FFFFF0000000000000000000000
001FFFFF8000000000000000000000
001FFFFF8000000000000000000000
001FFFFF8000000000000000000000
001FFFFF8000000000000000000000
001FFFFF8000000000000000000000
001FFFFF8000000000000000000000
001FFFFF8000000000000000000000
001FFFFF8000000000000000000000
001FFFFF8000000000000000000000
000FFFFF0000000000000000000000
000FFFFF0000000000000000000000
0007FFFE0000000000000000000000
0003FFFE0000000000000000000000
0001FFF80000000000000000000000
0000FFF00000000000000000000000
00003FC00000000000000000000000
ENDCHAR
STARTCHAR at
ENCODING 64
SWIDTH 833 0
DWIDTH 139 0
BBX 122 122 7 0
BITMAP
00000000000007FFFFFFFFFFFFFFFFC0
000000000001FFFFFFFFFFFFFFFFFFC0
00000000001FFFFFFFFFFFFFFFFFFFC0
0000000000FFFFFFFFFFFFFFFFFFFFC0
0000000007FFFFFFFFFFFFFFFFFFFFC0
000000001FFFFFFFFFFFFFFFFFFFFFC0
000000007FFFFFFFFFFFFFFFFFFFFFC0
00000001FFFFFFFFFFFFFFFFFFFFFFC0
00000007FFFFFFFFFFFFFFFFFFFFFFC0
0000000FFFFFFFFFFFFFFFFFFFFFFFC0
0000003FFFFFFFFFFFFFFFFFFFFFFFC0
0000007FFFFFFFFFFFFFFFFFFFFFFFC0
000000FFFFFFFFFFFFFFFFFFFFFFFFC0
000003FFFFFFFFFFFFFFFFFFFFFFFFC0
000007FFFFFFFFFFFFFFFFFFFFFFFFC0
00000FFFFFFFFFFFFFFFFFFFFFFFFFC0
00001FFFFFFFF80000000000003FFFC0
00003FFFFFFF000000000000003FFFC0
00007FFFFFF8000000000000003FFFC0
0000FFFFFFC0000000000000003FFFC0
0001FFFFFF00000000000000003FFFC0
0003FFFFFC00000000000000003FFFC0
0007FFFFF000000000000000003FFFC0
0007FFFFC000000000000000003FFFC0
000FFFFF8000000000000000003FFFC0
001FFFFF0000000000000000003FFFC0
001FFFFC0000000000000000003FFFC0
003FFFF80000000000000000003FFFC0
007FFFF00000000000000000003FFFC0
007FFFE00000000000000000003FFFC0
00FFFFC00000000000000000003FFFC0
00FFFF800000000000000000003FFFC0
01FFFF800000000000000000003FFFC0
01FFFF000000000000000000003FFFC0
03FFFE00000007FFFFFFFFE0003FFFC0
03FFFE0000003FFFFFFFFFE0003FFFC0
07FFFC000000FFFFFFFFFFE0003FFFC0
07FFF8000003FFFFFFFFFFE0003FFFC0
0FFFF8000007FFFFFFFFFFE0003FFFC0
0FFFF000001FFFFFFFFFFFE0003FFFC0
0FFFF000003FFFFFFFFFFFE0003FFFC0
1FFFF000007FFFFFFFFFFFE0003FFFC0
1FFFE000007FFFFFFFFFFFE0003FFFC0
1FFFE00000FFFFFFFFFFFFE0003FFFC0
3FFFC00001FFFFFFFFFFFFE0003FFFC0
3FFFC00001FFFFFFFFFFFFE0003FFFC0
3FFFC00003FFFFC00007FFE0003FFFC0
3FFFC00007FFFF000007FFE0003FFFC0
7FFF800007FFFC000007FFE0003FFFC0
7FFF800007FFF8000007FFE0003FFFC0
7FFF80000FFFF0000007FFE0003FFFC0
7FFF80000FFFE0000007FFE0003FFFC0
7FFF80000FFFE0000007FFE0003FFFC0
7FFF00001FFFC0000007FFE0003FFFC0
FFFF00001FFFC0000007FFE0003FFFC0
FFFF00001FFFC0000007FFE0003FFFC0
FFFF00001FFF80000007FFE0003FFFC0
FFFF00001FFF80000007FFE0003FFFC0
FFFF00001FFF80000007FFE0003FFFC0
FFFF00001FFF80000007FFE0003FFFC0
FFFF00001FFF80000007FFE0003FFFC0
FFFF00001FFF80000007FFE0003FFFC0
FFFF00001FFF80000007FFE0003FFFC0
FFFF00001FFF80000007FFE0003FFFC0
FFFF00001FFF80000007FFE0003FFFC0
FFFF00001FFF80000007FFE0003FFFC0
FFFF00001FFFC0000007FFE0003FFFC0
FFFF00001FFFC0000007FFE0003FFFC0
FFFF00001FFFC0000007FFE0003FFFC0
FFFF00000FFFE0000007FFE0003FFFC0
FFFF80000FFFF0000007FFE0003FFFC0
7FFF80000FFFF0000007FFE0003FFFC0
7FFF80000FFFF8000007FFE0003FFFC0
7FFF800007FFFC000007FFE0003FFFC0
7FFF800007FFFF000007FFE0003FFFC0
7FFFC00003FFFFE00007FFE0003FFFC0
7FFFC00003FFFFFFFFFFFFFFFFFFFFC0
3FFFC00001FFFFFFFFFFFFFFFFFFFFC0
3FFFC00001FFFFFFFFFFFFFFFFFFFFC0
3FFFE00000FFFFFFFFFFFFFFFFFFFFC0
3FFFE000007FFFFFFFFFFFFFFFFFFFC0
1FFFF000003FFFFFFFFFFFFFFFFFFFC0
1FFFF000001FFFFFFFFFFFFFFFFFFFC0
1FFFF800000FFFFFFFFFFFFFFFFFFFC0
0FFFF8000007FFFFFFFFFFFFFFFFFFC0
0FFFFC000003FFFFFFFFFFFFFFFFFFC0
0FFFFC000000FFFFFFFFFFFFFFFFFFC0
07FFFE0000003FFFFFFFFFFFFFFFFFC0
07FFFE00000003FFFFFFFFFFFFFFFFC0
03FFFF00000000000000000000000000
03FFFF80000000000000000000000000
01FFFFC0000000000000000000000000
01FFFFC0000000000000000000000000
00FFFFE0000000000000000000000000
00FFFFF0000000000000000000000000
007FFFF8000000000000000000000000
003FFFFC000000000000000000000000
003FFFFF000000000000000000000000
001FFFFF800000000000000000000000
000FFFFFC00000000000000000000000
0007FFFFF00000000000000000000000
0007FFFFFC0000000000000000000000
0003FFFFFF0000000000000000000000
0001FFFFFFC000000000000000000000
0000FFFFFFF800000000000000000000
00007FFFFFFF00000000000000000000
00003FFFFFFFF8000000000000000000
00001FFFFFFFFFFFFFFFFFFFFFFFFFC0
00000FFFFFFFFFFFFFFFFFFFFFFFFFC0
000003FFFFFFFFFFFFFFFFFFFFFFFFC0
000001FFFFFFFFFFFFFFFFFFFFFFFFC0
0000007FFFFFFFFFFFFFFFFFFFFFFFC0
0000003FFFFFFFFFFFFFFFFFFFFFFFC0
0000000FFFFFFFFFFFFFFFFFFFFFFFC0
00000007FFFFFFFFFFFFFFFFFFFFFFC0
00000001FFFFFFFFFFFFFFFFFFFFFFC0
000000003FFFFFFFFFFFFFFFFFFFFFC0
000000000FFFFFFFFFFFFFFFFFFFFFC0
0000000001FFFFFFFFFFFFFFFFFFFFC0
00000000003FFFFFFFFFFFFFFFFFFFC0
000000000003FFFFFFFFFFFFFFFFFFC0
0000000000000FFFFFFFFFFFFFFFFFC0
ENDCHAR
STARTCHAR A
ENCODING 65
SWIDTH 989 0
DWIDTH 165 0
BBX 161 124 2 0
BITMAP
000000000000000000008000000000000000000000
0000000000000000000FF800000000000000000000
0000000000000000003FFE00000000000000000000
0000000000000000007FFF00000000000000000000
000000000000000000FFFF80000000000000000000
000000000000000001FFFF80000000000000000000
000000000000000001FFFFC0000000000000000000
000000000000000003FFFFE0000000000000000000
000000000000000007FFFFE0000000000000000000
000000000000000007FFFFF0000000000000000000
00000000000000000FFFFFF8000000000000000000
00000000000000000FFFFFF8000000000000000000
00000000000000001FFFFFFC000000000000000000
00000000000000003FFFFFFC000000000000000000
00000000000000003FFFFFFE000000000000000000
00000000000000007FFFFFFF000000000000000000
00000000000000007FFFFFFF000000000000000000
0000000000000000FFFFFFFF800000000000000000
0000000000000001FFFFFFFF800000000000000000
0000000000000001FFFFFFFFC00000000000000000
0000000000000003FFFFFFFFE00000000000000000
0000000000000003FFFFFFFFE00000000000000000
0000000000000007FFFFFFFFF00000000000000000
000000000000000FFFFFFFFFF00000000000000000
000000000000000FFFFFFFFFF80000000000000000
000000000000001FFFFFFFFFFC0000000000000000
000000000000001FFFFFFFFFFC0000000000000000
000000000000003FFFFFFFFFFE0000000000000000
000000000000007FFFFFFFFFFE0000000000000000
000000000000007FFFFFFFFFFF0000000000000000
00000000000000FFFFFFFFFFFF8000000000000000
00000000000000FFFFFEFFFFFF8000000000000000
00000000000001FFFFFE7FFFFFC000000000000000
00000000000003FFFFFC7FFFFFC000000000000000
00000000000003FFFFFC3FFFFFE000000000000000
00000000000007FFFFF83FFFFFF000000000000000
00000000000007FFFFF01FFFFFF000000000000000
0000000000000FFFFFF00FFFFFF800000000000000
0000000000001FFFFFE00FFFFFF800000000000000
0000000000001FFFFFE007FFFFFC00000000000000
0000000000003FFFFFC007FFFFFE00000000000000
0000000000003FFFFF8003FFFFFE00000000000000
0000000000007FFFFF8001FFFFFF00000000000000
0000000000007FFFFF0001FFFFFF00000000000000
000000000000FFFFFF0000FFFFFF80000000000000
000000000001FFFFFE0000FFFFFFC0000000000000
000000000001FFFFFE00007FFFFFC0000000000000
000000000003FFFFFC00003FFFFFE0000000000000
000000000003FFFFF800003FFFFFE0000000000000
000000000007FFFFF800001FFFFFF0000000000000
00000000000FFFFFF000001FFFFFF8000000000000
00000000000FFFFFF000000FFFFFF8000000000000
00000000001FFFFFE0000007FFFFFC000000000000
00000000001FFFFFC0000007FFFFFC000000000000
00000000003FFFFFC0000003FFFFFE000000000000
00000000007FFFFF80000003FFFFFF000000000000
00000000007FFFFF80000001FFFFFF000000000000
0000000000FFFFFF00000000FFFFFF800000000000
0000000000FFFFFE00000000FFFFFF800000000000
0000000001FFFFFE000000007FFFFFC00000000000
0000000003FFFFFC000000007FFFFFE00000000000
0000000003FFFFFC000000003FFFFFE00000000000
0000000007FFFFF8000000001FFFFFF00000000000
0000000007FFFFF0000000001FFFFFF00000000000
000000000FFFFFF0000000000FFFFFF80000000000
000000001FFFFFE0000000000FFFFFFC0000000000
000000001FFFFFE00000000007FFFFFC0000000000
000000003FFFFFC00000000003FFFFFE0000000000
000000003FFFFF800000000003FFFFFE0000000000
000000007FFFFF800000000001FFFFFF0000000000
00000000FFFFFF000000000001FFFFFF8000000000
00000000FFFFFF000000000000FFFFFF8000000000
00000001FFFFFE0000000000007FFFFFC000000000
00000001FFFFFE0000000000007FFFFFC000000000
00000003FFFFFC0000000000003FFFFFE000000000
00000007FFFFF80000000000003FFFFFF000000000
00000007FFFFF80007FFFFFFFFFFFFFFF000000000
0000000FFFFFF00007FFFFFFFFFFFFFFF800000000
0000000FFFFFF0000FFFFFFFFFFFFFFFF800000000
0000001FFFFFE0001FFFFFFFFFFFFFFFFC00000000
0000003FFFFFC0001FFFFFFFFFFFFFFFFE00000000
0000003FFFFFC0003FFFFFFFFFFFFFFFFE00000000
0000007FFFFF80003FFFFFFFFFFFFFFFFF00000000
0000007FFFFF80007FFFFFFFFFFFFFFFFF00000000
000000FFFFFF0000FFFFFFFFFFFFFFFFFF80000000
000001FFFFFE0000FFFFFFFFFFFFFFFFFFC0000000
000001FFFFFE0001FFFFFFFFFFFFFFFFFFC0000000
000003FFFFFC0001FFFFFFFFFFFFFFFFFFE0000000
000003FFFFFC0003FFFFFFFFFFFFFFFFFFE0000000
000007FFFFF80003FFFFFFFFFFFFFFFFFFF0000000
00000FFFFFF00007FFFFFFFFFFFFFFFFFFF8000000
00000FFFFFF0000FFFFFFFFFFFFFFFFFFFF8000000
00001FFFFFE0001FFFFFFFFFFFFFFFFFFFFC000000
00001FFFFFE0000000000000000007FFFFFC000000
00003FFFFFC0000000000000000003FFFFFE000000
00007FFFFF80000000000000000003FFFFFF000000
00007FFFFF80000000000000000001FFFFFF000000
0000FFFFFF00000000000000000000FFFFFF800000
0000FFFFFF00000000000000000000FFFFFF800000
0001FFFFFE000000000000000000007FFFFFC00000
0003FFFFFC000000000000000000007FFFFFE00000
0003FFFFFC000000000000000000003FFFFFE00000
0007FFFFF8000000000000000000003FFFFFF00000
0007FFFFF8000000000000000000001FFFFFF00000
000FFFFFF0000000000000000000000FFFFFF80000
001FFFFFF0000000000000000000000FFFFFFC0000
001FFFFFE00000000000000000000007FFFFFC0000
003FFFFFC00000000000000000000007FFFFFE0000
003FFFFFC00000000000000000000003FFFFFE0000
007FFFFF800000000000000000000001FFFFFF0000
00FFFFFF800000000000000000000001FFFFFF8000
00FFFFFF000000000000000000000000FFFFFF8000
01FFFFFE000000000000000000000000FFFFFFC000
01FFFFFE0000000000000000000000007FFFFFC000
03FFFFFC0000000000000000000000003FFFFFE000
07FFFFFC0000000000000000000000003FFFFFF000
07FFFFF80000000000000000000000001FFFFFF000
0FFFFFF00000000000000000000000001FFFFFF800
0FFFFFF00000000000000000000000000FFFFFF800
1FFFFFE00000000000000000000000000FFFFFFC00
3FFFFFE000000000000000000000000007FFFFFE00
3FFFFFC000000000000000000000000003FFFFFE00
7FFFFF8000000000000000000000000003FFFFFF00
FFFFFF8000000000000000000000000001FFFFFF80
ENDCHAR
STARTCHAR B
ENCODING 66
SWIDTH 891 0
DWIDTH 149 0
BBX 131 122 10 0
BITMAP
FFFFFFFFFFFFFFFFFFFFFFFFC000000000
FFFFFFFFFFFFFFFFFFFFFFFFFE00000000
FFFFFFFFFFFFFFFFFFFFFFFFFFE0000000
FFFFFFFFFFFFFFFFFFFFFFFFFFFC000000
FFFFFFFFFFFFFFFFFFFFFFFFFFFF000000
FFFFFFFFFFFFFFFFFFFFFFFFFFFFC00000
FFFFFFFFFFFFFFFFFFFFFFFFFFFFF00000
FFFFFFFFFFFFFFFFFFFFFFFFFFFFF80000
FFFFFFFFFFFFFFFFFFFFFFFFFFFFFC0000
FFFFFFFFFFFFFFFFFFFFFFFFFFFFFF0000
FFFFFFFFFFFFFFFFFFFFFFFFFFFFFF8000
FFFFFFFFFFFFFFFFFFFFFFFFFFFFFFC000
FFFFFFFFFFFFFFFFFFFFFFFFFFFFFFC000
FFFFFFFFFFFFFFFFFFFFFFFFFFFFFFE000
FFFFFFFFFFFFFFFFFFFFFFFFFFFFFFF000
FFFFFFFFFFFFFFFFFFFFFFFFFFFFFFF000
FFFFFFFFFFFFFFFFFFFFFFFFFFFFFFF800
FFFFFFFFFFFFFFFFFFFFFFFFFFFFFFFC00
FFFFFFFFFFFFFFFFFFFFFFFFFFFFFFFC00
FFFFFFFFFFFFFFFFFFFFFFFFFFFFFFFC00
FFFFFFFFFFFFFFFFFFFFFFFFFFFFFFFE00
FFFFFC0000000000000000FFFFFFFFFE00
FFFFFC000000000000000000FFFFFFFE00
FFFFFC0000000000000000001FFFFFFF00
FFFFFC00000000000000000007FFFFFF00
FFFFFC00000000000000000001FFFFFF00
FFFFFC00000000000000000000FFFFFF00
FFFFFC000000000000000000007FFFFF00
FFFFFC000000000000000000007FFFFF00
FFFFFC000000000000000000003FFFFF80
FFFFFC000000000000000000003FFFFF80
FFFFFC000000000000000000003FFFFF80
FFFFFC000000000000000000001FFFFF80
FFFFFC000000000000000000001FFFFF80
FFFFFC000000000000000000001FFFFF80
FFFFFC000000000000000000001FFFFF00
FFFFFC000000000000000000001FFFFF00
FFFFFC000000000000000000001FFFFF00
FFFFFC000000000000000000001FFFFF00
FFFFFC000000000000000000001FFFFF00
FFFFFC000000000000000000001FFFFF00
FFFFFC000000000000000000003FFFFE00
FFFFFC000000000000000000003FFFFE00
FFFFFC000000000000000000003FFFFE00
FFFFFC000000000000000000007FFFFC00
FFFFFC000000000000000000007FFFFC00
FFFFFC00000000000000000000FFFFF800
FFFFFC00000000000000000001FFFFF800
FFFFFC00000000000000000007FFFFF000
FFFFFC0000000000000000001FFFFFE000
FFFFFC000000000000000000FFFFFFE000
FFFFFC0007FFFFFFFFFFFFFFFFFFFFC000
FFFFFC0007FFFFFFFFFFFFFFFFFFFF8000
FFFFFC0007FFFFFFFFFFFFFFFFFFFE0000
FFFFFC0007FFFFFFFFFFFFFFFFFFFC0000
FFFFFC0007FFFFFFFFFFFFFFFFFFF80000
FFFFFC0007FFFFFFFFFFFFFFFFFFE00000
FFFFFC0007FFFFFFFFFFFFFFFFFF000000
FFFFFC0007FFFFFFFFFFFFFFFFFFC00000
FFFFFC0007FFFFFFFFFFFFFFFFFFF00000
FFFFFC0007FFFFFFFFFFFFFFFFFFFC0000
FFFFFC0007FFFFFFFFFFFFFFFFFFFF0000
FFFFFC0007FFFFFFFFFFFFFFFFFFFF8000
FFFFFC0007FFFFFFFFFFFFFFFFFFFFC000
FFFFFC0007FFFFFFFFFFFFFFFFFFFFE000
FFFFFC0007FFFFFFFFFFFFFFFFFFFFF000
FFFFFC0007FFFFFFFFFFFFFFFFFFFFF800
FFFFFC0007FFFFFFFFFFFFFFFFFFFFFC00
FFFFFC0007FFFFFFFFFFFFFFFFFFFFFC00
FFFFFC000000000000000000FFFFFFFE00
FFFFFC0000000000000000000FFFFFFE00
FFFFFC00000000000000000003FFFFFF00
FFFFFC00000000000000000000FFFFFF00
FFFFFC000000000000000000007FFFFF80
FFFFFC000000000000000000003FFFFF80
FFFFFC000000000000000000001FFFFF80
FFFFFC000000000000000000001FFFFFC0
FFFFFC000000000000000000000FFFFFC0
FFFFFC000000000000000000000FFFFFC0
FFFFFC0000000000000000000007FFFFC0
FFFFFC0000000000000000000007FFFFC0
FFFFFC0000000000000000000007FFFFE0
FFFFFC0000000000000000000007FFFFE0
FFFFFC0000000000000000000007FFFFE0
FFFFFC0000000000000000000007FFFFE0
FFFFFC0000000000000000000007FFFFE0
FFFFFC0000000000000000000007FFFFE0
FFFFFC0000000000000000000007FFFFE0
FFFFFC0000000000000000000007FFFFE0
FFFFFC0000000000000000000007FFFFE0
FFFFFC000000000000000000000FFFFFC0
FFFFFC000000000000000000000FFFFFC0
FFFFFC000000000000000000001FFFFFC0
FFFFFC000000000000000000003FFFFFC0
FFFFFC000000000000000000007FFFFFC0
FFFFFC00000000000000000000FFFFFFC0
FFFFFC00000000000000000001FFFFFF80
FFFFFC00000000000000000007FFFFFF80
FFFFFC0000000000000000001FFFFFFF80
FFFFFC000000000000000001FFFFFFFF00
FFFFFC0000000000000000FFFFFFFFFF00
FFFFFFFFFFFFFFFFFFFFFFFFFFFFFFFF00
FFFFFFFFFFFFFFFFFFFFFFFFFFFFFFFE00
FFFFFFFFFFFFFFFFFFFFFFFFFFFFFFFE00
FFFFFFFFFFFFFFFFFFFFFFFFFFFFFFFC00
FFFFFFFFFFFFFFFFFFFFFFFFFFFFFFF800
FFFFFFFFFFFFFFFFFFFFFFFFFFFFFFF800
FFFFFFFFFFFFFFFFFFFFFFFFFFFFFFF000
FFFFFFFFFFFFFFFFFFFFFFFFFFFFFFE000
FFFFFFFFFFFFFFFFFFFFFFFFFFFFFFC000
FFFFFFFFFFFFFFFFFFFFFFFFFFFFFFC000
FFFFFFFFFFFFFFFFFFFFFFFFFFFFFF8000
FFFFFFFFFFFFFFFFFFFFFFFFFFFFFF0000
FFFFFFFFFFFFFFFFFFFFFFFFFFFFFC0000
FFFFFFFFFFFFFFFFFFFFFFFFFFFFF80000
FFFFFFFFFFFFFFFFFFFFFFFFFFFFF00000
FFFFFFFFFFFFFFFFFFFFFFFFFFFFC00000
FFFFFFFFFFFFFFFFFFFFFFFFFFFF000000
FFFFFFFFFFFFFFFFFFFFFFFFFFFC000000
FFFFFFFFFFFFFFFFFFFFFFFFFFF0000000
FFFFFFFFFFFFFFFFFFFFFFFFFF00000000
FFFFFFFFFFFFFFFFFFFFFFFFE000000000
ENDCHAR
STARTCHAR C
ENCODING 67
SWIDTH 829 0
DWIDTH 138 0
BBX 125 122 7 0
BITMAP
0000000000001FFFFFFFFFFFFFFFFFF8
000000000007FFFFFFFFFFFFFFFFFFF8
00000000007FFFFFFFFFFFFFFFFFFFF8
0000000003FFFFFFFFFFFFFFFFFFFFF8
000000001FFFFFFFFFFFFFFFFFFFFFF8
000000007FFFFFFFFFFFFFFFFFFFFFF8
00000001FFFFFFFFFFFFFFFFFFFFFFF8
00000007FFFFFFFFFFFFFFFFFFFFFFF8
0000001FFFFFFFFFFFFFFFFFFFFFFFF8
0000007FFFFFFFFFFFFFFFFFFFFFFFF8
000000FFFFFFFFFFFFFFFFFFFFFFFFF8
000003FFFFFFFFFFFFFFFFFFFFFFFFF8
000007FFFFFFFFFFFFFFFFFFFFFFFFF8
00000FFFFFFFFFFFFFFFFFFFFFFFFFF8
00001FFFFFFFFFFFFFFFFFFFFFFFFFF8
00003FFFFFFFFFFFFFFFFFFFFFFFFFF8
00007FFFFFFFFFFFFFFFFFFFFFFFFFF8
0000FFFFFFFFFFFFFFFFFFFFFFFFFFF8
0001FFFFFFFFFFFFFFFFFFFFFFFFFFF8
0003FFFFFFFFFFFFFFFFFFFFFFFFFFF8
0007FFFFFFFFFFFFFFFFFFFFFFFFFFF8
000FFFFFFFFFFE000000000000000000
001FFFFFFFFF80000000000000000000
001FFFFFFFFC00000000000000000000
003FFFFFFFE000000000000000000000
007FFFFFFF8000000000000000000000
007FFFFFFE0000000000000000000000
00FFFFFFFC0000000000000000000000
00FFFFFFF00000000000000000000000
01FFFFFFE00000000000000000000000
01FFFFFFC00000000000000000000000
03FFFFFF800000000000000000000000
03FFFFFF000000000000000000000000
07FFFFFE000000000000000000000000
07FFFFFC000000000000000000000000
0FFFFFF8000000000000000000000000
0FFFFFF0000000000000000000000000
0FFFFFF0000000000000000000000000
1FFFFFE0000000000000000000000000
1FFFFFE0000000000000000000000000
1FFFFFC0000000000000000000000000
3FFFFFC0000000000000000000000000
3FFFFF80000000000000000000000000
3FFFFF80000000000000000000000000
3FFFFF00000000000000000000000000
7FFFFF00000000000000000000000000
7FFFFE00000000000000000000000000
7FFFFE00000000000000000000000000
7FFFFE00000000000000000000000000
7FFFFE00000000000000000000000000
7FFFFC00000000000000000000000000
FFFFFC00000000000000000000000000
FFFFFC00000000000000000000000000
FFFFFC00000000000000000000000000
FFFFFC00000000000000000000000000
FFFFF800000000000000000000000000
FFFFF800000000000000000000000000
FFFFF800000000000000000000000000
FFFFF800000000000000000000000000
FFFFF800000000000000000000000000
FFFFF800000000000000000000000000
FFFFF800000000000000000000000000
FFFFF800000000000000000000000000
FFFFF800000000000000000000000000
FFFFF800000000000000000000000000
FFFFF800000000000000000000000000
FFFFFC00000000000000000000000000
FFFFFC00000000000000000000000000
FFFFFC00000000000000000000000000
7FFFFC00000000000000000000000000
7FFFFC00000000000000000000000000
7FFFFC00000000000000000000000000
7FFFFE00000000000000000000000000
7FFFFE00000000000000000000000000
7FFFFE00000000000000000000000000
3FFFFF00000000000000000000000000
3FFFFF00000000000000000000000000
3FFFFF00000000000000000000000000
3FFFFF80000000000000000000000000
1FFFFF80000000000000000000000000
1FFFFFC0000000000000000000000000
1FFFFFC0000000000000000000000000
0FFFFFE0000000000000000000000000
0FFFFFE0000000000000000000000000
0FFFFFF0000000000000000000000000
07FFFFF8000000000000000000000000
07FFFFF8000000000000000000000000
03FFFFFC000000000000000000000000
03FFFFFE000000000000000000000000
01FFFFFF000000000000000000000000
01FFFFFF800000000000000000000000
00FFFFFFC00000000000000000000000
00FFFFFFE00000000000000000000000
007FFFFFF80000000000000000000000
007FFFFFFC0000000000000000000000
003FFFFFFF0000000000000000000000
001FFFFFFF8000000000000000000000
001FFFFFFFE000000000000000000000
000FFFFFFFFC00000000000000000000
0007FFFFFFFF80000000000000000000
0003FFFFFFFFFE000000000000000000
0003FFFFFFFFFFFFFFFFFFFFFFFFFFF8
0001FFFFFFFFFFFFFFFFFFFFFFFFFFF8
0000FFFFFFFFFFFFFFFFFFFFFFFFFFF8
00007FFFFFFFFFFFFFFFFFFFFFFFFFF8
00003FFFFFFFFFFFFFFFFFFFFFFFFFF8
00001FFFFFFFFFFFFFFFFFFFFFFFFFF8
00000FFFFFFFFFFFFFFFFFFFFFFFFFF8
000007FFFFFFFFFFFFFFFFFFFFFFFFF8
000001FFFFFFFFFFFFFFFFFFFFFFFFF8
000000FFFFFFFFFFFFFFFFFFFFFFFFF8
0000007FFFFFFFFFFFFFFFFFFFFFFFF8
0000001FFFFFFFFFFFFFFFFFFFFFFFF8
0000000FFFFFFFFFFFFFFFFFFFFFFFF8
00000003FFFFFFFFFFFFFFFFFFFFFFF8
00000000FFFFFFFFFFFFFFFFFFFFFFF8
000000003FFFFFFFFFFFFFFFFFFFFFF8
000000000FFFFFFFFFFFFFFFFFFFFFF8
0000000001FFFFFFFFFFFFFFFFFFFFF8
00000000003FFFFFFFFFFFFFFFFFFFF8
000000000007FFFFFFFFFFFFFFFFFFF8
0000000000001FFFFFFFFFFFFFFFFFF8
ENDCHAR
STARTCHAR D
ENCODING 68
SWIDTH 879 0
DWIDTH 147 0
BBX 129 122 11 0
BITMAP
FFFFFFFFFFFFFFFFFFFC00000000000000
FFFFFFFFFFFFFFFFFFFFF0000000000000
FFFFFFFFFFFFFFFFFFFFFF000000000000
FFFFFFFFFFFFFFFFFFFFFFE00000000000
FFFFFFFFFFFFFFFFFFFFFFFC0000000000
FFFFFFFFFFFFFFFFFFFFFFFF0000000000
FFFFFFFFFFFFFFFFFFFFFFFFC000000000
FFFFFFFFFFFFFFFFFFFFFFFFF000000000
FFFFFFFFFFFFFFFFFFFFFFFFFC00000000
FFFFFFFFFFFFFFFFFFFFFFFFFE00000000
FFFFFFFFFFFFFFFFFFFFFFFFFF80000000
FFFFFFFFFFFFFFFFFFFFFFFFFFC0000000
FFFFFFFFFFFFFFFFFFFFFFFFFFF0000000
FFFFFFFFFFFFFFFFFFFFFFFFFFF8000000
FFFFFFFFFFFFFFFFFFFFFFFFFFFC000000
FFFFFFFFFFFFFFFFFFFFFFFFFFFE000000
FFFFFFFFFFFFFFFFFFFFFFFFFFFF000000
FFFFFFFFFFFFFFFFFFFFFFFFFFFF800000
FFFFFFFFFFFFFFFFFFFFFFFFFFFFC00000
FFFFFFFFFFFFFFFFFFFFFFFFFFFFE00000
FFFFFFFFFFFFFFFFFFFFFFFFFFFFF00000
FFFFF80000000000003FFFFFFFFFF80000
FFFFF800000000000000FFFFFFFFF80000
FFFFF8000000000000001FFFFFFFFC0000
FFFFF80000000000000007FFFFFFFE0000
FFFFF80000000000000000FFFFFFFE0000
FFFFF800000000000000007FFFFFFF0000
FFFFF800000000000000001FFFFFFF8000
FFFFF800000000000000000FFFFFFF8000
FFFFF8000000000000000003FFFFFFC000
FFFFF8000000000000000001FFFFFFC000
FFFFF8000000000000000000FFFFFFE000
FFFFF80000000000000000007FFFFFE000
FFFFF80000000000000000003FFFFFF000
FFFFF80000000000000000001FFFFFF000
FFFFF80000000000000000000FFFFFF800
FFFFF80000000000000000000FFFFFF800
FFFFF800000000000000000007FFFFF800
FFFFF800000000000000000003FFFFFC00
FFFFF800000000000000000003FFFFFC00
FFFFF800000000000000000001FFFFFC00
FFFFF800000000000000000001FFFFFE00
FFFFF800000000000000000000FFFFFE00
FFFFF800000000000000000000FFFFFE00
FFFFF8000000000000000000007FFFFE00
FFFFF8000000000000000000007FFFFF00
FFFFF8000000000000000000007FFFFF00
FFFFF8000000000000000000003FFFFF00
FFFFF8000000000000000000003FFFFF00
FFFFF8000000000000000000003FFFFF00
FFFFF8000000000000000000001FFFFF00
FFFFF8000000000000000000001FFFFF00
FFFFF8000000000000000000001FFFFF80
FFFFF8000000000000000000001FFFFF80
FFFFF8000000000000000000001FFFFF80
FFFFF8000000000000000000001FFFFF80
FFFFF8000000000000000000000FFFFF80
FFFFF8000000000000000000000FFFFF80
FFFFF8000000000000000000000FFFFF80
FFFFF8000000000000000000000FFFFF80
FFFFF8000000000000000000000FFFFF80
FFFFF8000000000000000000000FFFFF80
FFFFF8000000000000000000000FFFFF80
FFFFF8000000000000000000000FFFFF80
FFFFF8000000000000000000000FFFFF80
FFFFF8000000000000000000001FFFFF80
FFFFF8000000000000000000001FFFFF80
FFFFF8000000000000000000001FFFFF80
FFFFF8000000000000000000001FFFFF00
FFFFF8000000000000000000001FFFFF00
FFFFF8000000000000000000001FFFFF00
FFFFF8000000000000000000003FFFFF00
FFFFF8000000000000000000003FFFFF00
FFFFF8000000000000000000003FFFFF00
FFFFF8000000000000000000003FFFFE00
FFFFF8000000000000000000007FFFFE00
FFFFF8000000000000000000007FFFFE00
FFFFF8000000000000000000007FFFFE00
FFFFF800000000000000000000FFFFFC00
FFFFF800000000000000000000FFFFFC00
FFFFF800000000000000000001FFFFFC00
FFFFF800000000000000000001FFFFFC00
FFFFF800000000000000000003FFFFF800
FFFFF800000000000000000003FFFFF800
FFFFF800000000000000000007FFFFF000
FFFFF80000000000000000000FFFFFF000
FFFFF80000000000000000001FFFFFF000
FFFFF80000000000000000001FFFFFE000
FFFFF80000000000000000003FFFFFE000
FFFFF80000000000000000007FFFFFC000
FFFFF8000000000000000000FFFFFFC000
FFFFF8000000000000000001FFFFFF8000
FFFFF8000000000000000003FFFFFF8000
FFFFF800000000000000000FFFFFFF0000
FFFFF800000000000000001FFFFFFF0000
FFFFF800000000000000007FFFFFFE0000
FFFFF80000000000000001FFFFFFFC0000
FFFFF80000000000000007FFFFFFFC0000
FFFFF8000000000000001FFFFFFFF80000
FFFFF800000000000000FFFFFFFFF00000
FFFFF80000000000003FFFFFFFFFE00000
FFFFFFFFFFFFFFFFFFFFFFFFFFFFE00000
FFFFFFFFFFFFFFFFFFFFFFFFFFFFC00000
FFFFFFFFFFFFFFFFFFFFFFFFFFFF800000
FFFFFFFFFFFFFFFFFFFFFFFFFFFF000000
FFFFFFFFFFFFFFFFFFFFFFFFFFFE000000
FFFFFFFFFFFFFFFFFFFFFFFFFFFC000000
FFFFFFFFFFFFFFFFFFFFFFFFFFF8000000
FFFFFFFFFFFFFFFFFFFFFFFFFFF0000000
FFFFFFFFFFFFFFFFFFFFFFFFFFC0000000
FFFFFFFFFFFFFFFFFFFFFFFFFF80000000
FFFFFFFFFFFFFFFFFFFFFFFFFF00000000
FFFFFFFFFFFFFFFFFFFFFFFFFC00000000
FFFFFFFFFFFFFFFFFFFFFFFFF800000000
FFFFFFFFFFFFFFFFFFFFFFFFE000000000
FFFFFFFFFFFFFFFFFFFFFFFF8000000000
FFFFFFFFFFFFFFFFFFFFFFFE0000000000
FFFFFFFFFFFFFFFFFFFFFFF80000000000
FFFFFFFFFFFFFFFFFFFFFFC00000000000
FFFFFFFFFFFFFFFFFFFFFE000000000000
FFFFFFFFFFFFFFFFFFFFF0000000000000
FFFFFFFFFFFFFFFFFFFC00000000000000
ENDCHAR
STARTCHAR E
ENCODING 69
SWIDTH 759 0
DWIDTH 127 0
BBX 108 122 11 0
BITMAP
FFFFFFFFFFFFFFFFFFFFFFFFFFF0
FFFFFFFFFFFFFFFFFFFFFFFFFFF0
FFFFFFFFFFFFFFFFFFFFFFFFFFF0
FFFFFFFFFFFFFFFFFFFFFFFFFFF0
FFFFFFFFFFFFFFFFFFFFFFFFFFF0
FFFFFFFFFFFFFFFFFFFFFFFFFFF0
FFFFFFFFFFFFFFFFFFFFFFFFFFF0
FFFFFFFFFFFFFFFFFFFFFFFFFFF0
FFFFFFFFFFFFFFFFFFFFFFFFFFF0
FFFFFFFFFFFFFFFFFFFFFFFFFFF0
FFFFFFFFFFFFFFFFFFFFFFFFFFF0
FFFFFFFFFFFFFFFFFFFFFFFFFFF0
FFFFFFFFFFFFFFFFFFFFFFFFFFF0
FFFFFFFFFFFFFFFFFFFFFFFFFFF0
FFFFFFFFFFFFFFFFFFFFFFFFFFF0
FFFFFFFFFFFFFFFFFFFFFFFFFFF0
FFFFFFFFFFFFFFFFFFFFFFFFFFF0
FFFFFFFFFFFFFFFFFFFFFFFFFFF0
FFFFFFFFFFFFFFFFFFFFFFFFFFF0
FFFFFFFFFFFFFFFFFFFFFFFFFFF0
FFFFFFFFFFFFFFFFFFFFFFFFFFF0
FFFFF80000000000000000000000
FFFFF80000000000000000000000
FFFFF80000000000000000000000
FFFFF80000000000000000000000
FFFFF80000000000000000000000
FFFFF80000000000000000000000
FFFFF80000000000000000000000
FFFFF80000000000000000000000
FFFFF80000000000000000000000
FFFFF80000000000000000000000
FFFFF80000000000000000000000
FFFFF80000000000000000000000
FFFFF80000000000000000000000
FFFFF80000000000000000000000
FFFFF80000000000000000000000
FFFFF80000000000000000000000
FFFFF80000000000000000000000
FFFFF80000000000000000000000
FFFFF80000000000000000000000
FFFFF80000000000000000000000
FFFFF80000000000000000000000
FFFFF80000000000000000000000
FFFFF80000000000000000000000
FFFFF80000000000000000000000
FFFFF80000000000000000000000
FFFFF80000000000000000000000
FFFFF80000000000000000000000
FFFFF80000000000000000000000
FFFFF80000000000000000000000
FFFFF80000000000000000000000
FFFFF8000FFFFFFFFFFFFFFFFE00
FFFFF8000FFFFFFFFFFFFFFFFE00
FFFFF8000FFFFFFFFFFFFFFFFE00
FFFFF8000FFFFFFFFFFFFFFFFE00
FFFFF8000FFFFFFFFFFFFFFFFE00
FFFFF8000FFFFFFFFFFFFFFFFE00
FFFFF8000FFFFFFFFFFFFFFFFE00
FFFFF8000FFFFFFFFFFFFFFFFE00
FFFFF8000FFFFFFFFFFFFFFFFE00
FFFFF8000FFFFFFFFFFFFFFFFE00
FFFFF8000FFFFFFFFFFFFFFFFE00
FFFFF8000FFFFFFFFFFFFFFFFE00
FFFFF8000FFFFFFFFFFFFFFFFE00
FFFFF8000FFFFFFFFFFFFFFFFE00
FFFFF8000FFFFFFFFFFFFFFFFE00
FFFFF8000FFFFFFFFFFFFFFFFE00
FFFFF8000FFFFFFFFFFFFFFFFE00
FFFFF8000FFFFFFFFFFFFFFFFE00
FFFFF80000000000000000000000
FFFFF80000000000000000000000
FFFFF80000000000000000000000
FFFFF80000000000000000000000
FFFFF80000000000000000000000
FFFFF80000000000000000000000
FFFFF80000000000000000000000
FFFFF80000000000000000000000
FFFFF80000000000000000000000
FFFFF80000000000000000000000
FFFFF80000000000000000000000
FFFFF80000000000000000000000
FFFFF80000000000000000000000
FFFFF80000000000000000000000
FFFFF80000000000000000000000
FFFFF80000000000000000000000
FFFFF80000000000000000000000
FFFFF80000000000000000000000
FFFFF80000000000000000000000
FFFFF80000000000000000000000
FFFFF80000000000000000000000
FFFFF80000000000000000000000
FFFFF80000000000000000000000
FFFFF80000000000000000000000
FFFFF80000000000000000000000
FFFFF80000000000000000000000
FFFFF80000000000000000000000
FFFFF80000000000000000000000
FFFFF80000000000000000000000
FFFFF80000000000000000000000
FFFFF80000000000000000000000
FFFFF80000000000000000000000
FFFFFFFFFFFFFFFFFFFFFFFFFFF0
FFFFFFFFFFFFFFFFFFFFFFFFFFF0
FFFFFFFFFFFFFFFFFFFFFFFFFFF0
FFFFFFFFFFFFFFFFFFFFFFFFFFF0
FFFFFFFFFFFFFFFFFFFFFFFFFFF0
FFFFFFFFFFFFFFFFFFFFFFFFFFF0
FFFFFFFFFFFFFFFFFFFFFFFFFFF0
FFFFFFFFFFFFFFFFFFFFFFFFFFF0
FFFFFFFFFFFFFFFFFFFFFFFFFFF0
FFFFFFFFFFFFFFFFFFFFFFFFFFF0
FFFFFFFFFFFFFFFFFFFFFFFFFFF0
FFFFFFFFFFFFFFFFFFFFFFFFFFF0
FFFFFFFFFFFFFFFFFFFFFFFFFFF0
FFFFFFFFFFFFFFFFFFFFFFFFFFF0
FFFFFFFFFFFFFFFFFFFFFFFFFFF0
FFFFFFFFFFFFFFFFFFFFFFFFFFF0
FFFFFFFFFFFFFFFFFFFFFFFFFFF0
FFFFFFFFFFFFFFFFFFFFFFFFFFF0
FFFFFFFFFFFFFFFFFFFFFFFFFFF0
FFFFFFFFFFFFFFFFFFFFFFFFFFF0
FFFFFFFFFFFFFFFFFFFFFFFFFFF0
ENDCHAR
STARTCHAR F
ENCODING 70
SWIDTH 705 0
DWIDTH 118 0
BBX 103 122 11 0
BITMAP
FFFFFFFFFFFFFFFFFFFFFFFFFE
FFFFFFFFFFFFFFFFFFFFFFFFFE
FFFFFFFFFFFFFFFFFFFFFFFFFE
FFFFFFFFFFFFFFFFFFFFFFFFFE
FFFFFFFFFFFFFFFFFFFFFFFFFE
FFFFFFFFFFFFFFFFFFFFFFFFFE
FFFFFFFFFFFFFFFFFFFFFFFFFE
FFFFFFFFFFFFFFFFFFFFFFFFFE
FFFFFFFFFFFFFFFFFFFFFFFFFE
FFFFFFFFFFFFFFFFFFFFFFFFFE
FFFFFFFFFFFFFFFFFFFFFFFFFE
FFFFFFFFFFFFFFFFFFFFFFFFFE
FFFFFFFFFFFFFFFFFFFFFFFFFE
FFFFFFFFFFFFFFFFFFFFFFFFFE
FFFFFFFFFFFFFFFFFFFFFFFFFE
FFFFFFFFFFFFFFFFFFFFFFFFFE
FFFFFFFFFFFFFFFFFFFFFFFFFE
FFFFFFFFFFFFFFFFFFFFFFFFFE
FFFFFFFFFFFFFFFFFFFFFFFFFE
FFFFFFFFFFFFFFFFFFFFFFFFFE
FFFFFFFFFFFFFFFFFFFFFFFFFE
FFFFF800000000000000000000
FFFFF800000000000000000000
FFFFF800000000000000000000
FFFFF800000000000000000000
FFFFF800000000000000000000
FFFFF800000000000000000000
FFFFF800000000000000000000
FFFFF800000000000000000000
FFFFF800000000000000000000
FFFFF800000000000000000000
FFFFF800000000000000000000
FFFFF800000000000000000000
FFFFF800000000000000000000
FFFFF800000000000000000000
FFFFF800000000000000000000
FFFFF800000000000000000000
FFFFF800000000000000000000
FFFFF800000000000000000000
FFFFF800000000000000000000
FFFFF800000000000000000000
FFFFF800000000000000000000
FFFFF800000000000000000000
FFFFF800000000000000000000
FFFFF800000000000000000000
FFFFF800000000000000000000
FFFFF800000000000000000000
FFFFF800000000000000000000
FFFFF800000000000000000000
FFFFF800000000000000000000
FFFFF800000000000000000000
FFFFF800000000000000000000
FFFFF800000000000000000000
FFFFF8000FFFFFFFFFFFFFFFC0
FFFFF8000FFFFFFFFFFFFFFFC0
FFFFF8000FFFFFFFFFFFFFFFC0
FFFFF8000FFFFFFFFFFFFFFFC0
FFFFF8000FFFFFFFFFFFFFFFC0
FFFFF8000FFFFFFFFFFFFFFFC0
FFFFF8000FFFFFFFFFFFFFFFC0
FFFFF8000FFFFFFFFFFFFFFFC0
FFFFF8000FFFFFFFFFFFFFFFC0
FFFFF8000FFFFFFFFFFFFFFFC0
FFFFF8000FFFFFFFFFFFFFFFC0
FFFFF8000FFFFFFFFFFFFFFFC0
FFFFF8000FFFFFFFFFFFFFFFC0
FFFFF8000FFFFFFFFFFFFFFFC0
FFFFF8000FFFFFFFFFFFFFFFC0
FFFFF8000FFFFFFFFFFFFFFFC0
FFFFF8000FFFFFFFFFFFFFFFC0
FFFFF8000FFFFFFFFFFFFFFFC0
FFFFF8000FFFFFFFFFFFFFFFC0
FFFFF800000000000000000000
FFFFF800000000000000000000
FFFFF800000000000000000000
FFFFF800000000000000000000
FFFFF800000000000000000000
FFFFF800000000000000000000
FFFFF800000000000000000000
FFFFF800000000000000000000
FFFFF800000000000000000000
FFFFF800000000000000000000
FFFFF800000000000000000000
FFFFF800000000000000000000
FFFFF800000000000000000000
FFFFF800000000000000000000
FFFFF800000000000000000000
FFFFF800000000000000000000
FFFFF800000000000000000000
FFFFF800000000000000000000
FFFFF800000000000000000000
FFFFF800000000000000000000
FFFFF800000000000000000000
FFFFF800000000000000000000
FFFFF800000000000000000000
FFFFF800000000000000000000
FFFFF800000000000000000000
FFFFF800000000000000000000
FFFFF800000000000000000000
FFFFF800000000000000000000
FFFFF800000000000000000000
FFFFF800000000000000000000
FFFFF800000000000000000000
FFFFF800000000000000000000
FFFFF800000000000000000000
FFFFF800000000000000000000
FFFFF800000000000000000000
FFFFF800000000000000000000
FFFFF800000000000000000000
FFFFF800000000000000000000
FFFFF800000000000000000000
FFFFF800000000000000000000
FFFFF800000000000000000000
FFFFF800000000000000000000
FFFFF800000000000000000000
FFFFF800000000000000000000
FFFFF800000000000000000000
FFFFF800000000000000000000
FFFFF800000000000000000000
FFFFF800000000000000000000
FFFFF800000000000000000000
FFFFF800000000000000000000
ENDCHAR
STARTCHAR G
ENCODING 71
SWIDTH 888 0
DWIDTH 148 0
BBX 132 122 7 0
BITMAP
0000000000001FFFFFFFFFFFFFFFFFF800
000000000007FFFFFFFFFFFFFFFFFFF800
00000000007FFFFFFFFFFFFFFFFFFFF800
0000000003FFFFFFFFFFFFFFFFFFFFF800
000000001FFFFFFFFFFFFFFFFFFFFFF800
000000007FFFFFFFFFFFFFFFFFFFFFF800
00000001FFFFFFFFFFFFFFFFFFFFFFF800
00000007FFFFFFFFFFFFFFFFFFFFFFF800
0000001FFFFFFFFFFFFFFFFFFFFFFFF800
0000007FFFFFFFFFFFFFFFFFFFFFFFF800
000000FFFFFFFFFFFFFFFFFFFFFFFFF800
000003FFFFFFFFFFFFFFFFFFFFFFFFF800
000007FFFFFFFFFFFFFFFFFFFFFFFFF800
00000FFFFFFFFFFFFFFFFFFFFFFFFFF800
00001FFFFFFFFFFFFFFFFFFFFFFFFFF800
00003FFFFFFFFFFFFFFFFFFFFFFFFFF800
00007FFFFFFFFFFFFFFFFFFFFFFFFFF800
0000FFFFFFFFFFFFFFFFFFFFFFFFFFF800
0001FFFFFFFFFFFFFFFFFFFFFFFFFFF800
0003FFFFFFFFFFFFFFFFFFFFFFFFFFF800
0007FFFFFFFFFFFFFFFFFFFFFFFFFFF800
000FFFFFFFFFFE00000000000000000000
001FFFFFFFFF8000000000000000000000
001FFFFFFFFC0000000000000000000000
003FFFFFFFE00000000000000000000000
007FFFFFFF800000000000000000000000
007FFFFFFE000000000000000000000000
00FFFFFFFC000000000000000000000000
00FFFFFFF0000000000000000000000000
01FFFFFFE0000000000000000000000000
01FFFFFFC0000000000000000000000000
03FFFFFF80000000000000000000000000
03FFFFFF00000000000000000000000000
07FFFFFE00000000000000000000000000
07FFFFFC00000000000000000000000000
0FFFFFF800000000000000000000000000
0FFFFFF000000000000000000000000000
0FFFFFF000000000000000000000000000
1FFFFFE000000000000000000000000000
1FFFFFE000000000000000000000000000
1FFFFFC000000000000000000000000000
3FFFFFC000000000000000000000000000
3FFFFF8000000000000000000000000000
3FFFFF8000000000000000000000000000
3FFFFF0000000000000000000000000000
7FFFFF0000000000000000000000000000
7FFFFE0000000000000000000000000000
7FFFFE0000000000000000000000000000
7FFFFE0000000000000000000000000000
7FFFFE0000000000000000000000000000
7FFFFC0000000000000000000000000000
FFFFFC00000000FFFFFFFFFFFFFFFFFFF0
FFFFFC00000000FFFFFFFFFFFFFFFFFFF0
FFFFFC00000000FFFFFFFFFFFFFFFFFFF0
FFFFFC00000000FFFFFFFFFFFFFFFFFFF0
FFFFF800000000FFFFFFFFFFFFFFFFFFF0
FFFFF800000000FFFFFFFFFFFFFFFFFFF0
FFFFF800000000FFFFFFFFFFFFFFFFFFF0
FFFFF800000000FFFFFFFFFFFFFFFFFFF0
FFFFF800000000FFFFFFFFFFFFFFFFFFF0
FFFFF800000000FFFFFFFFFFFFFFFFFFF0
FFFFF800000000FFFFFFFFFFFFFFFFFFF0
FFFFF800000000FFFFFFFFFFFFFFFFFFF0
FFFFF800000000FFFFFFFFFFFFFFFFFFF0
FFFFF800000000FFFFFFFFFFFFFFFFFFF0
FFFFF800000000FFFFFFFFFFFFFFFFFFF0
FFFFFC00000000FFFFFFFFFFFFFFFFFFF0
FFFFFC00000000FFFFFFFFFFFFFFFFFFF0
FFFFFC00000000FFFFFFFFFFFFFFFFFFF0
7FFFFC0000000000000000000001FFFFF0
7FFFFC0000000000000000000001FFFFF0
7FFFFC0000000000000000000001FFFFF0
7FFFFE0000000000000000000001FFFFF0
7FFFFE0000000000000000000001FFFFF0
7FFFFE0000000000000000000001FFFFF0
3FFFFF0000000000000000000001FFFFF0
3FFFFF0000000000000000000001FFFFF0
3FFFFF0000000000000000000001FFFFF0
3FFFFF8000000000000000000001FFFFF0
1FFFFF8000000000000000000001FFFFF0
1FFFFFC000000000000000000001FFFFF0
1FFFFFC000000000000000000001FFFFF0
0FFFFFE000000000000000000001FFFFF0
0FFFFFE000000000000000000001FFFFF0
0FFFFFF000000000000000000001FFFFF0
07FFFFF800000000000000000001FFFFF0
07FFFFF800000000000000000001FFFFF0
03FFFFFC00000000000000000001FFFFF0
03FFFFFE00000000000000000001FFFFF0
01FFFFFF00000000000000000001FFFFF0
01FFFFFF80000000000000000001FFFFF0
00FFFFFFC0000000000000000001FFFFF0
00FFFFFFE0000000000000000001FFFFF0
007FFFFFF8000000000000000001FFFFF0
007FFFFFFC000000000000000001FFFFF0
003FFFFFFF000000000000000001FFFFF0
001FFFFFFF800000000000000001FFFFF0
001FFFFFFFE00000000000000001FFFFF0
000FFFFFFFFC0000000000000001FFFFF0
0007FFFFFFFF8000000000000001FFFFF0
0003FFFFFFFFFE00000000000001FFFFF0
0003FFFFFFFFFFFFFFFFFFFFFFFFFFFFF0
0001FFFFFFFFFFFFFFFFFFFFFFFFFFFFF0
0000FFFFFFFFFFFFFFFFFFFFFFFFFFFFF0
00007FFFFFFFFFFFFFFFFFFFFFFFFFFFF0
00003FFFFFFFFFFFFFFFFFFFFFFFFFFFF0
00001FFFFFFFFFFFFFFFFFFFFFFFFFFFF0
00000FFFFFFFFFFFFFFFFFFFFFFFFFFFF0
000007FFFFFFFFFFFFFFFFFFFFFFFFFFF0
000001FFFFFFFFFFFFFFFFFFFFFFFFFFF0
000000FFFFFFFFFFFFFFFFFFFFFFFFFFF0
0000007FFFFFFFFFFFFFFFFFFFFFFFFFF0
0000001FFFFFFFFFFFFFFFFFFFFFFFFFF0
0000000FFFFFFFFFFFFFFFFFFFFFFFFFF0
00000003FFFFFFFFFFFFFFFFFFFFFFFFF0
00000000FFFFFFFFFFFFFFFFFFFFFFFFF0
000000003FFFFFFFFFFFFFFFFFFFFFFFF0
000000000FFFFFFFFFFFFFFFFFFFFFFFF0
0000000001FFFFFFFFFFFFFFFFFFFFFFF0
00000000003FFFFFFFFFFFFFFFFFFFFFF0
000000000007FFFFFFFFFFFFFFFFFFFFF0
0000000000001FFFFFFFFFFFFFFFFFFFF0
ENDCHAR
STARTCHAR H
ENCODING 72
SWIDTH 838 0
DWIDTH 140 0
BBX 118 122 11 0
BITMAP
FFFFF80000000000000000007FFFFC
FFFFF80000000000000000007FFFFC
FFFFF80000000000000000007FFFFC
FFFFF80000000000000000007FFFFC
FFFFF80000000000000000007FFFFC
FFFFF80000000000000000007FFFFC
FFFFF80000000000000000007FFFFC
FFFFF80000000000000000007FFFFC
FFFFF80000000000000000007FFFFC
FFFFF80000000000000000007FFFFC
FFFFF80000000000000000007FFFFC
FFFFF80000000000000000007FFFFC
FFFFF80000000000000000007FFFFC
FFFFF80000000000000000007FFFFC
FFFFF80000000000000000007FFFFC
FFFFF80000000000000000007FFFFC
FFFFF80000000000000000007FFFFC
FFFFF80000000000000000007FFFFC
FFFFF80000000000000000007FFFFC
FFFFF80000000000000000007FFFFC
FFFFF80000000000000000007FFFFC
FFFFF80000000000000000007FFFFC
FFFFF80000000000000000007FFFFC
FFFFF80000000000000000007FFFFC
FFFFF80000000000000000007FFFFC
FFFFF80000000000000000007FFFFC
FFFFF80000000000000000007FFFFC
FFFFF80000000000000000007FFFFC
FFFFF80000000000000000007FFFFC
FFFFF80000000000000000007FFFFC
FFFFF80000000000000000007FFFFC
FFFFF80000000000000000007FFFFC
FFFFF80000000000000000007FFFFC
FFFFF80000000000000000007FFFFC
FFFFF80000000000000000007FFFFC
FFFFF80000000000000000007FFFFC
FFFFF80000000000000000007FFFFC
FFFFF80000000000000000007FFFFC
FFFFF80000000000000000007FFFFC
FFFFF80000000000000000007FFFFC
FFFFF80000000000000000007FFFFC
FFFFF80000000000000000007FFFFC
FFFFF80000000000000000007FFFFC
FFFFF80000000000000000007FFFFC
FFFFF80000000000000000007FFFFC
FFFFF80000000000000000007FFFFC
FFFFF80000000000000000007FFFFC
FFFFF80000000000000000007FFFFC
FFFFF80000000000000000007FFFFC
FFFFF80000000000000000007FFFFC
FFFFF8000FFFFFFFFFFFFFFFFFFFFC
FFFFF8000FFFFFFFFFFFFFFFFFFFFC
FFFFF8000FFFFFFFFFFFFFFFFFFFFC
FFFFF8000FFFFFFFFFFFFFFFFFFFFC
FFFFF8000FFFFFFFFFFFFFFFFFFFFC
FFFFF8000FFFFFFFFFFFFFFFFFFFFC
FFFFF8000FFFFFFFFFFFFFFFFFFFFC
FFFFF8000FFFFFFFFFFFFFFFFFFFFC
FFFFF8000FFFFFFFFFFFFFFFFFFFFC
FFFFF8000FFFFFFFFFFFFFFFFFFFFC
FFFFF8000FFFFFFFFFFFFFFFFFFFFC
FFFFF8000FFFFFFFFFFFFFFFFFFFFC
FFFFF8000FFFFFFFFFFFFFFFFFFFFC
FFFFF8000FFFFFFFFFFFFFFFFFFFFC
FFFFF8000FFFFFFFFFFFFFFFFFFFFC
FFFFF8000FFFFFFFFFFFFFFFFFFFFC
FFFFF8000FFFFFFFFFFFFFFFFFFFFC
FFFFF8000FFFFFFFFFFFFFFFFFFFFC
FFFFF8000FFFFFFFFFFFFFFFFFFFFC
FFFFF80000000000000000007FFFFC
FFFFF80000000000000000007FFFFC
FFFFF80000000000000000007FFFFC
FFFFF80000000000000000007FFFFC
FFFFF80000000000000000007FFFFC
FFFFF80000000000000000007FFFFC
FFFFF80000000000000000007FFFFC
FFFFF80000000000000000007FFFFC
FFFFF80000000000000000007FFFFC
FFFFF80000000000000000007FFFFC
FFFFF80000000000000000007FFFFC
FFFFF80000000000000000007FFFFC
FFFFF80000000000000000007FFFFC
FFFFF80000000000000000007FFFFC
FFFFF80000000000000000007FFFFC
FFFFF80000000000000000007FFFFC
FFFFF80000000000000000007FFFFC
FFFFF80000000000000000007FFFFC
FFFFF80000000000000000007FFFFC
FFFFF80000000000000000007FFFFC
FFFFF80000000000000000007FFFFC
FFFFF80000000000000000007FFFFC
FFFFF80000000000000000007FFFFC
FFFFF80000000000000000007FFFFC
FFFFF80000000000000000007FFFFC
FFFFF80000000000000000007FFFFC
FFFFF80000000000000000007FFFFC
FFFFF80000000000000000007FFFFC
FFFFF80000000000000000007FFFFC
FFFFF80000000000000000007FFFFC
FFFFF80000000000000000007FFFFC
FFFFF80000000000000000007FFFFC
FFFFF80000000000000000007FFFFC
FFFFF80000000000000000007FFFFC
FFFFF80000000000000000007FFFFC
FFFFF80000000000000000007FFFFC
FFFFF80000000000000000007FFFFC
FFFFF80000000000000000007FFFFC
FFFFF80000000000000000007FFFFC
FFFFF80000000000000000007FFFFC
FFFFF80000000000000000007FFFFC
FFFFF80000000000000000007FFFFC
FFFFF80000000000000000007FFFFC
FFFFF80000000000000000007FFFFC
FFFFF80000000000000000007FFFFC
FFFFF80000000000000000007FFFFC
FFFFF80000000000000000007FFFFC
FFFFF80000000000000000007FFFFC
FFFFF80000000000000000007FFFFC
FFFFF80000000000000000007FFFFC
FFFFF80000000000000000007FFFFC
FFFFF80000000000000000007FFFFC
FFFFF80000000000000000007FFFFC
ENDCHAR
STARTCHAR I
ENCODING 73
SWIDTH 267 0
DWIDTH 45 0
BBX 21 122 12 0
BITMAP
FFFFF8
FFFFF8
FFFFF8
FFFFF8
FFFFF8
FFFFF8
FFFFF8
FFFFF8
FFFFF8
FFFFF8
FFFFF8
FFFFF8
FFFFF8
FFFFF8
FFFFF8
FFFFF8
FFFFF8
FFFFF8
FFFFF8
FFFFF8
FFFFF8
FFFFF8
FFFFF8
FFFFF8
FFFFF8
FFFFF8
FFFFF8
FFFFF8
FFFFF8
FFFFF8
FFFFF8
FFFFF8
FFFFF8
FFFFF8
FFFFF8
FFFFF8
FFFFF8
FFFFF8
FFFFF8
FFFFF8
FFFFF8
FFFFF8
FFFFF8
FFFFF8
FFFFF8
FFFFF8
FFFFF8
FFFFF8
FFFFF8
FFFFF8
FFFFF8
FFFFF8
FFFFF8
FFFFF8
FFFFF8
FFFFF8
FFFFF8
FFFFF8
FFFFF8
FFFFF8
FFFFF8
FFFFF8
FFFFF8
FFFFF8
FFFFF8
FFFFF8
FFFFF8
FFFFF8
FFFFF8
FFFFF8
FFFFF8
FFFFF8
FFFFF8
FFFFF8
FFFFF8
FFFFF8
FFFFF8
FFFFF8
FFFFF8
FFFFF8
FFFFF8
FFFFF8
FFFFF8
FFFFF8
FFFFF8
FFFFF8
FFFFF8
FFFFF8
FFFFF8
FFFFF8
FFFFF8
FFFFF8
FFFFF8
FFFFF8
FFFFF8
FFFFF8
FFFFF8
FFFFF8
FFFFF8
FFFFF8
FFFFF8
FFFFF8
FFFFF8
FFFFF8
FFFFF8
FFFFF8
FFFFF8
FFFFF8
FFFFF8
FFFFF8
FFFFF8
FFFFF8
FFFFF8
FFFFF8
FFFFF8
FFFFF8
FFFFF8
FFFFF8
FFFFF8
FFFFF8
FFFFF8
FFFFF8
ENDCHAR
STARTCHAR J
ENCODING 74
SWIDTH 708 0
DWIDTH 118 0
BBX 106 122 4 0
BITMAP
000000000000000000000FFFFFC0
000000000000000000000FFFFFC0
000000000000000000000FFFFFC0
000000000000000000000FFFFFC0
000000000000000000000FFFFFC0
000000000000000000000FFFFFC0
000000000000000000000FFFFFC0
000000000000000000000FFFFFC0
000000000000000000000FFFFFC0
000000000000000000000FFFFFC0
000000000000000000000FFFFFC0
000000000000000000000FFFFFC0
000000000000000000000FFFFFC0
000000000000000000000FFFFFC0
000000000000000000000FFFFFC0
000000000000000000000FFFFFC0
000000000000000000000FFFFFC0
000000000000000000000FFFFFC0
000000000000000000000FFFFFC0
000000000000000000000FFFFFC0
000000000000000000000FFFFFC0
000000000000000000000FFFFFC0
000000000000000000000FFFFFC0
000000000000000000000FFFFFC0
000000000000000000000FFFFFC0
000000000000000000000FFFFFC0
000000000000000000000FFFFFC0
000000000000000000000FFFFFC0
000000000000000000000FFFFFC0
000000000000000000000FFFFFC0
000000000000000000000FFFFFC0
000000000000000000000FFFFFC0
000000000000000000000FFFFFC0
000000000000000000000FFFFFC0
000000000000000000000FFFFFC0
000000000000000000000FFFFFC0
000000000000000000000FFFFFC0
000000000000000000000FFFFFC0
000000000000000000000FFFFFC0
000000000000000000000FFFFFC0
000000000000000000000FFFFFC0
000000000000000000000FFFFFC0
000000000000000000000FFFFFC0
000000000000000000000FFFFFC0
000000000000000000000FFFFFC0
000000000000000000000FFFFFC0
000000000000000000000FFFFFC0
000000000000000000000FFFFFC0
000000000000000000000FFFFFC0
000000000000000000000FFFFFC0
000000000000000000000FFFFFC0
000000000000000000000FFFFFC0
000000000000000000000FFFFFC0
000000000000000000000FFFFFC0
000000000000000000000FFFFFC0
000000000000000000000FFFFFC0
000000000000000000000FFFFFC0
000000000000000000000FFFFFC0
000000000000000000000FFFFFC0
000000000000000000000FFFFFC0
000000000000000000000FFFFFC0
000000000000000000000FFFFFC0
000000000000000000000FFFFFC0
000000000000000000000FFFFFC0
000000000000000000000FFFFFC0
000000000000000000000FFFFFC0
000000000000000000000FFFFFC0
000000000000000000000FFFFFC0
000000000000000000000FFFFFC0
000000000000000000000FFFFF80
000000000000000000000FFFFF80
000000000000000000000FFFFF80
000000000000000000000FFFFF80
000000000000000000000FFFFF80
000000000000000000000FFFFF80
000000000000000000000FFFFF80
000000000000000000001FFFFF80
000000000000000000001FFFFF80
000000000000000000001FFFFF80
000000000000000000001FFFFF80
000000000000000000003FFFFF80
000000000000000000003FFFFF00
000000000000000000003FFFFF00
000000000000000000007FFFFF00
000000000000000000007FFFFF00
00000000000000000000FFFFFF00
00000000000000000000FFFFFE00
00000000000000000001FFFFFE00
00000000000000000001FFFFFE00
00000000000000000003FFFFFC00
00000000000000000007FFFFFC00
0000000000000000000FFFFFFC00
0000000000000000001FFFFFF800
0000000000000000003FFFFFF800
000000000000000000FFFFFFF800
000000000000000001FFFFFFF000
000000000000000007FFFFFFF000
00000000000000003FFFFFFFE000
0000000000000001FFFFFFFFE000
000000000000001FFFFFFFFFC000
0000000000001FFFFFFFFFFF8000
FFFFFFFFFFFFFFFFFFFFFFFF8000
FFFFFFFFFFFFFFFFFFFFFFFF0000
FFFFFFFFFFFFFFFFFFFFFFFE0000
FFFFFFFFFFFFFFFFFFFFFFFC0000
FFFFFFFFFFFFFFFFFFFFFFFC0000
FFFFFFFFFFFFFFFFFFFFFFF80000
FFFFFFFFFFFFFFFFFFFFFFF00000
FFFFFFFFFFFFFFFFFFFFFFE00000
FFFFFFFFFFFFFFFFFFFFFFC00000
FFFFFFFFFFFFFFFFFFFFFF000000
FFFFFFFFFFFFFFFFFFFFFE000000
FFFFFFFFFFFFFFFFFFFFFC000000
FFFFFFFFFFFFFFFFFFFFF0000000
FFFFFFFFFFFFFFFFFFFFC0000000
FFFFFFFFFFFFFFFFFFFF00000000
FFFFFFFFFFFFFFFFFFFC00000000
FFFFFFFFFFFFFFFFFFE000000000
FFFFFFFFFFFFFFFFFF0000000000
FFFFFFFFFFFFFFFFF00000000000
FFFFFFFFFFFFFFFE000000000000
FFFFFFFFFFFFFF00000000000000
ENDCHAR
STARTCHAR K
ENCODING 75
SWIDTH 875 0
DWIDTH 146 0
BBX 132 122 11 0
BITMAP
FFFFF8000000000000000000FFFFFFFF80
FFFFF8000000000000000001FFFFFFFE00
FFFFF8000000000000000003FFFFFFFC00
FFFFF800000000000000000FFFFFFFF800
FFFFF800000000000000001FFFFFFFE000
FFFFF800000000000000003FFFFFFFC000
FFFFF80000000000000000FFFFFFFF8000
FFFFF80000000000000001FFFFFFFE0000
FFFFF80000000000000003FFFFFFFC0000
FFFFF80000000000000007FFFFFFF80000
FFFFF8000000000000001FFFFFFFE00000
FFFFF8000000000000003FFFFFFFC00000
FFFFF8000000000000007FFFFFFF800000
FFFFF800000000000001FFFFFFFE000000
FFFFF800000000000003FFFFFFFC000000
FFFFF800000000000007FFFFFFF8000000
FFFFF80000000000000FFFFFFFE0000000
FFFFF80000000000003FFFFFFFC0000000
FFFFF80000000000007FFFFFFF80000000
FFFFF8000000000000FFFFFFFE00000000
FFFFF8000000000003FFFFFFFC00000000
FFFFF8000000000007FFFFFFF800000000
FFFFF800000000000FFFFFFFE000000000
FFFFF800000000003FFFFFFFC000000000
FFFFF800000000007FFFFFFF8000000000
FFFFF80000000000FFFFFFFE0000000000
FFFFF80000000001FFFFFFFC0000000000
FFFFF80000000007FFFFFFF80000000000
FFFFF8000000000FFFFFFFE00000000000
FFFFF8000000001FFFFFFFC00000000000
FFFFF8000000007FFFFFFF800000000000
FFFFF800000000FFFFFFFE000000000000
FFFFF800000001FFFFFFFC000000000000
FFFFF800000003FFFFFFF8000000000000
FFFFF80000000FFFFFFFE0000000000000
FFFFF80000001FFFFFFFC0000000000000
FFFFF80000003FFFFFFF80000000000000
FFFFF8000000FFFFFFFE00000000000000
FFFFF8000001FFFFFFFC00000000000000
FFFFF8000003FFFFFFF800000000000000
FFFFF800000FFFFFFFE000000000000000
FFFFF800001FFFFFFFC000000000000000
FFFFF800003FFFFFFF8000000000000000
FFFFF800007FFFFFFE0000000000000000
FFFFF80001FFFFFFFC0000000000000000
FFFFF80003FFFFFFF80000000000000000
FFFFF80007FFFFFFE00000000000000000
FFFFF8001FFFFFFFC00000000000000000
FFFFF8003FFFFFFF800000000000000000
FFFFF8007FFFFFFE000000000000000000
FFFFF800FFFFFFFC000000000000000000
FFFFF803FFFFFFF8000000000000000000
FFFFF807FFFFFFE0000000000000000000
FFFFF807FFFFFFC0000000000000000000
FFFFF80FFFFFFF80000000000000000000
FFFFF80FFFFFFE00000000000000000000
FFFFF80FFFFFFC00000000000000000000
FFFFF81FFFFFF800000000000000000000
FFFFF81FFFFFE000000000000000000000
FFFFF81FFFFFC000000000000000000000
FFFFF81FFFFFE000000000000000000000
FFFFF81FFFFFF000000000000000000000
FFFFF80FFFFFFC00000000000000000000
FFFFF80FFFFFFE00000000000000000000
FFFFF80FFFFFFF00000000000000000000
FFFFF807FFFFFFC0000000000000000000
FFFFF803FFFFFFE0000000000000000000
FFFFF801FFFFFFF0000000000000000000
FFFFF800FFFFFFFC000000000000000000
FFFFF8007FFFFFFE000000000000000000
FFFFF8003FFFFFFF000000000000000000
FFFFF8000FFFFFFFC00000000000000000
FFFFF80007FFFFFFE00000000000000000
FFFFF80003FFFFFFF00000000000000000
FFFFF80001FFFFFFFC0000000000000000
FFFFF800007FFFFFFE0000000000000000
FFFFF800003FFFFFFF0000000000000000
FFFFF800001FFFFFFFC000000000000000
FFFFF800000FFFFFFFE000000000000000
FFFFF8000003FFFFFFF000000000000000
FFFFF8000001FFFFFFF800000000000000
FFFFF8000000FFFFFFFE00000000000000
FFFFF80000003FFFFFFF00000000000000
FFFFF80000001FFFFFFF80000000000000
FFFFF80000000FFFFFFFE0000000000000
FFFFF800000007FFFFFFF0000000000000
FFFFF800000001FFFFFFF8000000000000
FFFFF800000000FFFFFFFE000000000000
FFFFF8000000007FFFFFFF000000000000
FFFFF8000000003FFFFFFF800000000000
FFFFF8000000000FFFFFFFE00000000000
FFFFF80000000007FFFFFFF00000000000
FFFFF80000000003FFFFFFF80000000000
FFFFF80000000001FFFFFFFE0000000000
FFFFF800000000007FFFFFFF0000000000
FFFFF800000000003FFFFFFF8000000000
FFFFF800000000001FFFFFFFC000000000
FFFFF8000000000007FFFFFFF000000000
FFFFF8000000000003FFFFFFF800000000
FFFFF8000000000001FFFFFFFC00000000
FFFFF8000000000000FFFFFFFF00000000
FFFFF80000000000003FFFFFFF80000000
FFFFF80000000000001FFFFFFFC0000000
FFFFF80000000000000FFFFFFFF0000000
FFFFF800000000000007FFFFFFF8000000
FFFFF800000000000001FFFFFFFC000000
FFFFF800000000000000FFFFFFFF000000
FFFFF8000000000000007FFFFFFF800000
FFFFF8000000000000003FFFFFFFC00000
FFFFF8000000000000000FFFFFFFF00000
FFFFF80000000000000007FFFFFFF80000
FFFFF80000000000000003FFFFFFFC0000
FFFFF80000000000000001FFFFFFFE0000
FFFFF800000000000000007FFFFFFF8000
FFFFF800000000000000003FFFFFFFC000
FFFFF800000000000000001FFFFFFFE000
FFFFF8000000000000000007FFFFFFF800
FFFFF8000000000000000003FFFFFFFC00
FFFFF8000000000000000001FFFFFFFE00
FFFFF8000000000000000000FFFFFFFF80
FFFFF80000000000000000003FFFFFFFC0
FFFFF80000000000000000001FFFFFFFF0
ENDCHAR
STARTCHAR L
ENCODING 76
SWIDTH 707 0
DWIDTH 118 0
BBX 102 122 11 0
BITMAP
FFFFF800000000000000000000
FFFFF800000000000000000000
FFFFF800000000000000000000
FFFFF800000000000000000000
FFFFF800000000000000000000
FFFFF800000000000000000000
FFFFF800000000000000000000
FFFFF800000000000000000000
FFFFF800000000000000000000
FFFFF800000000000000000000
FFFFF800000000000000000000
FFFFF800000000000000000000
FFFFF800000000000000000000
FFFFF800000000000000000000
FFFFF800000000000000000000
FFFFF800000000000000000000
FFFFF800000000000000000000
FFFFF800000000000000000000
FFFFF800000000000000000000
FFFFF800000000000000000000
FFFFF800000000000000000000
FFFFF800000000000000000000
FFFFF800000000000000000000
FFFFF800000000000000000000
FFFFF800000000000000000000
FFFFF800000000000000000000
FFFFF800000000000000000000
FFFFF800000000000000000000
FFFFF800000000000000000000
FFFFF800000000000000000000
FFFFF800000000000000000000
FFFFF800000000000000000000
FFFFF800000000000000000000
FFFFF800000000000000000000
FFFFF800000000000000000000
FFFFF800000000000000000000
FFFFF800000000000000000000
FFFFF800000000000000000000
FFFFF800000000000000000000
FFFFF800000000000000000000
FFFFF800000000000000000000
FFFFF800000000000000000000
FFFFF800000000000000000000
FFFFF800000000000000000000
FFFFF800000000000000000000
FFFFF800000000000000000000
FFFFF800000000000000000000
FFFFF800000000000000000000
FFFFF800000000000000000000
FFFFF800000000000000000000
FFFFF800000000000000000000
FFFFF800000000000000000000
FFFFF800000000000000000000
FFFFF800000000000000000000
FFFFF800000000000000000000
FFFFF800000000000000000000
FFFFF800000000000000000000
FFFFF800000000000000000000
FFFFF800000000000000000000
FFFFF800000000000000000000
FFFFF800000000000000000000
FFFFF800000000000000000000
FFFFF800000000000000000000
FFFFF800000000000000000000
FFFFF800000000000000000000
FFFFF800000000000000000000
FFFFF800000000000000000000
FFFFF800000000000000000000
FFFFF800000000000000000000
FFFFF800000000000000000000
FFFFF800000000000000000000
FFFFF800000000000000000000
FFFFF800000000000000000000
FFFFF800000000000000000000
FFFFF800000000000000000000
FFFFF800000000000000000000
FFFFF800000000000000000000
FFFFF800000000000000000000
FFFFF800000000000000000000
FFFFF800000000000000000000
FFFFF800000000000000000000
FFFFF800000000000000000000
FFFFF800000000000000000000
FFFFF800000000000000000000
FFFFF800000000000000000000
FFFFF800000000000000000000
FFFFF800000000000000000000
FFFFF800000000000000000000
FFFFF800000000000000000000
FFFFF800000000000000000000
FFFFF800000000000000000000
FFFFF800000000000000000000
FFFFF800000000000000000000
FFFFF800000000000000000000
FFFFF800000000000000000000
FFFFF800000000000000000000
FFFFF800000000000000000000
FFFFF800000000000000000000
FFFFF800000000000000000000
FFFFF800000000000000000000
FFFFF800000000000000000000
FFFFFFFFFFFFFFFFFFFFFFFFFC
FFFFFFFFFFFFFFFFFFFFFFFFFC
FFFFFFFFFFFFFFFFFFFFFFFFFC
FFFFFFFFFFFFFFFFFFFFFFFFFC
FFFFFFFFFFFFFFFFFFFFFFFFFC
FFFFFFFFFFFFFFFFFFFFFFFFFC
FFFFFFFFFFFFFFFFFFFFFFFFFC
FFFFFFFFFFFFFFFFFFFFFFFFFC
FFFFFFFFFFFFFFFFFFFFFFFFFC
FFFFFFFFFFFFFFFFFFFFFFFFFC
FFFFFFFFFFFFFFFFFFFFFFFFFC
FFFFFFFFFFFFFFFFFFFFFFFFFC
FFFFFFFFFFFFFFFFFFFFFFFFFC
FFFFFFFFFFFFFFFFFFFFFFFFFC
FFFFFFFFFFFFFFFFFFFFFFFFFC
FFFFFFFFFFFFFFFFFFFFFFFFFC
FFFFFFFFFFFFFFFFFFFFFFFFFC
FFFFFFFFFFFFFFFFFFFFFFFFFC
FFFFFFFFFFFFFFFFFFFFFFFFFC
FFFFFFFFFFFFFFFFFFFFFFFFFC
FFFFFFFFFFFFFFFFFFFFFFFFFC
ENDCHAR
STARTCHAR M
ENCODING 77
SWIDTH 1115 0
DWIDTH 186 0
BBX 179 124 4 -2
BITMAP
0000000003F80000000000000000000003F80000000000
000000000FFE000000000000000000000FFE0000000000
000000001FFF800000000000000000003FFF0000000000
000000003FFFC00000000000000000007FFF8000000000
000000007FFFE00000000000000000007FFFC000000000
00000000FFFFF0000000000000000000FFFFC000000000
00000000FFFFF0000000000000000000FFFFE000000000
00000000FFFFF8000000000000000001FFFFE000000000
00000001FFFFF8000000000000000001FFFFF000000000
00000001FFFFF8000000000000000003FFFFF000000000
00000001FFFFFC000000000000000003FFFFF000000000
00000003FFFFFC000000000000000007FFFFF000000000
00000003FFFFFE000000000000000007FFFFF800000000
00000003FFFFFE00000000000000000FFFFFF800000000
00000003FFFFFF00000000000000000FFFFFF800000000
00000007FFFFFF00000000000000000FFFFFFC00000000
00000007FFFFFF80000000000000001FFFFFFC00000000
00000007FFFFFF80000000000000001FFFFFFC00000000
00000007FFFFFF80000000000000003FFFFFFC00000000
0000000FFFFFFFC0000000000000003FFFFFFE00000000
0000000FFFFFFFC0000000000000007FFFFFFE00000000
0000000FFFFFFFE0000000000000007FFFFFFE00000000
0000001FFFFFFFE0000000000000007FFFFFFE00000000
0000001FFFFFFFF000000000000000FFFFFFFF00000000
0000001FFFFFFFF000000000000000FFFFFFFF00000000
0000001FFFFFFFF800000000000001FFFFFFFF00000000
0000003FFFFFFFF800000000000001FFFFFFFF80000000
0000003FFFFFFFF800000000000003FFFFFFFF80000000
0000003FFFFFFFFC00000000000003FFFFFFFF80000000
0000007FFFFFFFFC00000000000007FFFFFFFF80000000
0000007FFFFFFFFE00000000000007FFFFFFFFC0000000
0000007FFFFFFFFE00000000000007FFFFFFFFC0000000
0000007FFFFFFFFF0000000000000FFFFFFFFFC0000000
000000FFFFFFFFFF0000000000000FFFFFFFFFC0000000
000000FFFFFFFFFF0000000000001FFFFFFFFFE0000000
000000FFFFFFFFFF8000000000001FFFFFFFFFE0000000
000000FFFFFFFFFF8000000000003FFFFFFFFFE0000000
000001FFFFFFFFFFC000000000003FFFFFFFFFF0000000
000001FFFFFFFFFFC000000000007FFFFDFFFFF0000000
000001FFFFF7FFFFE000000000007FFFFDFFFFF0000000
000003FFFFE7FFFFE000000000007FFFF9FFFFF0000000
000003FFFFE3FFFFF00000000000FFFFF8FFFFF8000000
000003FFFFE3FFFFF00000000000FFFFF0FFFFF8000000
000003FFFFC1FFFFF00000000001FFFFF0FFFFF8000000
000007FFFFC1FFFFF80000000001FFFFE0FFFFF8000000
000007FFFFC0FFFFF80000000003FFFFE07FFFFC000000
000007FFFFC0FFFFFC0000000003FFFFE07FFFFC000000
000007FFFF80FFFFFC0000000003FFFFC07FFFFC000000
00000FFFFF807FFFFE0000000007FFFFC07FFFFE000000
00000FFFFF807FFFFE0000000007FFFF803FFFFE000000
00000FFFFF803FFFFE000000000FFFFF803FFFFE000000
00001FFFFF003FFFFF000000000FFFFF003FFFFE000000
00001FFFFF001FFFFF000000001FFFFF001FFFFF000000
00001FFFFF001FFFFF800000001FFFFE001FFFFF000000
00001FFFFE000FFFFF800000003FFFFE001FFFFF000000
00003FFFFE000FFFFFC00000003FFFFE001FFFFF000000
00003FFFFE000FFFFFC00000003FFFFC000FFFFF800000
00003FFFFE0007FFFFE00000007FFFFC000FFFFF800000
00007FFFFC0007FFFFE00000007FFFF8000FFFFF800000
00007FFFFC0003FFFFE0000000FFFFF8000FFFFFC00000
00007FFFFC0003FFFFF0000000FFFFF00007FFFFC00000
00007FFFFC0001FFFFF0000001FFFFF00007FFFFC00000
0000FFFFF80001FFFFF8000001FFFFE00007FFFFC00000
0000FFFFF80001FFFFF8000001FFFFE00003FFFFE00000
0000FFFFF80000FFFFFC000003FFFFE00003FFFFE00000
0000FFFFF00000FFFFFC000003FFFFC00003FFFFE00000
0001FFFFF000007FFFFC000007FFFFC00003FFFFF00000
0001FFFFF000007FFFFE000007FFFF800001FFFFF00000
0001FFFFF000003FFFFE00000FFFFF800001FFFFF00000
0003FFFFE000003FFFFF00000FFFFF000001FFFFF00000
0003FFFFE000001FFFFF00001FFFFF000001FFFFF80000
0003FFFFE000001FFFFF80001FFFFE000000FFFFF80000
0003FFFFE000001FFFFF80001FFFFE000000FFFFF80000
0007FFFFC000000FFFFFC0003FFFFE000000FFFFF80000
0007FFFFC000000FFFFFC0003FFFFC0000007FFFFC0000
0007FFFFC0000007FFFFC0007FFFFC0000007FFFFC0000
0007FFFF80000007FFFFE0007FFFF80000007FFFFC0000
000FFFFF80000003FFFFE000FFFFF80000007FFFFE0000
000FFFFF80000003FFFFF000FFFFF00000003FFFFE0000
000FFFFF80000003FFFFF000FFFFF00000003FFFFE0000
001FFFFF00000001FFFFF801FFFFF00000003FFFFE0000
001FFFFF00000001FFFFF801FFFFE00000001FFFFF0000
001FFFFF00000000FFFFFC03FFFFE00000001FFFFF0000
001FFFFE00000000FFFFFC03FFFFC00000001FFFFF0000
003FFFFE000000007FFFFC07FFFFC00000001FFFFF0000
003FFFFE000000007FFFFE07FFFF800000000FFFFF8000
003FFFFE000000003FFFFE0FFFFF800000000FFFFF8000
003FFFFC000000003FFFFF0FFFFF000000000FFFFF8000
007FFFFC000000003FFFFF0FFFFF000000000FFFFFC000
007FFFFC000000001FFFFF9FFFFF0000000007FFFFC000
007FFFFC000000001FFFFF9FFFFE0000000007FFFFC000
00FFFFF8000000000FFFFFBFFFFE0000000007FFFFC000
00FFFFF8000000000FFFFFFFFFFC0000000003FFFFE000
00FFFFF80000000007FFFFFFFFFC0000000003FFFFE000
00FFFFF00000000007FFFFFFFFF80000000003FFFFE000
01FFFFF00000000003FFFFFFFFF80000000003FFFFE000
01FFFFF00000000003FFFFFFFFF00000000001FFFFF000
01FFFFF00000000003FFFFFFFFF00000000001FFFFF000
03FFFFE00000000001FFFFFFFFF00000000001FFFFF000
03FFFFE00000000001FFFFFFFFE00000000001FFFFF800
03FFFFE00000000000FFFFFFFFE00000000000FFFFF800
03FFFFE00000000000FFFFFFFFC00000000000FFFFF800
07FFFFC000000000007FFFFFFFC00000000000FFFFF800
07FFFFC000000000007FFFFFFF8000000000007FFFFC00
07FFFFC000000000007FFFFFFF8000000000007FFFFC00
07FFFF8000000000003FFFFFFF8000000000007FFFFC00
0FFFFF8000000000003FFFFFFF0000000000007FFFFC00
0FFFFF8000000000001FFFFFFF0000000000003FFFFE00
0FFFFF8000000000001FFFFFFE0000000000003FFFFE00
1FFFFF0000000000000FFFFFFE0000000000003FFFFE00
1FFFFF0000000000000FFFFFFC0000000000003FFFFF00
1FFFFF00000000000007FFFFFC0000000000001FFFFF00
1FFFFF00000000000007FFFFF80000000000001FFFFF00
3FFFFE00000000000007FFFFF80000000000001FFFFF00
3FFFFE00000000000003FFFFF80000000000000FFFFF80
3FFFFE00000000000003FFFFF00000000000000FFFFF80
3FFFFC00000000000001FFFFF00000000000000FFFFF80
7FFFFC00000000000001FFFFE00000000000000FFFFF80
7FFFFC00000000000000FFFFC000000000000007FFFFC0
7FFFFC000000000000007FFFC000000000000007FFFFC0
FFFFF8000000000000007FFF8000000000000007FFFFC0
FFFFF8000000000000001FFF0000000000000003FFFFE0
000000000000000000000FFC0000000000000000000000
0000000000000000000000C00000000000000000000000
ENDCHAR
STARTCHAR N
ENCODING 78
SWIDTH 873 0
DWIDTH 146 0
BBX 126 122 10 0
BITMAP
01FC00000000000000000000003FFFFC
07FF00000000000000000000003FFFFC
0FFFC0000000000000000000003FFFFC
1FFFE0000000000000000000003FFFFC
3FFFF0000000000000000000003FFFFC
3FFFF8000000000000000000003FFFFC
7FFFFC000000000000000000003FFFFC
7FFFFE000000000000000000003FFFFC
FFFFFF000000000000000000003FFFFC
FFFFFF800000000000000000003FFFFC
FFFFFFC00000000000000000003FFFFC
FFFFFFE00000000000000000003FFFFC
FFFFFFF00000000000000000003FFFFC
FFFFFFF80000000000000000003FFFFC
FFFFFFFC0000000000000000003FFFFC
FFFFFFFE0000000000000000003FFFFC
FFFFFFFF0000000000000000003FFFFC
FFFFFFFF8000000000000000003FFFFC
FFFFFFFFC000000000000000003FFFFC
FFFFFFFFE000000000000000003FFFFC
FFFFFFFFF000000000000000003FFFFC
FFFFFFFFF800000000000000003FFFFC
FFFFFFFFFC00000000000000003FFFFC
FFFFFFFFFE00000000000000003FFFFC
FFFFFFFFFF00000000000000003FFFFC
FFFFFFFFFF80000000000000003FFFFC
FFFFFFFFFFC0000000000000003FFFFC
FFFFFFFFFFE0000000000000003FFFFC
FFFFFFFFFFF0000000000000003FFFFC
FFFFFFFFFFF8000000000000003FFFFC
FFFFFFFFFFFC000000000000003FFFFC
FFFFFFFFFFFE000000000000003FFFFC
FFFFFFFFFFFF000000000000003FFFFC
FFFFFFFFFFFFC00000000000003FFFFC
FFFFF7FFFFFFC00000000000003FFFFC
FFFFF3FFFFFFF00000000000003FFFFC
FFFFF1FFFFFFF80000000000003FFFFC
FFFFF0FFFFFFFC0000000000003FFFFC
FFFFF07FFFFFFE0000000000003FFFFC
FFFFF03FFFFFFF0000000000003FFFFC
FFFFF01FFFFFFF8000000000003FFFFC
FFFFF00FFFFFFFC000000000003FFFFC
FFFFF007FFFFFFE000000000003FFFFC
FFFFF003FFFFFFF000000000003FFFFC
FFFFF001FFFFFFF800000000003FFFFC
FFFFF000FFFFFFFC00000000003FFFFC
FFFFF0007FFFFFFE00000000003FFFFC
FFFFF0003FFFFFFF00000000003FFFFC
FFFFF0001FFFFFFF80000000003FFFFC
FFFFF0000FFFFFFFC0000000003FFFFC
FFFFF00007FFFFFFE0000000003FFFFC
FFFFF00003FFFFFFF0000000003FFFFC
FFFFF00001FFFFFFF8000000003FFFFC
FFFFF00000FFFFFFFC000000003FFFFC
FFFFF000007FFFFFFE000000003FFFFC
FFFFF000003FFFFFFF000000003FFFFC
FFFFF000001FFFFFFF800000003FFFFC
FFFFF000000FFFFFFFC00000003FFFFC
FFFFF0000007FFFFFFE00000003FFFFC
FFFFF0000003FFFFFFF00000003FFFFC
FFFFF0000001FFFFFFF80000003FFFFC
FFFFF0000000FFFFFFFC0000003FFFFC
FFFFF00000007FFFFFFE0000003FFFFC
FFFFF00000003FFFFFFF0000003FFFFC
FFFFF00000001FFFFFFF8000003FFFFC
FFFFF00000000FFFFFFFC000003FFFFC
FFFFF000000007FFFFFFE000003FFFFC
FFFFF000000003FFFFFFF000003FFFFC
FFFFF000000001FFFFFFF800003FFFFC
FFFFF000000000FFFFFFFC00003FFFFC
FFFFF0000000007FFFFFFE00003FFFFC
FFFFF0000000003FFFFFFF00003FFFFC
FFFFF0000000001FFFFFFF80003FFFFC
FFFFF0000000000FFFFFFFC0003FFFFC
FFFFF00000000007FFFFFFE0003FFFFC
FFFFF00000000001FFFFFFF0003FFFFC
FFFFF00000000000FFFFFFF8003FFFFC
FFFFF000000000007FFFFFFC003FFFFC
FFFFF000000000003FFFFFFE003FFFFC
FFFFF000000000001FFFFFFF003FFFFC
FFFFF000000000000FFFFFFF803FFFFC
FFFFF0000000000007FFFFFFC03FFFFC
FFFFF0000000000003FFFFFFE03FFFFC
FFFFF0000000000001FFFFFFF03FFFFC
FFFFF0000000000000FFFFFFF83FFFFC
FFFFF00000000000007FFFFFFC3FFFFC
FFFFF00000000000003FFFFFFE3FFFFC
FFFFF00000000000001FFFFFFF3FFFFC
FFFFF00000000000000FFFFFFFBFFFFC
FFFFF000000000000007FFFFFFFFFFFC
FFFFF000000000000003FFFFFFFFFFFC
FFFFF000000000000001FFFFFFFFFFFC
FFFFF000000000000000FFFFFFFFFFFC
FFFFF0000000000000007FFFFFFFFFFC
FFFFF0000000000000003FFFFFFFFFFC
FFFFF0000000000000001FFFFFFFFFFC
FFFFF0000000000000000FFFFFFFFFFC
FFFFF00000000000000007FFFFFFFFFC
FFFFF00000000000000003FFFFFFFFFC
FFFFF00000000000000001FFFFFFFFFC
FFFFF00000000000000000FFFFFFFFFC
FFFFF000000000000000007FFFFFFFFC
FFFFF000000000000000003FFFFFFFFC
FFFFF000000000000000001FFFFFFFFC
FFFFF000000000000000000FFFFFFFFC
FFFFF0000000000000000007FFFFFFFC
FFFFF0000000000000000003FFFFFFFC
FFFFF0000000000000000001FFFFFFFC
FFFFF0000000000000000000FFFFFFFC
FFFFF00000000000000000007FFFFFFC
FFFFF00000000000000000003FFFFFFC
FFFFF00000000000000000001FFFFFFC
FFFFF00000000000000000000FFFFFFC
FFFFF000000000000000000007FFFFF8
FFFFF000000000000000000003FFFFF8
FFFFF000000000000000000001FFFFF8
FFFFF000000000000000000000FFFFF0
FFFFF0000000000000000000007FFFF0
FFFFF0000000000000000000003FFFE0
FFFFF0000000000000000000000FFFC0
FFFFF00000000000000000000007FF80
FFFFF00000000000000000000000FE00
ENDCHAR
STARTCHAR O
ENCODING 79
SWIDTH 968 0
DWIDTH 162 0
BBX 148 122 7 0
BITMAP
0000000000001FFFFFFFFFFF80000000000000
000000000007FFFFFFFFFFFFFE000000000000
00000000007FFFFFFFFFFFFFFFE00000000000
0000000003FFFFFFFFFFFFFFFFFC0000000000
000000001FFFFFFFFFFFFFFFFFFF8000000000
000000007FFFFFFFFFFFFFFFFFFFE000000000
00000001FFFFFFFFFFFFFFFFFFFFF800000000
00000007FFFFFFFFFFFFFFFFFFFFFE00000000
0000001FFFFFFFFFFFFFFFFFFFFFFF80000000
0000007FFFFFFFFFFFFFFFFFFFFFFFE0000000
000000FFFFFFFFFFFFFFFFFFFFFFFFF0000000
000003FFFFFFFFFFFFFFFFFFFFFFFFFC000000
000007FFFFFFFFFFFFFFFFFFFFFFFFFE000000
00000FFFFFFFFFFFFFFFFFFFFFFFFFFF000000
00001FFFFFFFFFFFFFFFFFFFFFFFFFFF800000
00003FFFFFFFFFFFFFFFFFFFFFFFFFFFC00000
00007FFFFFFFFFFFFFFFFFFFFFFFFFFFE00000
0000FFFFFFFFFFFFFFFFFFFFFFFFFFFFF00000
0001FFFFFFFFFFFFFFFFFFFFFFFFFFFFF80000
0003FFFFFFFFFFFFFFFFFFFFFFFFFFFFFC0000
0007FFFFFFFFFFFFFFFFFFFFFFFFFFFFFE0000
000FFFFFFFFFFE0000000007FFFFFFFFFF0000
001FFFFFFFFF8000000000001FFFFFFFFF0000
001FFFFFFFFC00000000000003FFFFFFFF8000
003FFFFFFFE000000000000000FFFFFFFFC000
007FFFFFFF80000000000000001FFFFFFFE000
007FFFFFFE00000000000000000FFFFFFFE000
00FFFFFFFC000000000000000003FFFFFFF000
00FFFFFFF0000000000000000001FFFFFFF000
01FFFFFFE00000000000000000007FFFFFF800
01FFFFFFC00000000000000000003FFFFFF800
03FFFFFF800000000000000000001FFFFFFC00
03FFFFFF000000000000000000000FFFFFFC00
07FFFFFE0000000000000000000007FFFFFE00
07FFFFFC0000000000000000000003FFFFFE00
0FFFFFF80000000000000000000001FFFFFF00
0FFFFFF00000000000000000000001FFFFFF00
0FFFFFF00000000000000000000000FFFFFF00
1FFFFFE000000000000000000000007FFFFF80
1FFFFFE000000000000000000000007FFFFF80
1FFFFFC000000000000000000000003FFFFF80
3FFFFFC000000000000000000000003FFFFFC0
3FFFFF8000000000000000000000001FFFFFC0
3FFFFF8000000000000000000000001FFFFFC0
3FFFFF0000000000000000000000000FFFFFC0
7FFFFF0000000000000000000000000FFFFFE0
7FFFFE0000000000000000000000000FFFFFE0
7FFFFE00000000000000000000000007FFFFE0
7FFFFE00000000000000000000000007FFFFE0
7FFFFE00000000000000000000000007FFFFE0
7FFFFC00000000000000000000000003FFFFE0
FFFFFC00000000000000000000000003FFFFF0
FFFFFC00000000000000000000000003FFFFF0
FFFFFC00000000000000000000000003FFFFF0
FFFFFC00000000000000000000000003FFFFF0
FFFFF800000000000000000000000003FFFFF0
FFFFF800000000000000000000000001FFFFF0
FFFFF800000000000000000000000001FFFFF0
FFFFF800000000000000000000000001FFFFF0
FFFFF800000000000000000000000001FFFFF0
FFFFF800000000000000000000000001FFFFF0
FFFFF800000000000000000000000001FFFFF0
FFFFF800000000000000000000000001FFFFF0
FFFFF800000000000000000000000001FFFFF0
FFFFF800000000000000000000000001FFFFF0
FFFFF800000000000000000000000003FFFFF0
FFFFFC00000000000000000000000003FFFFF0
FFFFFC00000000000000000000000003FFFFF0
FFFFFC00000000000000000000000003FFFFE0
7FFFFC00000000000000000000000003FFFFE0
7FFFFC00000000000000000000000003FFFFE0
7FFFFC00000000000000000000000003FFFFE0
7FFFFE00000000000000000000000007FFFFE0
7FFFFE00000000000000000000000007FFFFE0
7FFFFE00000000000000000000000007FFFFC0
3FFFFF0000000000000000000000000FFFFFC0
3FFFFF0000000000000000000000000FFFFFC0
3FFFFF0000000000000000000000000FFFFFC0
3FFFFF8000000000000000000000001FFFFFC0
1FFFFF8000000000000000000000001FFFFF80
1FFFFFC000000000000000000000003FFFFF80
1FFFFFC000000000000000000000003FFFFF80
0FFFFFE000000000000000000000007FFFFF00
0FFFFFE000000000000000000000007FFFFF00
0FFFFFF00000000000000000000000FFFFFF00
07FFFFF80000000000000000000001FFFFFE00
07FFFFF80000000000000000000003FFFFFE00
03FFFFFC0000000000000000000003FFFFFC00
03FFFFFE0000000000000000000007FFFFFC00
01FFFFFF000000000000000000000FFFFFF800
01FFFFFF800000000000000000001FFFFFF800
00FFFFFFC00000000000000000003FFFFFF000
00FFFFFFE00000000000000000007FFFFFF000
007FFFFFF8000000000000000001FFFFFFE000
007FFFFFFC000000000000000003FFFFFFE000
003FFFFFFF00000000000000000FFFFFFFC000
001FFFFFFF80000000000000003FFFFFFF8000
001FFFFFFFE000000000000000FFFFFFFF8000
000FFFFFFFFC00000000000003FFFFFFFF0000
0007FFFFFFFF8000000000001FFFFFFFFE0000
0003FFFFFFFFFE0000000007FFFFFFFFFC0000
0003FFFFFFFFFFFFFFFFFFFFFFFFFFFFFC0000
0001FFFFFFFFFFFFFFFFFFFFFFFFFFFFF80000
0000FFFFFFFFFFFFFFFFFFFFFFFFFFFFF00000
00007FFFFFFFFFFFFFFFFFFFFFFFFFFFE00000
00003FFFFFFFFFFFFFFFFFFFFFFFFFFFC00000
00001FFFFFFFFFFFFFFFFFFFFFFFFFFF800000
00000FFFFFFFFFFFFFFFFFFFFFFFFFFF000000
000007FFFFFFFFFFFFFFFFFFFFFFFFFE000000
000001FFFFFFFFFFFFFFFFFFFFFFFFF8000000
000000FFFFFFFFFFFFFFFFFFFFFFFFF0000000
0000007FFFFFFFFFFFFFFFFFFFFFFFE0000000
0000001FFFFFFFFFFFFFFFFFFFFFFF80000000
0000000FFFFFFFFFFFFFFFFFFFFFFF00000000
00000003FFFFFFFFFFFFFFFFFFFFFC00000000
00000000FFFFFFFFFFFFFFFFFFFFF000000000
000000003FFFFFFFFFFFFFFFFFFFC000000000
000000000FFFFFFFFFFFFFFFFFFF0000000000
0000000001FFFFFFFFFFFFFFFFF80000000000
00000000003FFFFFFFFFFFFFFFC00000000000
000000000007FFFFFFFFFFFFFE000000000000
0000000000001FFFFFFFFFFF00000000000000
ENDCHAR
STARTCHAR P
ENCODING 80
SWIDTH 867 0
DWIDTH 145 0
BBX 129 122 11 0
BITMAP
FFFFFFFFFFFFFFFFFFFFFFF80000000000
FFFFFFFFFFFFFFFFFFFFFFFFC000000000
FFFFFFFFFFFFFFFFFFFFFFFFFC00000000
FFFFFFFFFFFFFFFFFFFFFFFFFF80000000
FFFFFFFFFFFFFFFFFFFFFFFFFFE0000000
FFFFFFFFFFFFFFFFFFFFFFFFFFF8000000
FFFFFFFFFFFFFFFFFFFFFFFFFFFE000000
FFFFFFFFFFFFFFFFFFFFFFFFFFFF000000
FFFFFFFFFFFFFFFFFFFFFFFFFFFFC00000
FFFFFFFFFFFFFFFFFFFFFFFFFFFFE00000
FFFFFFFFFFFFFFFFFFFFFFFFFFFFF00000
FFFFFFFFFFFFFFFFFFFFFFFFFFFFF80000
FFFFFFFFFFFFFFFFFFFFFFFFFFFFFC0000
FFFFFFFFFFFFFFFFFFFFFFFFFFFFFE0000
FFFFFFFFFFFFFFFFFFFFFFFFFFFFFF0000
FFFFFFFFFFFFFFFFFFFFFFFFFFFFFF8000
FFFFFFFFFFFFFFFFFFFFFFFFFFFFFFC000
FFFFFFFFFFFFFFFFFFFFFFFFFFFFFFC000
FFFFFFFFFFFFFFFFFFFFFFFFFFFFFFE000
FFFFFFFFFFFFFFFFFFFFFFFFFFFFFFE000
FFFFFFFFFFFFFFFFFFFFFFFFFFFFFFF000
FFFFF80000000000000000FFFFFFFFF800
FFFFF8000000000000000003FFFFFFF800
FFFFF8000000000000000000FFFFFFF800
FFFFF80000000000000000003FFFFFFC00
FFFFF80000000000000000000FFFFFFC00
FFFFF800000000000000000007FFFFFE00
FFFFF800000000000000000003FFFFFE00
FFFFF800000000000000000001FFFFFE00
FFFFF800000000000000000000FFFFFF00
FFFFF8000000000000000000007FFFFF00
FFFFF8000000000000000000007FFFFF00
FFFFF8000000000000000000003FFFFF00
FFFFF8000000000000000000003FFFFF00
FFFFF8000000000000000000001FFFFF80
FFFFF8000000000000000000001FFFFF80
FFFFF8000000000000000000000FFFFF80
FFFFF8000000000000000000000FFFFF80
FFFFF8000000000000000000000FFFFF80
FFFFF8000000000000000000000FFFFF80
FFFFF8000000000000000000000FFFFF80
FFFFF8000000000000000000000FFFFF80
FFFFF80000000000000000000007FFFF80
FFFFF80000000000000000000007FFFF80
FFFFF80000000000000000000007FFFF80
FFFFF80000000000000000000007FFFF80
FFFFF8000000000000000000000FFFFF80
FFFFF8000000000000000000000FFFFF80
FFFFF8000000000000000000000FFFFF80
FFFFF8000000000000000000000FFFFF80
FFFFF8000000000000000000000FFFFF80
FFFFF8000000000000000000000FFFFF80
FFFFF8000000000000000000001FFFFF80
FFFFF8000000000000000000001FFFFF00
FFFFF8000000000000000000001FFFFF00
FFFFF8000000000000000000003FFFFF00
FFFFF8000000000000000000007FFFFF00
FFFFF8000000000000000000007FFFFF00
FFFFF800000000000000000000FFFFFE00
FFFFF800000000000000000001FFFFFE00
FFFFF800000000000000000003FFFFFE00
FFFFF800000000000000000007FFFFFC00
FFFFF80000000000000000000FFFFFFC00
FFFFF80000000000000000001FFFFFFC00
FFFFF80000000000000000007FFFFFF800
FFFFF8000000000000000001FFFFFFF800
FFFFF800000000000000001FFFFFFFF000
FFFFF8000FFFFFFFFFFFFFFFFFFFFFF000
FFFFF8000FFFFFFFFFFFFFFFFFFFFFE000
FFFFF8000FFFFFFFFFFFFFFFFFFFFFC000
FFFFF8000FFFFFFFFFFFFFFFFFFFFFC000
FFFFF8000FFFFFFFFFFFFFFFFFFFFF8000
FFFFF8000FFFFFFFFFFFFFFFFFFFFF0000
FFFFF8000FFFFFFFFFFFFFFFFFFFFF0000
FFFFF8000FFFFFFFFFFFFFFFFFFFFE0000
FFFFF8000FFFFFFFFFFFFFFFFFFFFC0000
FFFFF8000FFFFFFFFFFFFFFFFFFFF80000
FFFFF8000FFFFFFFFFFFFFFFFFFFF00000
FFFFF8000FFFFFFFFFFFFFFFFFFFC00000
FFFFF8000FFFFFFFFFFFFFFFFFFF800000
FFFFF8000FFFFFFFFFFFFFFFFFFF000000
FFFFF8000FFFFFFFFFFFFFFFFFFC000000
FFFFF8000FFFFFFFFFFFFFFFFFF8000000
FFFFF8000FFFFFFFFFFFFFFFFFC0000000
FFFFF8000FFFFFFFFFFFFFFFFF00000000
FFFFF8000FFFFFFFFFFFFFFFF800000000
FFFFF8000FFFFFFFFFFFFFFFC000000000
FFFFF8000FFFFFFFFFFFFFF80000000000
FFFFF80000000000000000000000000000
FFFFF80000000000000000000000000000
FFFFF80000000000000000000000000000
FFFFF80000000000000000000000000000
FFFFF80000000000000000000000000000
FFFFF80000000000000000000000000000
FFFFF80000000000000000000000000000
FFFFF80000000000000000000000000000
FFFFF80000000000000000000000000000
FFFFF80000000000000000000000000000
FFFFF80000000000000000000000000000
FFFFF80000000000000000000000000000
FFFFF80000000000000000000000000000
FFFFF80000000000000000000000000000
FFFFF80000000000000000000000000000
FFFFF80000000000000000000000000000
FFFFF80000000000000000000000000000
FFFFF80000000000000000000000000000
FFFFF80000000000000000000000000000
FFFFF80000000000000000000000000000
FFFFF80000000000000000000000000000
FFFFF80000000000000000000000000000
FFFFF80000000000000000000000000000
FFFFF80000000000000000000000000000
FFFFF80000000000000000000000000000
FFFFF80000000000000000000000000000
FFFFF80000000000000000000000000000
FFFFF80000000000000000000000000000
FFFFF80000000000000000000000000000
FFFFF80000000000000000000000000000
FFFFF80000000000000000000000000000
FFFFF80000000000000000000000000000
FFFFF80000000000000000000000000000
FFFFF80000000000000000000000000000
ENDCHAR
STARTCHAR Q
ENCODING 81
SWIDTH 968 0
DWIDTH 162 0
BBX 154 122 7 0
BITMAP
0000000000001FFFFFFFFFFF8000000000000000
000000000007FFFFFFFFFFFFFE00000000000000
00000000007FFFFFFFFFFFFFFFE0000000000000
0000000003FFFFFFFFFFFFFFFFFC000000000000
000000001FFFFFFFFFFFFFFFFFFF800000000000
000000007FFFFFFFFFFFFFFFFFFFE00000000000
00000001FFFFFFFFFFFFFFFFFFFFF80000000000
00000007FFFFFFFFFFFFFFFFFFFFFE0000000000
0000001FFFFFFFFFFFFFFFFFFFFFFF8000000000
0000007FFFFFFFFFFFFFFFFFFFFFFFE000000000
000000FFFFFFFFFFFFFFFFFFFFFFFFF000000000
000003FFFFFFFFFFFFFFFFFFFFFFFFFC00000000
000007FFFFFFFFFFFFFFFFFFFFFFFFFE00000000
00000FFFFFFFFFFFFFFFFFFFFFFFFFFF00000000
00001FFFFFFFFFFFFFFFFFFFFFFFFFFF80000000
00003FFFFFFFFFFFFFFFFFFFFFFFFFFFC0000000
00007FFFFFFFFFFFFFFFFFFFFFFFFFFFE0000000
0000FFFFFFFFFFFFFFFFFFFFFFFFFFFFF0000000
0001FFFFFFFFFFFFFFFFFFFFFFFFFFFFF8000000
0003FFFFFFFFFFFFFFFFFFFFFFFFFFFFFC000000
0007FFFFFFFFFFFFFFFFFFFFFFFFFFFFFE000000
000FFFFFFFFFFE0000000007FFFFFFFFFF000000
001FFFFFFFFF8000000000001FFFFFFFFF000000
001FFFFFFFFC00000000000003FFFFFFFF800000
003FFFFFFFE000000000000000FFFFFFFFC00000
007FFFFFFF80000000000000001FFFFFFFE00000
007FFFFFFE00000000000000000FFFFFFFE00000
00FFFFFFFC000000000000000003FFFFFFF00000
00FFFFFFF0000000000000000001FFFFFFF00000
01FFFFFFE00000000000000000007FFFFFF80000
01FFFFFFC00000000000000000003FFFFFF80000
03FFFFFF800000000000000000001FFFFFFC0000
03FFFFFF000000000000000000000FFFFFFC0000
07FFFFFE0000000000000000000007FFFFFE0000
07FFFFFC0000000000000000000003FFFFFE0000
0FFFFFF80000000000000000000001FFFFFF0000
0FFFFFF00000000000000000000001FFFFFF0000
0FFFFFF00000000000000000000000FFFFFF0000
1FFFFFE000000000000000000000007FFFFF8000
1FFFFFE000000000000000000000007FFFFF8000
1FFFFFC000000000000000000000003FFFFF8000
3FFFFFC000000000000000000000003FFFFFC000
3FFFFF8000000000000000000000001FFFFFC000
3FFFFF8000000000000000000000001FFFFFC000
3FFFFF0000000000000000000000000FFFFFC000
7FFFFF0000000000000000000000000FFFFFE000
7FFFFE0000000000000000000000000FFFFFE000
7FFFFE00000000000000000000000007FFFFE000
7FFFFE00000000000000000000000007FFFFE000
7FFFFE00000000000000000000000007FFFFE000
7FFFFC00000000000000000000000003FFFFE000
FFFFFC00000000000000000000000003FFFFF000
FFFFFC00000000000000000000000003FFFFF000
FFFFFC00000000000000000000000003FFFFF000
FFFFFC00000000000000000000000003FFFFF000
FFFFF800000000000000000000000003FFFFF000
FFFFF800000000000000000000000001FFFFF000
FFFFF800000000000000000000000001FFFFF000
FFFFF800000000000000000000000001FFFFF000
FFFFF800000000000000000000000001FFFFF000
FFFFF800000000000000000000000001FFFFF000
FFFFF800000000000000000000000001FFFFF000
FFFFF800000000000000000000000001FFFFF000
FFFFF800000000000000000000000001FFFFF000
FFFFF800000000000000000000000001FFFFF000
FFFFF800000000000000000000000001FFFFF000
FFFFFC00000000000000000000000003FFFFF000
FFFFFC00000000000000000000000003FFFFF000
FFFFFC00000000000000000000000003FFFFE000
7FFFFC00000000000000000000000003FFFFE000
7FFFFC00000000000000000000000003FFFFE000
7FFFFC00000000008000000000000003FFFFE000
7FFFFE00000000007FFFFFF800000007FFFFE000
7FFFFE00000000003FFFFFFC00000007FFFFE000
7FFFFE00000000000FFFFFFE00000007FFFFC000
3FFFFF000000000007FFFFFF8000000FFFFFC000
3FFFFF000000000003FFFFFFC000000FFFFFC000
3FFFFF000000000001FFFFFFE000000FFFFFC000
3FFFFF8000000000007FFFFFF000001FFFFFC000
1FFFFF8000000000003FFFFFF800001FFFFF8000
1FFFFFC000000000001FFFFFFC00003FFFFF8000
1FFFFFC000000000000FFFFFFF00003FFFFF8000
0FFFFFE0000000000003FFFFFF80007FFFFF0000
0FFFFFE0000000000001FFFFFFC000FFFFFF0000
0FFFFFF0000000000000FFFFFFE000FFFFFF0000
07FFFFF80000000000007FFFFFF001FFFFFE0000
07FFFFF80000000000001FFFFFFC03FFFFFE0000
03FFFFFC0000000000000FFFFFFE03FFFFFC0000
03FFFFFE00000000000007FFFFFF07FFFFFC0000
01FFFFFF00000000000001FFFFFF8FFFFFF80000
01FFFFFF80000000000000FFFFFFDFFFFFF80000
00FFFFFFC00000000000007FFFFFFFFFFFF00000
00FFFFFFE00000000000003FFFFFFFFFFFF00000
007FFFFFF80000000000000FFFFFFFFFFFE00000
007FFFFFFC00000000000007FFFFFFFFFFE00000
003FFFFFFF00000000000003FFFFFFFFFFC00000
001FFFFFFF80000000000001FFFFFFFFFF800000
001FFFFFFFE00000000000007FFFFFFFFF800000
000FFFFFFFFC0000000000003FFFFFFFFF000000
0007FFFFFFFF8000000000003FFFFFFFFE000000
0003FFFFFFFFFE000000000FFFFFFFFFFC000000
0003FFFFFFFFFFFFFFFFFFFFFFFFFFFFFC000000
0001FFFFFFFFFFFFFFFFFFFFFFFFFFFFF8000000
0000FFFFFFFFFFFFFFFFFFFFFFFFFFFFF0000000
00007FFFFFFFFFFFFFFFFFFFFFFFFFFFE0000000
00003FFFFFFFFFFFFFFFFFFFFFFFFFFFF8000000
00001FFFFFFFFFFFFFFFFFFFFFFFFFFFFC000000
00000FFFFFFFFFFFFFFFFFFFFFFFFFFFFE000000
000007FFFFFFFFFFFFFFFFFFFFFFFFFFFF800000
000001FFFFFFFFFFFFFFFFFFFFFFFFFFFFC00000
000000FFFFFFFFFFFFFFFFFFFFFFFFFFFFE00000
0000007FFFFFFFFFFFFFFFFFFFFFFFFFFFF80000
0000001FFFFFFFFFFFFFFFFFFFFFFFFFFFFC0000
0000000FFFFFFFFFFFFFFFFFFFFFFFFFFFFE0000
00000003FFFFFFFFFFFFFFFFFFFFFFFFFFFF0000
00000000FFFFFFFFFFFFFFFFFFFFF3FFFFFFC000
000000003FFFFFFFFFFFFFFFFFFFC1FFFFFFE000
000000000FFFFFFFFFFFFFFFFFFF007FFFFFF000
0000000001FFFFFFFFFFFFFFFFF8003FFFFFFC00
00000000003FFFFFFFFFFFFFFFC0001FFFFFFE00
000000000007FFFFFFFFFFFFFC00000FFFFFFF00
0000000000001FFFFFFFFFFF00000007FFFFFFC0
ENDCHAR
STARTCHAR R
ENCODING 82
SWIDTH 921 0
DWIDTH 154 0
BBX 142 122 11 0
BITMAP
FFFFFFFFFFFFFFFFFFFFFFFE000000000000
FFFFFFFFFFFFFFFFFFFFFFFFF00000000000
FFFFFFFFFFFFFFFFFFFFFFFFFF0000000000
FFFFFFFFFFFFFFFFFFFFFFFFFFC000000000
FFFFFFFFFFFFFFFFFFFFFFFFFFF800000000
FFFFFFFFFFFFFFFFFFFFFFFFFFFC00000000
FFFFFFFFFFFFFFFFFFFFFFFFFFFF00000000
FFFFFFFFFFFFFFFFFFFFFFFFFFFFC0000000
FFFFFFFFFFFFFFFFFFFFFFFFFFFFE0000000
FFFFFFFFFFFFFFFFFFFFFFFFFFFFF0000000
FFFFFFFFFFFFFFFFFFFFFFFFFFFFFC000000
FFFFFFFFFFFFFFFFFFFFFFFFFFFFFE000000
FFFFFFFFFFFFFFFFFFFFFFFFFFFFFF000000
FFFFFFFFFFFFFFFFFFFFFFFFFFFFFF000000
FFFFFFFFFFFFFFFFFFFFFFFFFFFFFF800000
FFFFFFFFFFFFFFFFFFFFFFFFFFFFFFC00000
FFFFFFFFFFFFFFFFFFFFFFFFFFFFFFE00000
FFFFFFFFFFFFFFFFFFFFFFFFFFFFFFF00000
FFFFFFFFFFFFFFFFFFFFFFFFFFFFFFF00000
FFFFFFFFFFFFFFFFFFFFFFFFFFFFFFF80000
FFFFFFFFFFFFFFFFFFFFFFFFFFFFFFF80000
FFFFF800000000000000003FFFFFFFFC0000
FFFFF8000000000000000000FFFFFFFC0000
FFFFF80000000000000000003FFFFFFE0000
FFFFF80000000000000000000FFFFFFE0000
FFFFF800000000000000000003FFFFFF0000
FFFFF800000000000000000001FFFFFF0000
FFFFF800000000000000000000FFFFFF0000
FFFFF8000000000000000000007FFFFF8000
FFFFF8000000000000000000003FFFFF8000
FFFFF8000000000000000000001FFFFF8000
FFFFF8000000000000000000001FFFFF8000
FFFFF8000000000000000000000FFFFFC000
FFFFF8000000000000000000000FFFFFC000
FFFFF8000000000000000000000FFFFFC000
FFFFF80000000000000000000007FFFFC000
FFFFF80000000000000000000007FFFFC000
FFFFF80000000000000000000007FFFFC000
FFFFF80000000000000000000007FFFFC000
FFFFF80000000000000000000003FFFFE000
FFFFF80000000000000000000003FFFFE000
FFFFF80000000000000000000003FFFFE000
FFFFF80000000000000000000003FFFFE000
FFFFF80000000000000000000003FFFFE000
FFFFF80000000000000000000003FFFFE000
FFFFF80000000000000000000003FFFFE000
FFFFF80000000000000000000003FFFFE000
FFFFF80000000000000000000003FFFFE000
FFFFF80000000000000000000003FFFFE000
FFFFF80000000000000000000003FFFFE000
FFFFF80000000000000000000007FFFFC000
FFFFF80000000000000000000007FFFFC000
FFFFF80000000000000000000007FFFFC000
FFFFF80000000000000000000007FFFFC000
FFFFF80000000000000000000007FFFFC000
FFFFF8000000000000000000000FFFFFC000
FFFFF8000000000000000000000FFFFFC000
FFFFF8000000000000000000001FFFFF8000
FFFFF8000000000000000000001FFFFF8000
FFFFF8000000000000000000003FFFFF8000
FFFFF8000000000000000000003FFFFF8000
FFFFF8000000000000000000007FFFFF0000
FFFFF800000000000000000000FFFFFF0000
FFFFF800000000000000000001FFFFFE0000
FFFFF800000000000000000003FFFFFE0000
FFFFF800000000000000000007FFFFFE0000
FFFFF80000000000000000001FFFFFFC0000
FFFFF80000000000000000007FFFFFFC0000
FFFFF8000000000000000007FFFFFFF80000
FFFFF8000FFFFFFFFFFFFFFFFFFFFFF80000
FFFFF8000FFFFFFFFFFFFFFFFFFFFFF00000
FFFFF8000FFFFFFFFFFFFFFFFFFFFFE00000
FFFFF8000FFFFFFFFFFFFFFFFFFFFFC00000
FFFFF8000FFFFFFFFFFFFFFFFFFFFFC00000
FFFFF8000FFFFFFFFFFFFFFFFFFFFF800000
FFFFF8000FFFFFFFFFFFFFFFFFFFFF000000
FFFFF8000FFFFFFFFFFFFFFFFFFFFE000000
FFFFF8000FFFFFFFFFFFFFFFFFFFFC000000
FFFFF8000FFFFFFFFFFFFFFFFFFFF8000000
FFFFF8000FFFFFFFFFFFFFFFFFFFE0000000
FFFFF8000FFFFFFFFFFFFFFFFFFFC0000000
FFFFF8000FFFFFFFFFFFFFFFFFFF00000000
FFFFF8000FFFFFFFFFFFFFFFFFFE00000000
FFFFF8000FFFFFFFFFFFFFFFFFF800000000
FFFFF8000FFFFFFFFFFFFFFFFFC000000000
FFFFF8000FFFFFFFFFFFFFFFFFC000000000
FFFFF8000FFFFFFFFFFFFFFFFFE000000000
FFFFF8000FFFFFFFFFFFFFFFFFF000000000
FFFFF8000000000000003FFFFFF800000000
FFFFF8000000000000001FFFFFFC00000000
FFFFF8000000000000000FFFFFFE00000000
FFFFF80000000000000007FFFFFF00000000
FFFFF80000000000000003FFFFFF80000000
FFFFF80000000000000003FFFFFFC0000000
FFFFF80000000000000001FFFFFFE0000000
FFFFF80000000000000000FFFFFFF0000000
FFFFF800000000000000007FFFFFF8000000
FFFFF800000000000000003FFFFFFC000000
FFFFF800000000000000001FFFFFFE000000
FFFFF800000000000000000FFFFFFF000000
FFFFF8000000000000000007FFFFFF800000
FFFFF8000000000000000003FFFFFFC00000
FFFFF8000000000000000001FFFFFFE00000
FFFFF8000000000000000000FFFFFFF00000
FFFFF8000000000000000000FFFFFFF80000
FFFFF80000000000000000007FFFFFFC0000
FFFFF80000000000000000003FFFFFFE0000
FFFFF80000000000000000001FFFFFFF0000
FFFFF80000000000000000000FFFFFFF8000
FFFFF800000000000000000007FFFFFFC000
FFFFF800000000000000000003FFFFFFE000
FFFFF800000000000000000001FFFFFFF000
FFFFF800000000000000000000FFFFFFF800
FFFFF8000000000000000000007FFFFFFC00
FFFFF8000000000000000000007FFFFFFE00
FFFFF8000000000000000000003FFFFFFF00
FFFFF8000000000000000000001FFFFFFF80
FFFFF8000000000000000000000FFFFFFFC0
FFFFF80000000000000000000007FFFFFFE0
FFFFF80000000000000000000003FFFFFFF0
FFFFF80000000000000000000001FFFFFFF8
FFFFF80000000000000000000000FFFFFFFC
ENDCHAR
STARTCHAR S
ENCODING 83
SWIDTH 880 0
DWIDTH 147 0
BBX 130 122 9 0
BITMAP
00000003FFFFFFFFFFFFFFFFFFFFFFF000
0000007FFFFFFFFFFFFFFFFFFFFFFFF000
000007FFFFFFFFFFFFFFFFFFFFFFFFF000
00001FFFFFFFFFFFFFFFFFFFFFFFFFF000
00007FFFFFFFFFFFFFFFFFFFFFFFFFF000
0001FFFFFFFFFFFFFFFFFFFFFFFFFFF000
0007FFFFFFFFFFFFFFFFFFFFFFFFFFF000
000FFFFFFFFFFFFFFFFFFFFFFFFFFFF000
001FFFFFFFFFFFFFFFFFFFFFFFFFFFF000
003FFFFFFFFFFFFFFFFFFFFFFFFFFFF000
007FFFFFFFFFFFFFFFFFFFFFFFFFFFF000
00FFFFFFFFFFFFFFFFFFFFFFFFFFFFF000
01FFFFFFFFFFFFFFFFFFFFFFFFFFFFF000
03FFFFFFFFFFFFFFFFFFFFFFFFFFFFF000
07FFFFFFFFFFFFFFFFFFFFFFFFFFFFF000
07FFFFFFFFFFFFFFFFFFFFFFFFFFFFF000
0FFFFFFFFFFFFFFFFFFFFFFFFFFFFFF000
1FFFFFFFFFFFFFFFFFFFFFFFFFFFFFF000
1FFFFFFFFFFFFFFFFFFFFFFFFFFFFFF000
1FFFFFFFFFFFFFFFFFFFFFFFFFFFFFF000
3FFFFFFFFFFFFFFFFFFFFFFFFFFFFFF000
3FFFFFFFC0000000000000000000000000
7FFFFFFC00000000000000000000000000
7FFFFFF000000000000000000000000000
7FFFFFE000000000000000000000000000
7FFFFF8000000000000000000000000000
FFFFFF8000000000000000000000000000
FFFFFF0000000000000000000000000000
FFFFFE0000000000000000000000000000
FFFFFE0000000000000000000000000000
FFFFFE0000000000000000000000000000
FFFFFC0000000000000000000000000000
FFFFFC0000000000000000000000000000
FFFFFC0000000000000000000000000000
FFFFFC0000000000000000000000000000
FFFFFC0000000000000000000000000000
FFFFFC0000000000000000000000000000
FFFFFC0000000000000000000000000000
FFFFFC0000000000000000000000000000
FFFFFC0000000000000000000000000000
FFFFFC0000000000000000000000000000
FFFFFC0000000000000000000000000000
7FFFFE0000000000000000000000000000
7FFFFE0000000000000000000000000000
7FFFFF0000000000000000000000000000
7FFFFF0000000000000000000000000000
3FFFFF8000000000000000000000000000
3FFFFFC000000000000000000000000000
3FFFFFF000000000000000000000000000
1FFFFFF800000000000000000000000000
1FFFFFFF00000000000000000000000000
0FFFFFFFFFFFFFFFFFFFFFFFF800000000
0FFFFFFFFFFFFFFFFFFFFFFFFFC0000000
07FFFFFFFFFFFFFFFFFFFFFFFFFC000000
03FFFFFFFFFFFFFFFFFFFFFFFFFF000000
03FFFFFFFFFFFFFFFFFFFFFFFFFFE00000
01FFFFFFFFFFFFFFFFFFFFFFFFFFF00000
00FFFFFFFFFFFFFFFFFFFFFFFFFFFC0000
007FFFFFFFFFFFFFFFFFFFFFFFFFFE0000
003FFFFFFFFFFFFFFFFFFFFFFFFFFF0000
001FFFFFFFFFFFFFFFFFFFFFFFFFFF8000
000FFFFFFFFFFFFFFFFFFFFFFFFFFFC000
0003FFFFFFFFFFFFFFFFFFFFFFFFFFE000
0001FFFFFFFFFFFFFFFFFFFFFFFFFFF000
00007FFFFFFFFFFFFFFFFFFFFFFFFFF800
00001FFFFFFFFFFFFFFFFFFFFFFFFFF800
000003FFFFFFFFFFFFFFFFFFFFFFFFFC00
0000007FFFFFFFFFFFFFFFFFFFFFFFFC00
00000003FFFFFFFFFFFFFFFFFFFFFFFE00
0000000000000000000000003FFFFFFE00
00000000000000000000000007FFFFFF00
00000000000000000000000000FFFFFF00
000000000000000000000000007FFFFF00
000000000000000000000000003FFFFF80
000000000000000000000000001FFFFF80
000000000000000000000000000FFFFF80
000000000000000000000000000FFFFF80
0000000000000000000000000007FFFFC0
0000000000000000000000000007FFFFC0
0000000000000000000000000003FFFFC0
0000000000000000000000000003FFFFC0
0000000000000000000000000003FFFFC0
0000000000000000000000000003FFFFC0
0000000000000000000000000003FFFFC0
0000000000000000000000000003FFFFC0
0000000000000000000000000003FFFFC0
0000000000000000000000000003FFFFC0
0000000000000000000000000003FFFFC0
0000000000000000000000000003FFFFC0
0000000000000000000000000003FFFFC0
0000000000000000000000000007FFFFC0
0000000000000000000000000007FFFFC0
0000000000000000000000000007FFFFC0
000000000000000000000000000FFFFFC0
000000000000000000000000001FFFFFC0
000000000000000000000000003FFFFF80
000000000000000000000000007FFFFF80
00000000000000000000000000FFFFFF80
00000000000000000000000001FFFFFF80
0000000000000000000000000FFFFFFF00
000000000000000000000000FFFFFFFF00
3FFFFFFFFFFFFFFFFFFFFFFFFFFFFFFF00
3FFFFFFFFFFFFFFFFFFFFFFFFFFFFFFE00
3FFFFFFFFFFFFFFFFFFFFFFFFFFFFFFE00
3FFFFFFFFFFFFFFFFFFFFFFFFFFFFFFC00
3FFFFFFFFFFFFFFFFFFFFFFFFFFFFFFC00
3FFFFFFFFFFFFFFFFFFFFFFFFFFFFFF800
3FFFFFFFFFFFFFFFFFFFFFFFFFFFFFF000
3FFFFFFFFFFFFFFFFFFFFFFFFFFFFFF000
3FFFFFFFFFFFFFFFFFFFFFFFFFFFFFE000
3FFFFFFFFFFFFFFFFFFFFFFFFFFFFFC000
3FFFFFFFFFFFFFFFFFFFFFFFFFFFFF8000
3FFFFFFFFFFFFFFFFFFFFFFFFFFFFF0000
3FFFFFFFFFFFFFFFFFFFFFFFFFFFFE0000
3FFFFFFFFFFFFFFFFFFFFFFFFFFFFC0000
3FFFFFFFFFFFFFFFFFFFFFFFFFFFF80000
3FFFFFFFFFFFFFFFFFFFFFFFFFFFE00000
3FFFFFFFFFFFFFFFFFFFFFFFFFFF800000
3FFFFFFFFFFFFFFFFFFFFFFFFFFE000000
3FFFFFFFFFFFFFFFFFFFFFFFFFF8000000
3FFFFFFFFFFFFFFFFFFFFFFFFF80000000
3FFFFFFFFFFFFFFFFFFFFFFFF000000000
ENDCHAR
STARTCHAR T
ENCODING 84
SWIDTH 720 0
DWIDTH 120 0
BBX 114 122 3 0
BITMAP
FFFFFFFFFFFFFFFFFFFFFFFFFFFFC0
FFFFFFFFFFFFFFFFFFFFFFFFFFFFC0
FFFFFFFFFFFFFFFFFFFFFFFFFFFFC0
FFFFFFFFFFFFFFFFFFFFFFFFFFFFC0
FFFFFFFFFFFFFFFFFFFFFFFFFFFFC0
FFFFFFFFFFFFFFFFFFFFFFFFFFFFC0
FFFFFFFFFFFFFFFFFFFFFFFFFFFFC0
FFFFFFFFFFFFFFFFFFFFFFFFFFFFC0
FFFFFFFFFFFFFFFFFFFFFFFFFFFFC0
FFFFFFFFFFFFFFFFFFFFFFFFFFFFC0
FFFFFFFFFFFFFFFFFFFFFFFFFFFFC0
FFFFFFFFFFFFFFFFFFFFFFFFFFFFC0
FFFFFFFFFFFFFFFFFFFFFFFFFFFFC0
FFFFFFFFFFFFFFFFFFFFFFFFFFFFC0
FFFFFFFFFFFFFFFFFFFFFFFFFFFFC0
FFFFFFFFFFFFFFFFFFFFFFFFFFFFC0
FFFFFFFFFFFFFFFFFFFFFFFFFFFFC0
FFFFFFFFFFFFFFFFFFFFFFFFFFFFC0
FFFFFFFFFFFFFFFFFFFFFFFFFFFFC0
FFFFFFFFFFFFFFFFFFFFFFFFFFFFC0
FFFFFFFFFFFFFFFFFFFFFFFFFFFFC0
000000000003FFFFF0000000000000
000000000003FFFFF0000000000000
000000000003FFFFF0000000000000
000000000003FFFFF0000000000000
000000000003FFFFF0000000000000
000000000003FFFFF0000000000000
000000000003FFFFF0000000000000
000000000003FFFFF0000000000000
000000000003FFFFF0000000000000
000000000003FFFFF0000000000000
000000000003FFFFF0000000000000
000000000003FFFFF0000000000000
000000000003FFFFF0000000000000
000000000003FFFFF0000000000000
000000000003FFFFF0000000000000
000000000003FFFFF0000000000000
000000000003FFFFF0000000000000
000000000003FFFFF0000000000000
000000000003FFFFF0000000000000
000000000003FFFFF0000000000000
000000000003FFFFF0000000000000
000000000003FFFFF0000000000000
000000000003FFFFF0000000000000
000000000003FFFFF0000000000000
000000000003FFFFF0000000000000
000000000003FFFFF0000000000000
000000000003FFFFF0000000000000
000000000003FFFFF0000000000000
000000000003FFFFF0000000000000
000000000003FFFFF0000000000000
000000000003FFFFF0000000000000
000000000003FFFFF0000000000000
000000000003FFFFF0000000000000
000000000003FFFFF0000000000000
000000000003FFFFF0000000000000
000000000003FFFFF0000000000000
000000000003FFFFF0000000000000
000000000003FFFFF0000000000000
000000000003FFFFF0000000000000
000000000003FFFFF0000000000000
000000000003FFFFF0000000000000
000000000003FFFFF0000000000000
000000000003FFFFF0000000000000
000000000003FFFFF0000000000000
000000000003FFFFF0000000000000
000000000003FFFFF0000000000000
000000000003FFFFF0000000000000
000000000003FFFFF0000000000000
000000000003FFFFF0000000000000
000000000003FFFFF0000000000000
000000000003FFFFF0000000000000
000000000003FFFFF0000000000000
000000000003FFFFF0000000000000
000000000003FFFFF0000000000000
000000000003FFFFF0000000000000
000000000003FFFFF0000000000000
000000000003FFFFF0000000000000
000000000003FFFFF0000000000000
000000000003FFFFF0000000000000
000000000003FFFFF0000000000000
000000000003FFFFF0000000000000
000000000003FFFFF0000000000000
000000000003FFFFF0000000000000
000000000003FFFFF0000000000000
000000000003FFFFF0000000000000
000000000003FFFFF0000000000000
000000000003FFFFF0000000000000
000000000003FFFFF0000000000000
000000000003FFFFF0000000000000
000000000003FFFFF0000000000000
000000000003FFFFF0000000000000
000000000003FFFFF0000000000000
000000000003FFFFF0000000000000
000000000003FFFFF0000000000000
000000000003FFFFF0000000000000
000000000003FFFFF0000000000000
000000000003FFFFF0000000000000
000000000003FFFFF0000000000000
000000000003FFFFF0000000000000
000000000003FFFFF0000000000000
000000000003FFFFF0000000000000
000000000003FFFFF0000000000000
000000000003FFFFF0000000000000
000000000003FFFFF0000000000000
000000000003FFFFF0000000000000
000000000003FFFFF0000000000000
000000000003FFFFF0000000000000
000000000003FFFFF0000000000000
000000000003FFFFF0000000000000
000000000003FFFFF0000000000000
000000000003FFFFF0000000000000
000000000003FFFFF0000000000000
000000000003FFFFF0000000000000
000000000003FFFFF0000000000000
000000000003FFFFF0000000000000
000000000003FFFFF0000000000000
000000000003FFFFF0000000000000
000000000003FFFFF0000000000000
000000000003FFFFF0000000000000
000000000003FFFFF0000000000000
000000000003FFFFF0000000000000
ENDCHAR
STARTCHAR U
ENCODING 85
SWIDTH 889 0
DWIDTH 148 0
BBX 131 124 9 -2
BITMAP
FFFFFC0000000000000000000003FFFFE0
FFFFFC0000000000000000000003FFFFE0
FFFFFC0000000000000000000003FFFFE0
FFFFFC0000000000000000000003FFFFE0
FFFFFC0000000000000000000003FFFFE0
FFFFFC0000000000000000000003FFFFE0
FFFFFC0000000000000000000003FFFFE0
FFFFFC0000000000000000000003FFFFE0
FFFFFC0000000000000000000003FFFFE0
FFFFFC0000000000000000000003FFFFE0
FFFFFC0000000000000000000003FFFFE0
FFFFFC0000000000000000000003FFFFE0
FFFFFC0000000000000000000003FFFFE0
FFFFFC0000000000000000000003FFFFE0
FFFFFC0000000000000000000003FFFFE0
FFFFFC0000000000000000000003FFFFE0
FFFFFC0000000000000000000003FFFFE0
FFFFFC0000000000000000000003FFFFE0
FFFFFC0000000000000000000003FFFFE0
FFFFFC0000000000000000000003FFFFE0
FFFFFC0000000000000000000003FFFFE0
FFFFFC0000000000000000000003FFFFE0
FFFFFC0000000000000000000003FFFFE0
FFFFFC0000000000000000000003FFFFE0
FFFFFC0000000000000000000003FFFFE0
FFFFFC0000000000000000000003FFFFE0
FFFFFC0000000000000000000003FFFFE0
FFFFFC0000000000000000000003FFFFE0
FFFFFC0000000000000000000003FFFFE0
FFFFFC0000000000000000000003FFFFE0
FFFFFC0000000000000000000003FFFFE0
FFFFFC0000000000000000000003FFFFE0
FFFFFC0000000000000000000003FFFFE0
FFFFFC0000000000000000000003FFFFE0
FFFFFC0000000000000000000003FFFFE0
FFFFFC0000000000000000000003FFFFE0
FFFFFC0000000000000000000003FFFFE0
FFFFFC0000000000000000000003FFFFE0
FFFFFC0000000000000000000003FFFFE0
FFFFFC0000000000000000000003FFFFE0
FFFFFC0000000000000000000003FFFFE0
FFFFFC0000000000000000000003FFFFE0
FFFFFC0000000000000000000003FFFFE0
FFFFFC0000000000000000000003FFFFE0
FFFFFC0000000000000000000003FFFFE0
FFFFFC0000000000000000000003FFFFE0
FFFFFC0000000000000000000003FFFFE0
FFFFFC0000000000000000000003FFFFE0
FFFFFC0000000000000000000003FFFFE0
FFFFFC0000000000000000000003FFFFE0
FFFFFC0000000000000000000003FFFFE0
FFFFFC0000000000000000000003FFFFE0
FFFFFC0000000000000000000003FFFFE0
FFFFFC0000000000000000000003FFFFE0
FFFFFC0000000000000000000003FFFFE0
FFFFFC0000000000000000000003FFFFE0
FFFFFC0000000000000000000003FFFFE0
FFFFFC0000000000000000000003FFFFE0
FFFFFC0000000000000000000003FFFFE0
FFFFFC0000000000000000000003FFFFE0
FFFFFC0000000000000000000003FFFFE0
FFFFFC0000000000000000000003FFFFE0
FFFFFC0000000000000000000003FFFFE0
FFFFFC0000000000000000000003FFFFE0
FFFFFC0000000000000000000003FFFFE0
FFFFFC0000000000000000000003FFFFE0
FFFFFC0000000000000000000003FFFFE0
FFFFFC0000000000000000000003FFFFE0
FFFFFC0000000000000000000003FFFFE0
FFFFFC0000000000000000000003FFFFE0
FFFFFC0000000000000000000003FFFFE0
FFFFFC0000000000000000000003FFFFE0
FFFFFC0000000000000000000003FFFFE0
FFFFFC0000000000000000000003FFFFE0
FFFFFC0000000000000000000003FFFFE0
FFFFFC0000000000000000000003FFFFE0
FFFFFC0000000000000000000003FFFFC0
FFFFFC0000000000000000000007FFFFC0
FFFFFC0000000000000000000007FFFFC0
FFFFFE0000000000000000000007FFFFC0
FFFFFE0000000000000000000007FFFFC0
7FFFFE0000000000000000000007FFFFC0
7FFFFE000000000000000000000FFFFFC0
7FFFFF000000000000000000000FFFFFC0
7FFFFF000000000000000000000FFFFF80
7FFFFF000000000000000000001FFFFF80
7FFFFF800000000000000000001FFFFF80
3FFFFF800000000000000000003FFFFF80
3FFFFFC00000000000000000003FFFFF00
3FFFFFE00000000000000000007FFFFF00
1FFFFFE0000000000000000000FFFFFF00
1FFFFFF0000000000000000000FFFFFF00
1FFFFFF8000000000000000001FFFFFE00
0FFFFFFC000000000000000003FFFFFE00
0FFFFFFE000000000000000007FFFFFE00
0FFFFFFF00000000000000001FFFFFFC00
07FFFFFFC0000000000000003FFFFFFC00
07FFFFFFF000000000000000FFFFFFF800
03FFFFFFFC00000000000003FFFFFFF800
03FFFFFFFF0000000000001FFFFFFFF000
01FFFFFFFFF00000000000FFFFFFFFF000
01FFFFFFFFFF800000001FFFFFFFFFE000
00FFFFFFFFFFFFF801FFFFFFFFFFFFC000
007FFFFFFFFFFFFFFFFFFFFFFFFFFFC000
007FFFFFFFFFFFFFFFFFFFFFFFFFFF8000
003FFFFFFFFFFFFFFFFFFFFFFFFFFF0000
001FFFFFFFFFFFFFFFFFFFFFFFFFFE0000
000FFFFFFFFFFFFFFFFFFFFFFFFFFE0000
0007FFFFFFFFFFFFFFFFFFFFFFFFFC0000
0003FFFFFFFFFFFFFFFFFFFFFFFFF80000
0001FFFFFFFFFFFFFFFFFFFFFFFFE00000
0000FFFFFFFFFFFFFFFFFFFFFFFFC00000
00007FFFFFFFFFFFFFFFFFFFFFFF800000
00001FFFFFFFFFFFFFFFFFFFFFFF000000
00000FFFFFFFFFFFFFFFFFFFFFFC000000
000003FFFFFFFFFFFFFFFFFFFFF0000000
000000FFFFFFFFFFFFFFFFFFFFC0000000
0000003FFFFFFFFFFFFFFFFFFF00000000
00000007FFFFFFFFFFFFFFFFFC00000000
00000001FFFFFFFFFFFFFFFFE000000000
000000001FFFFFFFFFFFFFFF0000000000
0000000001FFFFFFFFFFFFF00000000000
00000000000FFFFFFFFFFC000000000000
0000000000000FFFFFFC00000000000000
ENDCHAR
STARTCHAR V
ENCODING 86
SWIDTH 989 0
DWIDTH 165 0
BBX 161 124 2 -2
BITMAP
FFFFFFE000000000000000000000000000FFFFFF80
7FFFFFE000000000000000000000000001FFFFFF00
3FFFFFF000000000000000000000000001FFFFFE00
3FFFFFF000000000000000000000000003FFFFFE00
1FFFFFF800000000000000000000000003FFFFFC00
0FFFFFF800000000000000000000000007FFFFF800
0FFFFFFC0000000000000000000000000FFFFFF800
07FFFFFE0000000000000000000000000FFFFFF000
07FFFFFE0000000000000000000000001FFFFFF000
03FFFFFF0000000000000000000000001FFFFFE000
01FFFFFF0000000000000000000000003FFFFFC000
01FFFFFF8000000000000000000000003FFFFFC000
00FFFFFFC000000000000000000000007FFFFF8000
00FFFFFFC00000000000000000000000FFFFFF8000
007FFFFFE00000000000000000000000FFFFFF0000
003FFFFFE00000000000000000000001FFFFFE0000
003FFFFFF00000000000000000000001FFFFFE0000
001FFFFFF00000000000000000000003FFFFFC0000
001FFFFFF80000000000000000000007FFFFFC0000
000FFFFFFC0000000000000000000007FFFFF80000
0007FFFFFC000000000000000000000FFFFFF00000
0007FFFFFE000000000000000000000FFFFFF00000
0003FFFFFE000000000000000000001FFFFFE00000
0003FFFFFF000000000000000000001FFFFFE00000
0001FFFFFF800000000000000000003FFFFFC00000
0000FFFFFF800000000000000000007FFFFF800000
0000FFFFFFC00000000000000000007FFFFF800000
00007FFFFFC0000000000000000000FFFFFF000000
00007FFFFFE0000000000000000000FFFFFF000000
00003FFFFFE0000000000000000001FFFFFE000000
00001FFFFFF0000000000000000003FFFFFC000000
00001FFFFFF8000000000000000003FFFFFC000000
00000FFFFFF8000000000000000007FFFFF8000000
00000FFFFFFC000000000000000007FFFFF8000000
000007FFFFFC00000000000000000FFFFFF0000000
000003FFFFFE00000000000000000FFFFFE0000000
000003FFFFFF00000000000000001FFFFFE0000000
000001FFFFFF00000000000000003FFFFFC0000000
000001FFFFFF80000000000000003FFFFFC0000000
000000FFFFFF80000000000000007FFFFF80000000
0000007FFFFFC0000000000000007FFFFF00000000
0000007FFFFFC000000000000000FFFFFF00000000
0000003FFFFFE000000000000001FFFFFE00000000
0000003FFFFFF000000000000001FFFFFE00000000
0000001FFFFFF000000000000003FFFFFC00000000
0000000FFFFFF800000000000003FFFFF800000000
0000000FFFFFF800000000000007FFFFF800000000
00000007FFFFFC00000000000007FFFFF000000000
00000007FFFFFE0000000000000FFFFFF000000000
00000003FFFFFE0000000000001FFFFFE000000000
00000001FFFFFF0000000000001FFFFFC000000000
00000001FFFFFF0000000000003FFFFFC000000000
00000000FFFFFF8000000000003FFFFF8000000000
00000000FFFFFF8000000000007FFFFF8000000000
000000007FFFFFC00000000000FFFFFF0000000000
000000003FFFFFE00000000000FFFFFE0000000000
000000003FFFFFE00000000001FFFFFE0000000000
000000001FFFFFF00000000001FFFFFC0000000000
000000001FFFFFF00000000003FFFFFC0000000000
000000000FFFFFF80000000003FFFFF80000000000
0000000007FFFFFC0000000007FFFFF00000000000
0000000007FFFFFC000000000FFFFFF00000000000
0000000003FFFFFE000000000FFFFFE00000000000
0000000003FFFFFE000000001FFFFFE00000000000
0000000001FFFFFF000000001FFFFFC00000000000
0000000000FFFFFF800000003FFFFF800000000000
0000000000FFFFFF800000003FFFFF800000000000
00000000007FFFFFC00000007FFFFF000000000000
00000000007FFFFFC0000000FFFFFF000000000000
00000000003FFFFFE0000000FFFFFE000000000000
00000000001FFFFFE0000001FFFFFC000000000000
00000000001FFFFFF0000001FFFFFC000000000000
00000000000FFFFFF8000003FFFFF8000000000000
00000000000FFFFFF8000007FFFFF8000000000000
000000000007FFFFFC000007FFFFF0000000000000
000000000003FFFFFC00000FFFFFE0000000000000
000000000003FFFFFE00000FFFFFE0000000000000
000000000001FFFFFF00001FFFFFC0000000000000
000000000001FFFFFF00001FFFFFC0000000000000
000000000000FFFFFF80003FFFFF80000000000000
0000000000007FFFFF80007FFFFF00000000000000
0000000000007FFFFFC0007FFFFF00000000000000
0000000000003FFFFFC000FFFFFE00000000000000
0000000000003FFFFFE000FFFFFE00000000000000
0000000000001FFFFFF001FFFFFC00000000000000
0000000000000FFFFFF003FFFFF800000000000000
0000000000000FFFFFF803FFFFF800000000000000
00000000000007FFFFF807FFFFF000000000000000
00000000000007FFFFFC07FFFFF000000000000000
00000000000003FFFFFE0FFFFFE000000000000000
00000000000001FFFFFE0FFFFFC000000000000000
00000000000001FFFFFF1FFFFFC000000000000000
00000000000000FFFFFF3FFFFF8000000000000000
00000000000000FFFFFFBFFFFF8000000000000000
000000000000007FFFFFFFFFFF0000000000000000
000000000000007FFFFFFFFFFE0000000000000000
000000000000003FFFFFFFFFFE0000000000000000
000000000000001FFFFFFFFFFC0000000000000000
000000000000001FFFFFFFFFFC0000000000000000
000000000000000FFFFFFFFFF80000000000000000
000000000000000FFFFFFFFFF00000000000000000
0000000000000007FFFFFFFFF00000000000000000
0000000000000003FFFFFFFFE00000000000000000
0000000000000003FFFFFFFFE00000000000000000
0000000000000001FFFFFFFFC00000000000000000
0000000000000001FFFFFFFF800000000000000000
0000000000000000FFFFFFFF800000000000000000
00000000000000007FFFFFFF000000000000000000
00000000000000007FFFFFFF000000000000000000
00000000000000003FFFFFFE000000000000000000
00000000000000003FFFFFFC000000000000000000
00000000000000001FFFFFFC000000000000000000
00000000000000000FFFFFF8000000000000000000
00000000000000000FFFFFF8000000000000000000
000000000000000007FFFFF0000000000000000000
000000000000000007FFFFE0000000000000000000
000000000000000003FFFFE0000000000000000000
000000000000000001FFFFC0000000000000000000
000000000000000001FFFF80000000000000000000
000000000000000000FFFF80000000000000000000
0000000000000000007FFF00000000000000000000
0000000000000000003FFE00000000000000000000
0000000000000000000FF800000000000000000000
000000000000000000008000000000000000000000
ENDCHAR
STARTCHAR W
ENCODING 87
SWIDTH 1268 0
DWIDTH 212 0
BBX 207 124 2 -2
BITMAP
FFFFFFC000000003FFFFFE000000000000000000000001FFFFFE
7FFFFFE000000003FFFFFF000000000000000000000001FFFFFC
3FFFFFE000000001FFFFFF000000000000000000000003FFFFFC
3FFFFFF000000001FFFFFF800000000000000000000003FFFFF8
1FFFFFF000000000FFFFFF800000000000000000000007FFFFF8
1FFFFFF800000000FFFFFFC00000000000000000000007FFFFF0
0FFFFFF8000000007FFFFFC0000000000000000000000FFFFFF0
0FFFFFFC000000003FFFFFE0000000000000000000000FFFFFE0
07FFFFFC000000003FFFFFE0000000000000000000001FFFFFE0
07FFFFFE000000001FFFFFF0000000000000000000001FFFFFC0
03FFFFFE000000001FFFFFF0000000000000000000003FFFFFC0
03FFFFFF000000000FFFFFF8000000000000000000007FFFFF80
01FFFFFF000000000FFFFFF8000000000000000000007FFFFF80
00FFFFFF8000000007FFFFFC00000000000000000000FFFFFF00
00FFFFFF8000000007FFFFFC00000000000000000000FFFFFF00
007FFFFFC000000003FFFFFE00000000000000000001FFFFFE00
007FFFFFC000000003FFFFFE00000000000000000001FFFFFC00
003FFFFFE000000001FFFFFF00000000000000000003FFFFFC00
003FFFFFE000000001FFFFFF00000000000000000003FFFFF800
001FFFFFF000000000FFFFFF80000000000000000007FFFFF800
001FFFFFF000000000FFFFFF80000000000000000007FFFFF000
000FFFFFF8000000007FFFFFC000000000000000000FFFFFF000
000FFFFFF8000000007FFFFFC000000000000000000FFFFFE000
0007FFFFFC000000003FFFFFE000000000000000001FFFFFE000
0007FFFFFE000000003FFFFFE000000000000000001FFFFFC000
0003FFFFFE000000001FFFFFF000000000000000003FFFFFC000
0001FFFFFF000000001FFFFFF000000000000000003FFFFF8000
0001FFFFFF000000000FFFFFF800000000000000007FFFFF8000
0000FFFFFF800000000FFFFFF800000000000000007FFFFF0000
0000FFFFFF8000000007FFFFFC0000000000000000FFFFFE0000
00007FFFFFC000000007FFFFFC0000000000000000FFFFFE0000
00007FFFFFC000000003FFFFFE0000000000000001FFFFFC0000
00003FFFFFE000000003FFFFFE0000000000000003FFFFFC0000
00003FFFFFE000000001FFFFFF0000000000000003FFFFF80000
00001FFFFFF000000001FFFFFF0000000000000007FFFFF80000
00001FFFFFF000000000FFFFFF8000000000000007FFFFF00000
00000FFFFFF8000000007FFFFF800000000000000FFFFFF00000
00000FFFFFF8000000007FFFFFC00000000000000FFFFFE00000
000007FFFFFC000000003FFFFFC00000000000001FFFFFE00000
000007FFFFFC000000003FFFFFE00000000000001FFFFFC00000
000003FFFFFE000000001FFFFFE00000000000003FFFFFC00000
000001FFFFFE000000001FFFFFF00000000000003FFFFF800000
000001FFFFFF000000000FFFFFF00000000000007FFFFF800000
000000FFFFFF000000000FFFFFF80000000000007FFFFF000000
000000FFFFFF8000000007FFFFF8000000000000FFFFFE000000
0000007FFFFF8000000007FFFFFC000000000000FFFFFE000000
0000007FFFFFC000000003FFFFFC000000000001FFFFFC000000
0000003FFFFFC000000003FFFFFE000000000001FFFFFC000000
0000003FFFFFE000000001FFFFFE000000000003FFFFF8000000
0000001FFFFFF000000001FFFFFF000000000003FFFFF8000000
0000001FFFFFF000000000FFFFFF000000000007FFFFF0000000
0000000FFFFFF800000000FFFFFF80000000000FFFFFF0000000
0000000FFFFFF8000000007FFFFF80000000000FFFFFE0000000
00000007FFFFFC000000007FFFFFC0000000001FFFFFE0000000
00000003FFFFFC000000003FFFFFC0000000001FFFFFC0000000
00000003FFFFFE000000003FFFFFE0000000003FFFFFC0000000
00000001FFFFFE000000001FFFFFE0000000003FFFFF80000000
00000001FFFFFF000000001FFFFFF0000000007FFFFF00000000
00000000FFFFFF000000000FFFFFF0000000007FFFFF00000000
00000000FFFFFF800000000FFFFFF800000000FFFFFE00000000
000000007FFFFF8000000007FFFFF800000000FFFFFE00000000
000000007FFFFFC000000007FFFFFC00000001FFFFFC00000000
000000003FFFFFC00000000FFFFFFC00000001FFFFFC00000000
000000003FFFFFE00000000FFFFFFE00000003FFFFF800000000
000000001FFFFFE00000001FFFFFFE00000003FFFFF800000000
000000001FFFFFF00000001FFFFFFF00000007FFFFF000000000
000000000FFFFFF00000003FFFFFFF00000007FFFFF000000000
000000000FFFFFF80000003FFFFFFF8000000FFFFFE000000000
0000000007FFFFF80000007FFFFFFF8000000FFFFFE000000000
0000000003FFFFFC000000FFFFFFFFC000001FFFFFC000000000
0000000003FFFFFC000000FFFFFFFFC000001FFFFFC000000000
0000000001FFFFFE000001FFFFFFFFE000003FFFFF8000000000
0000000001FFFFFF000001FFFFFFFFE000007FFFFF0000000000
0000000000FFFFFF000003FFFFFFFFF000007FFFFF0000000000
0000000000FFFFFF800003FFFFFFFFF00000FFFFFE0000000000
00000000007FFFFF800007FFFFFFFFF80000FFFFFE0000000000
00000000007FFFFFC00007FFFFFFFFF80001FFFFFC0000000000
00000000003FFFFFC0000FFFFFFFFFFC0001FFFFFC0000000000
00000000003FFFFFE0001FFFFFFFFFFC0003FFFFF80000000000
00000000001FFFFFE0001FFFFFFFFFFE0003FFFFF80000000000
00000000001FFFFFF0003FFFFFFFFFFE0007FFFFF00000000000
00000000000FFFFFF0003FFFFFFFFFFF0007FFFFF00000000000
000000000007FFFFF8007FFFFEFFFFFF000FFFFFE00000000000
000000000007FFFFF8007FFFFE7FFFFF800FFFFFE00000000000
000000000003FFFFFC00FFFFFC7FFFFF801FFFFFC00000000000
000000000003FFFFFC00FFFFFC3FFFFFC01FFFFF800000000000
000000000001FFFFFE01FFFFF83FFFFFC03FFFFF800000000000
000000000001FFFFFE03FFFFF81FFFFFE03FFFFF000000000000
000000000000FFFFFF03FFFFF00FFFFFE07FFFFF000000000000
000000000000FFFFFF07FFFFF00FFFFFF07FFFFE000000000000
0000000000007FFFFF87FFFFE007FFFFF0FFFFFE000000000000
0000000000007FFFFF8FFFFFE007FFFFF9FFFFFC000000000000
0000000000003FFFFFCFFFFFC003FFFFF9FFFFFC000000000000
0000000000003FFFFFDFFFFFC003FFFFFFFFFFF8000000000000
0000000000001FFFFFFFFFFF8001FFFFFFFFFFF8000000000000
0000000000001FFFFFFFFFFF8001FFFFFFFFFFF0000000000000
0000000000000FFFFFFFFFFF0000FFFFFFFFFFF0000000000000
00000000000007FFFFFFFFFE0000FFFFFFFFFFE0000000000000
00000000000007FFFFFFFFFE00007FFFFFFFFFE0000000000000
00000000000003FFFFFFFFFC00007FFFFFFFFFC0000000000000
00000000000003FFFFFFFFFC00003FFFFFFFFF80000000000000
00000000000001FFFFFFFFF800003FFFFFFFFF80000000000000
00000000000001FFFFFFFFF800001FFFFFFFFF00000000000000
00000000000000FFFFFFFFF000001FFFFFFFFF00000000000000
00000000000000FFFFFFFFF000000FFFFFFFFE00000000000000
000000000000007FFFFFFFE000000FFFFFFFFE00000000000000
000000000000007FFFFFFFE0000007FFFFFFFC00000000000000
000000000000003FFFFFFFC0000007FFFFFFFC00000000000000
000000000000003FFFFFFFC0000003FFFFFFF800000000000000
000000000000001FFFFFFF80000003FFFFFFF800000000000000
000000000000001FFFFFFF80000001FFFFFFF000000000000000
000000000000000FFFFFFF00000000FFFFFFF000000000000000
0000000000000007FFFFFF00000000FFFFFFE000000000000000
0000000000000007FFFFFE000000007FFFFFC000000000000000
0000000000000003FFFFFC000000007FFFFFC000000000000000
0000000000000003FFFFFC000000003FFFFF8000000000000000
0000000000000001FFFFF8000000003FFFFF8000000000000000
0000000000000001FFFFF8000000001FFFFF0000000000000000
0000000000000000FFFFF0000000001FFFFF0000000000000000
00000000000000007FFFF0000000000FFFFE0000000000000000
00000000000000007FFFE00000000007FFFC0000000000000000
00000000000000001FFFC00000000003FFF80000000000000000
00000000000000000FFF000000000000FFE00000000000000000
000000000000000003FC0000000000003F800000000000000000
ENDCHAR
STARTCHAR X
ENCODING 88
SWIDTH 1000 0
DWIDTH 167 0
BBX 158 122 4 0
BITMAP
0FFFFFFFC00000000000000000000007FFFFFF80
03FFFFFFE0000000000000000000000FFFFFFE00
01FFFFFFF0000000000000000000001FFFFFFC00
00FFFFFFF8000000000000000000003FFFFFF800
007FFFFFFC000000000000000000007FFFFFF000
003FFFFFFE00000000000000000000FFFFFFE000
001FFFFFFF00000000000000000001FFFFFFC000
000FFFFFFF80000000000000000003FFFFFF8000
0007FFFFFFC0000000000000000007FFFFFF0000
0003FFFFFFE000000000000000000FFFFFFE0000
0001FFFFFFF000000000000000001FFFFFFC0000
0000FFFFFFF800000000000000003FFFFFF80000
00007FFFFFFC00000000000000007FFFFFF00000
00003FFFFFFE0000000000000000FFFFFFE00000
00001FFFFFFF0000000000000001FFFFFFC00000
00000FFFFFFF8000000000000003FFFFFF800000
000007FFFFFFC000000000000007FFFFFF000000
000003FFFFFFF00000000000000FFFFFFE000000
000001FFFFFFF80000000000001FFFFFFC000000
000000FFFFFFFC0000000000003FFFFFF8000000
0000003FFFFFFE0000000000007FFFFFF0000000
0000001FFFFFFF000000000000FFFFFFE0000000
0000000FFFFFFF800000000001FFFFFFC0000000
00000007FFFFFFC00000000003FFFFFF80000000
00000003FFFFFFE00000000007FFFFFF00000000
00000001FFFFFFF0000000000FFFFFFE00000000
00000000FFFFFFF8000000001FFFFFFC00000000
000000007FFFFFFC000000003FFFFFF800000000
000000003FFFFFFE000000007FFFFFF000000000
000000001FFFFFFF00000000FFFFFFE000000000
000000000FFFFFFF80000001FFFFFFC000000000
0000000007FFFFFFC0000003FFFFFF0000000000
0000000003FFFFFFE0000007FFFFFE0000000000
0000000001FFFFFFF000000FFFFFFC0000000000
0000000000FFFFFFF800001FFFFFF80000000000
00000000007FFFFFFC00003FFFFFF00000000000
00000000003FFFFFFE00007FFFFFE00000000000
00000000001FFFFFFF0000FFFFFFC00000000000
00000000000FFFFFFF8001FFFFFF800000000000
000000000007FFFFFFC003FFFFFF000000000000
000000000003FFFFFFE007FFFFFE000000000000
000000000001FFFFFFF01FFFFFFC000000000000
000000000000FFFFFFF83FFFFFF8000000000000
0000000000007FFFFFFC7FFFFFF0000000000000
0000000000003FFFFFFEFFFFFFE0000000000000
0000000000001FFFFFFFFFFFFFC0000000000000
0000000000000FFFFFFFFFFFFF80000000000000
00000000000007FFFFFFFFFFFF00000000000000
00000000000003FFFFFFFFFFFE00000000000000
00000000000001FFFFFFFFFFFC00000000000000
00000000000000FFFFFFFFFFF800000000000000
000000000000007FFFFFFFFFF000000000000000
000000000000001FFFFFFFFFE000000000000000
000000000000000FFFFFFFFFC000000000000000
0000000000000007FFFFFFFF8000000000000000
0000000000000003FFFFFFFF0000000000000000
0000000000000001FFFFFFFE0000000000000000
0000000000000000FFFFFFFC0000000000000000
00000000000000007FFFFFF80000000000000000
0000000000000000FFFFFFF80000000000000000
0000000000000001FFFFFFFE0000000000000000
0000000000000003FFFFFFFF0000000000000000
0000000000000007FFFFFFFF8000000000000000
000000000000000FFFFFFFFFC000000000000000
000000000000001FFFFFFFFFE000000000000000
000000000000003FFFFFFFFFF000000000000000
000000000000007FFFFFFFFFF800000000000000
00000000000000FFFFFFFFFFFC00000000000000
00000000000001FFFFFFFFFFFE00000000000000
00000000000003FFFFFFFFFFFF00000000000000
00000000000007FFFFFFFFFFFF80000000000000
0000000000000FFFFFFFFFFFFFC0000000000000
0000000000003FFFFFFBFFFFFFE0000000000000
0000000000007FFFFFF1FFFFFFF0000000000000
000000000000FFFFFFE0FFFFFFF8000000000000
000000000001FFFFFFC07FFFFFFC000000000000
000000000003FFFFFF803FFFFFFE000000000000
000000000007FFFFFF001FFFFFFF000000000000
00000000000FFFFFFE000FFFFFFF800000000000
00000000001FFFFFFC0007FFFFFFC00000000000
00000000003FFFFFF80003FFFFFFE00000000000
00000000007FFFFFF00001FFFFFFF00000000000
0000000000FFFFFFE00000FFFFFFF80000000000
0000000001FFFFFFC000007FFFFFFC0000000000
0000000003FFFFFF8000003FFFFFFE0000000000
0000000007FFFFFF0000001FFFFFFF0000000000
000000000FFFFFFE0000000FFFFFFFC000000000
000000001FFFFFFC00000007FFFFFFE000000000
000000003FFFFFF800000003FFFFFFF000000000
000000007FFFFFF000000001FFFFFFF800000000
00000000FFFFFFE000000000FFFFFFFC00000000
00000001FFFFFFC0000000007FFFFFFE00000000
00000003FFFFFF80000000003FFFFFFF00000000
00000007FFFFFF00000000001FFFFFFF80000000
0000000FFFFFFE00000000000FFFFFFFC0000000
0000001FFFFFFC000000000007FFFFFFE0000000
0000003FFFFFF8000000000001FFFFFFF0000000
0000007FFFFFF0000000000000FFFFFFF8000000
000000FFFFFFE00000000000007FFFFFFC000000
000001FFFFFFC00000000000003FFFFFFE000000
000003FFFFFF800000000000001FFFFFFF000000
000007FFFFFF000000000000000FFFFFFF800000
00000FFFFFFE0000000000000007FFFFFFC00000
00001FFFFFFC0000000000000003FFFFFFE00000
00003FFFFFF80000000000000001FFFFFFF00000
00007FFFFFF00000000000000000FFFFFFF80000
0000FFFFFFE000000000000000007FFFFFFC0000
0001FFFFFFC000000000000000003FFFFFFE0000
0003FFFFFF8000000000000000001FFFFFFF0000
000FFFFFFF0000000000000000000FFFFFFF8000
001FFFFFFE00000000000000000007FFFFFFC000
003FFFFFFC00000000000000000003FFFFFFE000
007FFFFFF800000000000000000001FFFFFFF000
00FFFFFFF000000000000000000000FFFFFFFC00
01FFFFFFE0000000000000000000007FFFFFFE00
03FFFFFFC0000000000000000000003FFFFFFF00
07FFFFFF80000000000000000000001FFFFFFF80
0FFFFFFF00000000000000000000000FFFFFFFC0
1FFFFFFE000000000000000000000007FFFFFFE0
3FFFFFFC000000000000000000000003FFFFFFF0
7FFFFFF8000000000000000000000001FFFFFFF8
FFFFFFF0000000000000000000000000FFFFFFFC
ENDCHAR
STARTCHAR Y
ENCODING 89
SWIDTH 926 0
DWIDTH 155 0
BBX 150 122 2 0
BITMAP
FFFFFFF800000000000000000000001FFFFFFC
7FFFFFFC00000000000000000000003FFFFFF8
3FFFFFFE00000000000000000000007FFFFFF0
1FFFFFFF0000000000000000000000FFFFFFF0
0FFFFFFF8000000000000000000000FFFFFFE0
07FFFFFF8000000000000000000001FFFFFFC0
03FFFFFFC000000000000000000003FFFFFF80
01FFFFFFE000000000000000000007FFFFFF00
01FFFFFFF00000000000000000000FFFFFFE00
00FFFFFFF80000000000000000001FFFFFFC00
007FFFFFFC0000000000000000001FFFFFFC00
003FFFFFFC0000000000000000003FFFFFF800
001FFFFFFE0000000000000000007FFFFFF000
000FFFFFFF000000000000000000FFFFFFE000
0007FFFFFF800000000000000001FFFFFFC000
0007FFFFFFC00000000000000003FFFFFF8000
0003FFFFFFE00000000000000007FFFFFF0000
0001FFFFFFE00000000000000007FFFFFF0000
0000FFFFFFF0000000000000000FFFFFFE0000
00007FFFFFF8000000000000001FFFFFFC0000
00003FFFFFFC000000000000003FFFFFF80000
00003FFFFFFE000000000000007FFFFFF00000
00001FFFFFFF00000000000000FFFFFFE00000
00000FFFFFFF80000000000000FFFFFFC00000
000007FFFFFF80000000000001FFFFFFC00000
000003FFFFFFC0000000000003FFFFFF800000
000001FFFFFFE0000000000007FFFFFF000000
000000FFFFFFF000000000000FFFFFFE000000
000000FFFFFFF800000000001FFFFFFC000000
0000007FFFFFFC00000000001FFFFFF8000000
0000003FFFFFFC00000000003FFFFFF0000000
0000001FFFFFFE00000000007FFFFFF0000000
0000000FFFFFFF0000000000FFFFFFE0000000
00000007FFFFFF8000000001FFFFFFC0000000
00000003FFFFFFC000000003FFFFFF80000000
00000003FFFFFFE000000007FFFFFF00000000
00000001FFFFFFE000000007FFFFFE00000000
00000000FFFFFFF00000000FFFFFFC00000000
000000007FFFFFF80000001FFFFFFC00000000
000000003FFFFFFC0000003FFFFFF800000000
000000001FFFFFFE0000007FFFFFF000000000
000000000FFFFFFF000000FFFFFFE000000000
000000000FFFFFFF000000FFFFFFC000000000
0000000007FFFFFF800001FFFFFF8000000000
0000000003FFFFFFC00003FFFFFF0000000000
0000000001FFFFFFE00007FFFFFF0000000000
0000000000FFFFFFF0000FFFFFFE0000000000
00000000007FFFFFF8001FFFFFFC0000000000
00000000007FFFFFF8003FFFFFF80000000000
00000000003FFFFFFC003FFFFFF00000000000
00000000001FFFFFFE007FFFFFE00000000000
00000000000FFFFFFF00FFFFFFE00000000000
000000000007FFFFFF81FFFFFFC00000000000
000000000003FFFFFFC3FFFFFF800000000000
000000000001FFFFFFE7FFFFFF000000000000
000000000001FFFFFFE7FFFFFE000000000000
000000000000FFFFFFFFFFFFFC000000000000
0000000000007FFFFFFFFFFFF8000000000000
0000000000003FFFFFFFFFFFF8000000000000
0000000000001FFFFFFFFFFFF0000000000000
0000000000000FFFFFFFFFFFE0000000000000
00000000000007FFFFFFFFFFC0000000000000
00000000000007FFFFFFFFFF80000000000000
00000000000003FFFFFFFFFF00000000000000
00000000000001FFFFFFFFFE00000000000000
00000000000000FFFFFFFFFE00000000000000
000000000000007FFFFFFFFC00000000000000
000000000000003FFFFFFFF800000000000000
000000000000001FFFFFFFF000000000000000
000000000000001FFFFFFFE000000000000000
000000000000000FFFFFFFC000000000000000
0000000000000007FFFFFF8000000000000000
0000000000000003FFFFFF8000000000000000
0000000000000001FFFFFF0000000000000000
0000000000000000FFFFFE0000000000000000
0000000000000000FFFFFC0000000000000000
00000000000000007FFFFC0000000000000000
00000000000000007FFFFC0000000000000000
00000000000000007FFFFC0000000000000000
00000000000000007FFFFC0000000000000000
00000000000000007FFFFC0000000000000000
00000000000000007FFFFC0000000000000000
00000000000000007FFFFC0000000000000000
00000000000000007FFFFC0000000000000000
00000000000000007FFFFC0000000000000000
00000000000000007FFFFC0000000000000000
00000000000000007FFFFC0000000000000000
00000000000000007FFFFC0000000000000000
00000000000000007FFFFC0000000000000000
00000000000000007FFFFC0000000000000000
00000000000000007FFFFC0000000000000000
00000000000000007FFFFC0000000000000000
00000000000000007FFFFC0000000000000000
00000000000000007FFFFC0000000000000000
00000000000000007FFFFC0000000000000000
00000000000000007FFFFC0000000000000000
00000000000000007FFFFC0000000000000000
00000000000000007FFFFC0000000000000000
00000000000000007FFFFC0000000000000000
00000000000000007FFFFC0000000000000000
00000000000000007FFFFC0000000000000000
00000000000000007FFFFC0000000000000000
00000000000000007FFFFC0000000000000000
00000000000000007FFFFC0000000000000000
00000000000000007FFFFC0000000000000000
00000000000000007FFFFC0000000000000000
00000000000000007FFFFC0000000000000000
00000000000000007FFFFC0000000000000000
00000000000000007FFFFC0000000000000000
00000000000000007FFFFC0000000000000000
00000000000000007FFFFC0000000000000000
00000000000000007FFFFC0000000000000000
00000000000000007FFFFC0000000000000000
00000000000000007FFFFC0000000000000000
00000000000000007FFFFC0000000000000000
00000000000000007FFFFC0000000000000000
00000000000000007FFFFC0000000000000000
00000000000000007FFFFC0000000000000000
00000000000000007FFFFC0000000000000000
00000000000000007FFFFC0000000000000000
00000000000000007FFFFC0000000000000000
00000000000000007FFFFC0000000000000000
ENDCHAR
STARTCHAR Z
ENCODING 90
SWIDTH 802 0
DWIDTH 134 0
BBX 119 122 7 0
BITMAP
7FFFFFFFFFFFFFFFFFFFFFFFFFFE00
7FFFFFFFFFFFFFFFFFFFFFFFFFFFC0
7FFFFFFFFFFFFFFFFFFFFFFFFFFFE0
7FFFFFFFFFFFFFFFFFFFFFFFFFFFF8
7FFFFFFFFFFFFFFFFFFFFFFFFFFFF8
7FFFFFFFFFFFFFFFFFFFFFFFFFFFFC
7FFFFFFFFFFFFFFFFFFFFFFFFFFFFE
7FFFFFFFFFFFFFFFFFFFFFFFFFFFFE
7FFFFFFFFFFFFFFFFFFFFFFFFFFFFE
7FFFFFFFFFFFFFFFFFFFFFFFFFFFFE
7FFFFFFFFFFFFFFFFFFFFFFFFFFFFE
7FFFFFFFFFFFFFFFFFFFFFFFFFFFFE
7FFFFFFFFFFFFFFFFFFFFFFFFFFFFE
7FFFFFFFFFFFFFFFFFFFFFFFFFFFFE
7FFFFFFFFFFFFFFFFFFFFFFFFFFFFE
7FFFFFFFFFFFFFFFFFFFFFFFFFFFFC
7FFFFFFFFFFFFFFFFFFFFFFFFFFFFC
7FFFFFFFFFFFFFFFFFFFFFFFFFFFF8
7FFFFFFFFFFFFFFFFFFFFFFFFFFFF0
7FFFFFFFFFFFFFFFFFFFFFFFFFFFF0
000000000000000000000FFFFFFFE0
000000000000000000001FFFFFFFC0
000000000000000000003FFFFFFF80
000000000000000000007FFFFFFF00
00000000000000000000FFFFFFFE00
00000000000000000001FFFFFFFC00
00000000000000000003FFFFFFF800
00000000000000000007FFFFFFF000
0000000000000000000FFFFFFFE000
0000000000000000001FFFFFFFC000
0000000000000000003FFFFFFF8000
0000000000000000007FFFFFFF0000
000000000000000000FFFFFFFE0000
000000000000000001FFFFFFFC0000
000000000000000003FFFFFFF80000
000000000000000007FFFFFFF00000
00000000000000000FFFFFFFE00000
00000000000000001FFFFFFFC00000
00000000000000003FFFFFFF800000
00000000000000007FFFFFFF000000
00000000000000007FFFFFFE000000
0000000000000000FFFFFFFC000000
0000000000000001FFFFFFF8000000
0000000000000003FFFFFFF0000000
0000000000000007FFFFFFE0000000
000000000000000FFFFFFFC0000000
000000000000001FFFFFFF80000000
000000000000003FFFFFFF00000000
000000000000007FFFFFFE00000000
00000000000000FFFFFFFC00000000
00000000000001FFFFFFF800000000
00000000000003FFFFFFF000000000
00000000000007FFFFFFE000000000
0000000000000FFFFFFFC000000000
0000000000001FFFFFFF8000000000
0000000000003FFFFFFF0000000000
0000000000007FFFFFFE0000000000
000000000000FFFFFFFC0000000000
000000000001FFFFFFF80000000000
000000000003FFFFFFF00000000000
000000000007FFFFFFE00000000000
00000000000FFFFFFFC00000000000
00000000001FFFFFFF800000000000
00000000003FFFFFFF000000000000
00000000007FFFFFFE000000000000
0000000000FFFFFFFC000000000000
0000000001FFFFFFF8000000000000
0000000003FFFFFFF0000000000000
0000000007FFFFFFE0000000000000
000000000FFFFFFFC0000000000000
000000001FFFFFFF80000000000000
000000003FFFFFFF00000000000000
000000007FFFFFFE00000000000000
00000000FFFFFFFC00000000000000
00000001FFFFFFF800000000000000
00000003FFFFFFF800000000000000
00000007FFFFFFF000000000000000
0000000FFFFFFFE000000000000000
0000001FFFFFFFC000000000000000
0000003FFFFFFF8000000000000000
0000007FFFFFFF0000000000000000
000000FFFFFFFE0000000000000000
000001FFFFFFFC0000000000000000
000003FFFFFFF80000000000000000
000007FFFFFFF00000000000000000
00000FFFFFFFE00000000000000000
00001FFFFFFFC00000000000000000
00003FFFFFFF800000000000000000
00007FFFFFFF000000000000000000
0000FFFFFFFE000000000000000000
0001FFFFFFFC000000000000000000
0003FFFFFFF8000000000000000000
0007FFFFFFF0000000000000000000
000FFFFFFFE0000000000000000000
001FFFFFFFC0000000000000000000
003FFFFFFF80000000000000000000
007FFFFFFF00000000000000000000
00FFFFFFFE00000000000000000000
01FFFFFFFC00000000000000000000
03FFFFFFF800000000000000000000
07FFFFFFF000000000000000000000
0FFFFFFFE000000000000000000000
1FFFFFFFFFFFFFFFFFFFFFFFFFFFFE
1FFFFFFFFFFFFFFFFFFFFFFFFFFFFE
3FFFFFFFFFFFFFFFFFFFFFFFFFFFFE
7FFFFFFFFFFFFFFFFFFFFFFFFFFFFE
7FFFFFFFFFFFFFFFFFFFFFFFFFFFFE
FFFFFFFFFFFFFFFFFFFFFFFFFFFFFE
FFFFFFFFFFFFFFFFFFFFFFFFFFFFFE
FFFFFFFFFFFFFFFFFFFFFFFFFFFFFE
FFFFFFFFFFFFFFFFFFFFFFFFFFFFFE
FFFFFFFFFFFFFFFFFFFFFFFFFFFFFE
FFFFFFFFFFFFFFFFFFFFFFFFFFFFFE
FFFFFFFFFFFFFFFFFFFFFFFFFFFFFE
FFFFFFFFFFFFFFFFFFFFFFFFFFFFFE
FFFFFFFFFFFFFFFFFFFFFFFFFFFFFE
7FFFFFFFFFFFFFFFFFFFFFFFFFFFFE
3FFFFFFFFFFFFFFFFFFFFFFFFFFFFE
3FFFFFFFFFFFFFFFFFFFFFFFFFFFFE
0FFFFFFFFFFFFFFFFFFFFFFFFFFFFE
07FFFFFFFFFFFFFFFFFFFFFFFFFFFE
00FFFFFFFFFFFFFFFFFFFFFFFFFFFE
ENDCHAR
STARTCHAR bracketleft
ENCODING 91
SWIDTH 333 0
DWIDTH 56 0
BBX 28 154 17 -15
BITMAP
FFFFFFF0
FFFFFFF0
FFFFFFF0
FFFFFFF0
FFFFFFF0
FFFFFFF0
FFFFFFF0
FFFFFFF0
FFFFFFF0
FFFFFFF0
FFFFFFF0
FFFFFFF0
FFFFFFF0
FFFFFFF0
FFF80000
FFF80000
FFF80000
FFF80000
FFF80000
FFF80000
FFF80000
FFF80000
FFF80000
FFF80000
FFF80000
FFF80000
FFF80000
FFF80000
FFF80000
FFF80000
FFF80000
FFF80000
FFF80000
FFF80000
FFF80000
FFF80000
FFF80000
FFF80000
FFF80000
FFF80000
FFF80000
FFF80000
FFF80000
FFF80000
FFF80000
FFF80000
FFF80000
FFF80000
FFF80000
FFF80000
FFF80000
FFF80000
FFF80000
FFF80000
FFF80000
FFF80000
FFF80000
FFF80000
FFF80000
FFF80000
FFF80000
FFF80000
FFF80000
FFF80000
FFF80000
FFF80000
FFF80000
FFF80000
FFF80000
FFF80000
FFF80000
FFF80000
FFF80000
FFF80000
FFF80000
FFF80000
FFF80000
FFF80000
FFF80000
FFF80000
FFF80000
FFF80000
FFF80000
FFF80000
FFF80000
FFF80000
FFF80000
FFF80000
FFF80000
FFF80000
FFF80000
FFF80000
FFF80000
FFF80000
FFF80000
FFF80000
FFF80000
FFF80000
FFF80000
FFF80000
FFF80000
FFF80000
FFF80000
FFF80000
FFF80000
FFF80000
FFF80000
FFF80000
FFF80000
FFF80000
FFF80000
FFF80000
FFF80000
FFF80000
FFF80000
FFF80000
FFF80000
FFF80000
FFF80000
FFF80000
FFF80000
FFF80000
FFF80000
FFF80000
FFF80000
FFF80000
FFF80000
FFF80000
FFF80000
FFF80000
FFF80000
FFF80000
FFF80000
FFF80000
FFF80000
FFF80000
FFF80000
FFF80000
FFF80000
FFF80000
FFFFFFF0
FFFFFFF0
FFFFFFF0
FFFFFFF0
FFFFFFF0
FFFFFFF0
FFFFFFF0
FFFFFFF0
FFFFFFF0
FFFFFFF0
FFFFFFF0
FFFFFFF0
FFFFFFF0
FFFFFFF0
ENDCHAR
ENDFONT
